<svg width="67" height="67" viewBox="0 0 67 67" fill="none" xmlns="http://www.w3.org/2000/svg">
<rect width="67" height="67" fill="white"/>
<rect width="67" height="15" fill="#E23C3C"/>
<path d="M26 21H32V27H26V21Z" fill="#D9D9D9"/>
<path d="M35 21H41V27H35V21Z" fill="#D9D9D9"/>
<path d="M44 21H50V27H44V21Z" fill="#D9D9D9"/>
<path d="M53 21H59V27H53V21Z" fill="#D9D9D9"/>
<path d="M8 53H14V59H8V53Z" fill="#D9D9D9"/>
<path d="M17 53H23V59H17V53Z" fill="#D9D9D9"/>
<path d="M26 53H32V59H26V53Z" fill="#D9D9D9"/>
<path d="M35 53H41V59H35V53Z" fill="#D9D9D9"/>
<path d="M26 29H32V35H26V29Z" fill="#D9D9D9"/>
<path d="M35 29H41V35H35V29Z" fill="#D9D9D9"/>
<path d="M8 29H14V35H8V29Z" fill="#D9D9D9"/>
<path d="M17 29H23V35H17V29Z" fill="#D9D9D9"/>
<path d="M44 29H50V35H44V29Z" fill="#D9D9D9"/>
<path d="M53 29H59V35H53V29Z" fill="#D9D9D9"/>
<path d="M26 45H32V51H26V45Z" fill="#D9D9D9"/>
<path d="M35 45H41V51H35V45Z" fill="#D9D9D9"/>
<path d="M8 45H14V51H8V45Z" fill="#D9D9D9"/>
<path d="M17 45H23V51H17V45Z" fill="#D9D9D9"/>
<path d="M44 45H50V51H44V45Z" fill="#D9D9D9"/>
<path d="M53 45H59V51H53V45Z" fill="#D9D9D9"/>
<path d="M26 37H32V43H26V37Z" fill="#D9D9D9"/>
<path d="M35 37H41V43H35V37Z" fill="#D9D9D9"/>
<path d="M8 37H14V43H8V37Z" fill="#D9D9D9"/>
<path d="M17 37H23V43H17V37Z" fill="#D9D9D9"/>
<path d="M44 37H50V43H44V37Z" fill="#D9D9D9"/>
<path d="M53 37H59V43H53V37Z" fill="#D9D9D9"/>
<path d="M26 21H32V27H26V21Z" fill="#D9D9D9"/>
<path d="M35 21H41V27H35V21Z" fill="#D9D9D9"/>
<path d="M44 21H50V27H44V21Z" fill="#D9D9D9"/>
<path d="M53 21H59V27H53V21Z" fill="#D9D9D9"/>
<path d="M8 53H14V59H8V53Z" fill="#D9D9D9"/>
<path d="M17 53H23V59H17V53Z" fill="#D9D9D9"/>
<path d="M26 53H32V59H26V53Z" fill="#D9D9D9"/>
<path d="M35 53H41V59H35V53Z" fill="#D9D9D9"/>
<path d="M26 29H32V35H26V29Z" fill="#D9D9D9"/>
<path d="M35 29H41V35H35V29Z" fill="#D9D9D9"/>
<path d="M8 29H14V35H8V29Z" fill="#D9D9D9"/>
<path d="M17 29H23V35H17V29Z" fill="#D9D9D9"/>
<path d="M44 29H50V35H44V29Z" fill="#D9D9D9"/>
<path d="M53 29H59V35H53V29Z" fill="#D9D9D9"/>
<path d="M26 45H32V51H26V45Z" fill="#D9D9D9"/>
<path d="M35 45H41V51H35V45Z" fill="#D9D9D9"/>
<path d="M8 45H14V51H8V45Z" fill="#D9D9D9"/>
<path d="M17 45H23V51H17V45Z" fill="#D9D9D9"/>
<path d="M44 45H50V51H44V45Z" fill="#D9D9D9"/>
<path d="M53 45H59V51H53V45Z" fill="#D9D9D9"/>
<path d="M26 37H32V43H26V37Z" fill="#D9D9D9"/>
<path d="M35 37H41V43H35V37Z" fill="#D9D9D9"/>
<path d="M8 37H14V43H8V37Z" fill="#D9D9D9"/>
<path d="M17 37H23V43H17V37Z" fill="#D9D9D9"/>
<path d="M44 37H50V43H44V37Z" fill="#D9D9D9"/>
<path d="M53 37H59V43H53V37Z" fill="#D9D9D9"/>
<path d="M44 53H50V59H44V53Z" fill="#D9D9D9"/>
<path d="M11 7C11 8.65685 9.65685 10 8 10C6.34315 10 5 8.65685 5 7C5 5.34315 6.34315 4 8 4C9.65685 4 11 5.34315 11 7Z" fill="white"/>
<path d="M62 7C62 8.65685 60.6569 10 59 10C57.3431 10 56 8.65685 56 7C56 5.34315 57.3431 4 59 4C60.6569 4 62 5.34315 62 7Z" fill="white"/>
<rect width="67" height="67" fill="white"/>
<rect width="67" height="15" fill="#E23C3C"/>
<path d="M26 21H32V27H26V21Z" fill="#D9D9D9"/>
<path d="M35 21H41V27H35V21Z" fill="#D9D9D9"/>
<path d="M44 21H50V27H44V21Z" fill="#D9D9D9"/>
<path d="M53 21H59V27H53V21Z" fill="#D9D9D9"/>
<path d="M8 53H14V59H8V53Z" fill="#D9D9D9"/>
<path d="M17 53H23V59H17V53Z" fill="#D9D9D9"/>
<path d="M26 53H32V59H26V53Z" fill="#D9D9D9"/>
<path d="M35 53H41V59H35V53Z" fill="#D9D9D9"/>
<path d="M26 29H32V35H26V29Z" fill="#D9D9D9"/>
<path d="M35 29H41V35H35V29Z" fill="#D9D9D9"/>
<path d="M8 29H14V35H8V29Z" fill="#D9D9D9"/>
<path d="M17 29H23V35H17V29Z" fill="#D9D9D9"/>
<path d="M44 29H50V35H44V29Z" fill="#D9D9D9"/>
<path d="M53 29H59V35H53V29Z" fill="#D9D9D9"/>
<path d="M26 45H32V51H26V45Z" fill="#D9D9D9"/>
<path d="M35 45H41V51H35V45Z" fill="#D9D9D9"/>
<path d="M8 45H14V51H8V45Z" fill="#D9D9D9"/>
<path d="M17 45H23V51H17V45Z" fill="#D9D9D9"/>
<path d="M44 45H50V51H44V45Z" fill="#D9D9D9"/>
<path d="M53 45H59V51H53V45Z" fill="#D9D9D9"/>
<path d="M26 37H32V43H26V37Z" fill="#D9D9D9"/>
<path d="M35 37H41V43H35V37Z" fill="#D9D9D9"/>
<path d="M8 37H14V43H8V37Z" fill="#D9D9D9"/>
<path d="M17 37H23V43H17V37Z" fill="#D9D9D9"/>
<path d="M44 37H50V43H44V37Z" fill="#D9D9D9"/>
<path d="M53 37H59V43H53V37Z" fill="#D9D9D9"/>
<path d="M26 21H32V27H26V21Z" fill="#D9D9D9"/>
<path d="M35 21H41V27H35V21Z" fill="#D9D9D9"/>
<path d="M44 21H50V27H44V21Z" fill="#D9D9D9"/>
<path d="M53 21H59V27H53V21Z" fill="#D9D9D9"/>
<path d="M8 53H14V59H8V53Z" fill="#D9D9D9"/>
<path d="M17 53H23V59H17V53Z" fill="#D9D9D9"/>
<path d="M26 53H32V59H26V53Z" fill="#D9D9D9"/>
<path d="M35 53H41V59H35V53Z" fill="#D9D9D9"/>
<path d="M26 29H32V35H26V29Z" fill="#D9D9D9"/>
<path d="M35 29H41V35H35V29Z" fill="#D9D9D9"/>
<path d="M8 29H14V35H8V29Z" fill="#D9D9D9"/>
<path d="M17 29H23V35H17V29Z" fill="#D9D9D9"/>
<path d="M44 29H50V35H44V29Z" fill="#D9D9D9"/>
<path d="M53 29H59V35H53V29Z" fill="#D9D9D9"/>
<path d="M26 45H32V51H26V45Z" fill="#D9D9D9"/>
<path d="M35 45H41V51H35V45Z" fill="#D9D9D9"/>
<path d="M8 45H14V51H8V45Z" fill="#D9D9D9"/>
<path d="M17 45H23V51H17V45Z" fill="#D9D9D9"/>
<path d="M44 45H50V51H44V45Z" fill="#D9D9D9"/>
<path d="M53 45H59V51H53V45Z" fill="#D9D9D9"/>
<path d="M26 37H32V43H26V37Z" fill="#D9D9D9"/>
<path d="M35 37H41V43H35V37Z" fill="#D9D9D9"/>
<path d="M8 37H14V43H8V37Z" fill="#D9D9D9"/>
<path d="M17 37H23V43H17V37Z" fill="#D9D9D9"/>
<path d="M44 37H50V43H44V37Z" fill="#D9D9D9"/>
<path d="M53 37H59V43H53V37Z" fill="#D9D9D9"/>
<path d="M44 53H50V59H44V53Z" fill="#D9D9D9"/>
<path d="M11 7C11 8.65685 9.65685 10 8 10C6.34315 10 5 8.65685 5 7C5 5.34315 6.34315 4 8 4C9.65685 4 11 5.34315 11 7Z" fill="white"/>
<path d="M62 7C62 8.65685 60.6569 10 59 10C57.3431 10 56 8.65685 56 7C56 5.34315 57.3431 4 59 4C60.6569 4 62 5.34315 62 7Z" fill="white"/>
</svg>
