<svg width="40" height="69" viewBox="0 0 40 69" fill="none" xmlns="http://www.w3.org/2000/svg">
<rect x="5.5" y="22.9027" width="9" height="46" fill="#FDBF27"/>
<path d="M7.08824 32.9027C7.08824 32.9027 6.32353 30.0957 3.5 29.3472C0.676471 28.5986 0.5 22.4231 0.5 22.4231C0.5 22.4231 0.5 12.6918 0.5 5.95508C0.5 -0.781647 4.73529 -0.78118 4.73529 5.95508C4.73529 12.6913 4.73529 13.4405 4.73529 17.9318C4.73529 22.4231 8.5 22.4231 8.5 17.9318C8.5 13.4405 8.5 5.95508 8.5 5.95508" stroke="#FDF8F1"/>
<path d="M7.08824 32.9027C7.08824 32.9027 6.32353 30.0957 3.5 29.3472C0.676471 28.5986 0.5 22.4231 0.5 22.4231C0.5 22.4231 0.5 12.6918 0.5 5.95508C0.5 -0.781647 4.73529 -0.78118 4.73529 5.95508C4.73529 12.6913 4.73529 13.4405 4.73529 17.9318C4.73529 22.4231 8.5 22.4231 8.5 17.9318C8.5 13.4405 8.5 5.95508 8.5 5.95508" stroke="#FDBF27"/>
<path d="M13.9118 32.9027C13.9118 32.9027 14.8529 30.6571 17.6765 29.9085C20.5 29.16 20.5 22.4231 20.5 22.4231C20.5 22.4231 20.5 12.6918 20.5 5.95508C20.5 -0.781647 16.2647 -0.78118 16.2647 5.95508C16.2647 12.6913 16.2647 13.4405 16.2647 17.9318C16.2647 22.4231 12.5 22.4231 12.5 17.9318C12.5 13.4405 12.5 5.95508 12.5 5.95508" stroke="#FDBF27"/>
<path d="M13.9118 32.9027C13.9118 32.9027 14.8529 30.6571 17.6765 29.9085C20.5 29.16 20.5 22.4231 20.5 22.4231C20.5 22.4231 20.5 12.6918 20.5 5.95508C20.5 -0.781647 16.2647 -0.78118 16.2647 5.95508C16.2647 12.6913 16.2647 13.4405 16.2647 17.9318C16.2647 22.4231 12.5 22.4231 12.5 17.9318C12.5 13.4405 12.5 5.95508 12.5 5.95508" stroke="#FDBF27"/>
<path d="M15.0882 32.9027C15.0882 32.9027 14.1471 30.6571 11.3235 29.9085C8.5 29.16 8.5 22.4231 8.5 22.4231C8.5 22.4231 8.5 12.6918 8.5 5.95508C8.5 -0.781646 12.7353 -0.781179 12.7353 5.95508C12.7353 12.6913 12.7353 13.4405 12.7353 17.9318C12.7353 22.4231 16.5 22.4231 16.5 17.9318C16.5 13.4405 16.5 5.95508 16.5 5.95508" stroke="#FDBF27"/>
<path d="M15.0882 32.9027C15.0882 32.9027 14.1471 30.6571 11.3235 29.9085C8.5 29.16 8.5 22.4231 8.5 22.4231C8.5 22.4231 8.5 12.6918 8.5 5.95508C8.5 -0.781646 12.7353 -0.781179 12.7353 5.95508C12.7353 12.6913 12.7353 13.4405 12.7353 17.9318C12.7353 22.4231 16.5 22.4231 16.5 17.9318C16.5 13.4405 16.5 5.95508 16.5 5.95508" stroke="#FDBF27"/>
<path d="M17.7517 12.8961C17.7303 12.8085 17.7078 12.7177 17.6838 12.6237C17.4506 11.7111 17.5417 9.43882 17.6297 7.86731C17.7151 6.34408 18.2121 4.86061 18.4953 4.38221C18.7523 3.94813 18.8146 5.66678 18.9026 7.41119C18.9396 8.14358 18.9535 8.81285 18.9533 9.39988C19.0033 9.41663 19.0515 9.43531 19.0957 9.4542C19.2286 9.51096 19.3246 9.61267 19.3948 9.74222C19.6245 10.1664 19.5777 10.8889 19.6452 11.3095C19.7213 11.7842 19.7693 12.6317 19.8573 13.4299C19.9643 14.3998 19.9814 15.9476 19.8934 17.0545C19.8174 18.0092 19.7693 18.504 19.6812 19.0174C19.5642 19.7 19.5571 20.2012 19.4691 20.6796C19.4426 20.8238 19.4042 20.9886 19.3568 21.1639C19.4761 21.1575 19.5659 21.2469 19.6266 21.3516C20.2917 22.4996 19.6293 24.6564 19.346 25.4514C19.0784 26.2028 18.7936 26.7344 18.3608 27.1994C18.2026 27.6746 17.9326 28.1718 17.7374 28.5117C17.3952 29.1076 16.6252 29.5019 15.9002 29.609C15.6175 29.6508 15.4212 29.8562 15.1396 29.9623C14.9709 30.0258 14.718 29.9983 14.5217 29.8758C13.6823 29.3518 13.9712 28.1632 13.9526 27.4902C13.9387 26.9866 14.3212 25.7299 14.6941 24.8028C14.8607 24.3886 15.0878 24.0092 15.3051 23.6718C15.3102 23.1521 15.3379 22.6937 15.3496 22.4155C15.3537 22.3196 15.2102 22.2909 15.086 22.3079C14.5203 22.3852 14.0433 22.397 13.601 22.2554C13.0839 22.0898 12.6643 21.9366 11.8698 21.1278C11.6489 20.9029 11.4917 20.6841 11.3779 20.4721C11.4474 20.9649 11.5118 21.3546 11.5834 21.7218C11.7201 22.4221 11.9536 23.2753 11.9733 24.0735C11.9766 24.2097 11.8157 24.2342 11.7091 24.2172C11.2675 24.1469 10.8992 23.3155 10.4883 22.3261C10.4364 22.3551 10.3828 22.3782 10.3302 22.3959C10.1632 22.452 9.97242 22.2432 9.76891 21.9269C8.89034 22.5135 8.28868 23.4816 7.83951 23.6678C7.61527 23.7607 7.43271 23.7399 7.32504 23.6349C7.21738 23.5299 7.18237 23.3198 7.18184 23.1416C7.18089 22.8215 7.46241 22.4691 7.72813 22.1859C8.00636 21.8893 6.65412 22.8531 6.17572 23.2085C5.57813 23.6523 4.60368 23.6338 4.05633 23.5638C3.31733 23.4693 3.18758 22.6112 2.53468 21.8512C2.03093 21.2648 1.98468 20.7019 1.84307 20.118C1.83757 20.0953 1.83224 20.0728 1.82706 20.0507C1.80019 20.4143 1.91846 20.8985 1.93111 21.333C1.93194 21.3613 1.93272 21.3896 1.93348 21.4179C1.93905 21.4265 1.94463 21.4355 1.95021 21.445C2.05681 21.6248 2.16899 21.9385 2.21434 22.2055C2.44717 23.5765 3.12701 25.7406 3.77152 26.8198C3.85667 26.9624 3.93969 27.1036 4.02236 27.2413C4.28033 27.5142 4.58084 27.8033 4.95055 28.1569C5.22868 28.4228 5.51865 28.5642 5.71902 28.663C5.83974 28.7225 5.92795 28.7665 5.96145 28.8129C5.98345 28.8435 5.90517 28.873 5.79762 28.8732C5.88727 29.1457 5.87427 29.2919 5.71323 29.2913C5.55412 29.2908 5.3359 29.2318 5.11125 29.1312C4.59838 28.9015 4.10422 28.7668 3.76834 28.3881C3.21516 27.7644 1.90653 26.3508 1.7004 24.6018C1.59432 23.7017 0.95278 21.9927 1.66699 21.2996C1.73484 21.2338 1.8327 21.2618 1.93348 21.4179C1.93272 21.3896 1.93194 21.3613 1.93111 21.333C1.91846 20.8985 1.80019 20.4143 1.82706 20.0507C1.69257 19.4744 1.66185 19.0557 1.54235 18.5618C1.42108 18.0607 1.41824 17.4836 1.3302 16.9362C1.15868 15.8699 1.41824 15.152 1.50628 14.1109C1.72568 11.5165 1.48825 11.013 1.50681 10.3065C1.5292 9.45465 1.34823 8.46717 1.29466 7.7607C1.24816 7.14742 1.10001 6.45386 1.18806 5.79831C1.32731 4.76143 1.45218 4.33023 1.62986 3.9054C1.80264 3.49226 1.91255 3.05733 2.07166 2.59749C2.18275 2.27646 2.33685 1.99551 2.49543 1.8189C2.57153 1.73415 2.68902 1.71229 2.79563 1.76427C3.32947 2.02455 3.22152 2.80487 3.32707 3.38881C3.45741 4.10995 3.50368 4.8203 3.55725 6.51379C3.56861 6.8731 3.60976 6.97787 3.62779 8.58968C3.64582 10.2015 3.64582 13.3169 3.66332 14.9744C3.6879 17.3016 3.82191 18.504 3.84047 18.9999C3.85808 19.4704 3.79054 19.9791 3.72475 20.4374C4.00436 21.1215 4.43763 21.5077 5.09269 21.935C5.72748 22.3492 6.01448 22.7842 6.05002 22.9958C6.06767 23.1009 6.01554 23.2074 5.945 23.279C5.80086 23.4253 5.48623 23.3867 5.16853 23.3161C4.72758 23.2182 4.33048 22.8388 3.53902 21.7649C3.49986 21.9386 3.45248 22.0843 3.3992 22.2002C3.35157 22.3038 3.22364 22.3248 3.11704 22.2904C3.01043 22.2559 2.90542 22.1509 2.85132 22.0093C2.76208 21.7757 2.73657 21.3288 2.66309 20.4455C2.43563 19.9916 2.36306 19.6691 2.2504 19.5685C2.17892 19.5046 2.05681 19.5669 1.98521 19.6374C1.88381 19.7373 1.83961 19.8808 1.82706 20.0507C1.83224 20.0728 1.83757 20.0953 1.84307 20.118C1.98468 20.7019 2.03093 21.2648 2.53468 21.8512C3.18758 22.6112 3.31733 23.4693 4.05633 23.5638C4.60368 23.6338 5.57813 23.6523 6.17572 23.2085C6.65412 22.8531 8.00636 21.8893 7.72813 22.1859C7.46241 22.4691 7.18089 22.8215 7.18184 23.1416C7.18237 23.3198 7.21738 23.5299 7.32504 23.6349C7.43271 23.7399 7.61527 23.7607 7.83951 23.6678C8.28868 23.4816 8.89034 22.5135 9.76891 21.9269C9.71531 21.8437 9.66083 21.7529 9.60566 21.6576C9.43494 21.3627 9.37601 20.8504 9.32191 19.3728C9.26781 17.8951 9.26781 15.4448 9.28532 14.095C9.30177 12.8257 9.36388 11.965 9.42004 11.1779C9.39729 10.8144 9.39772 10.5037 9.39139 10.1485C9.37712 9.34705 9.54997 8.57324 9.60354 4.97888C9.61965 3.8979 9.79819 3.2716 9.92124 2.72107C9.9848 2.4367 10.2214 2.24267 10.4331 2.11909C10.5361 2.05892 10.6447 2.03052 10.7513 2.04749C11.2163 2.12152 11.3533 2.80487 11.5124 3.42382C11.7507 4.35095 11.7776 5.06851 11.8311 7.44778C11.869 9.12992 11.9897 11.1848 12.0083 11.8218C12.032 12.6372 11.8497 13.8367 11.7961 16.5162C11.7726 17.6935 11.6375 18.6101 11.5665 19.1235C11.526 19.4156 11.4408 19.7763 11.3359 20.1671C11.3502 20.2732 11.3641 20.3747 11.3779 20.4721C11.4917 20.6841 11.6489 20.9029 11.8698 21.1278C12.6643 21.9366 13.0839 22.0898 13.601 22.2554C14.0433 22.397 14.5203 22.3852 15.086 22.3079C15.2102 22.2909 15.3537 22.3196 15.3496 22.4155C15.3379 22.6937 15.3102 23.1521 15.3051 23.6718C15.4791 23.4018 15.6469 23.1587 15.7724 22.9464C16.2048 22.2149 16.691 21.7626 17.0278 21.2842C17.1899 21.0539 17.3482 20.84 17.4902 20.7057C17.3981 19.9539 17.4211 19.0059 17.3476 18.0866C17.2401 16.7432 17.2235 15.1966 17.3115 13.9661C17.3405 13.5615 17.4346 13.2395 17.6462 13.0104C17.682 12.9715 17.7168 12.9302 17.7517 12.8961Z" fill="#FDBF27"/>
<path d="M18.2067 3.2696C18.4043 3.20575 18.5683 3.06606 18.6629 2.88124C18.7574 2.69642 18.7746 2.48162 18.7108 2.28409C18.6469 2.08657 18.5072 1.92249 18.3224 1.82797C18.1376 1.73344 17.9228 1.71621 17.7253 1.78005C17.7253 1.78005 17.7253 1.78005 17.7253 1.78005C17.517 1.85351 17.4487 1.93491 17.3965 1.98156C17.3437 2.03495 17.3248 2.0611 17.2996 2.09471C17.2612 2.14796 17.2387 2.18779 17.2205 2.22089C17.1856 2.28582 17.165 2.33369 17.1463 2.37854C17.1102 2.46645 17.0848 2.54196 17.062 2.61332C17.0167 2.75675 16.9821 2.88915 16.9502 3.02099C16.8873 3.28274 16.8378 3.53865 16.7941 3.79069C16.707 4.29702 16.6427 4.79737 16.589 5.2968C16.5884 5.30215 16.5879 5.30752 16.5873 5.31289C16.4942 6.30222 16.4087 7.19842 16.4574 8.12949C16.4583 8.14455 16.4592 8.1592 16.4601 8.17344C16.4683 8.28518 16.471 8.37567 16.5029 8.55767C16.5151 8.60997 16.5147 8.65085 16.5756 8.80613C16.5969 8.85378 16.615 8.90269 16.6877 9.00525C16.7161 9.04478 16.7885 9.13487 16.8913 9.20891C17.0145 9.30078 17.2318 9.40051 17.4887 9.38348C17.9944 9.31694 18.0808 9.09873 18.1515 9.03833C18.2183 8.95326 18.2386 8.91056 18.2595 8.87202C18.373 8.62406 18.3555 8.60141 18.3792 8.5161C18.3851 8.48858 18.39 8.4627 18.3946 8.4374C18.5984 6.52747 18.5128 4.96998 18.6066 3.31874C18.6084 3.28614 18.6095 3.25417 18.6101 3.22288C18.6027 3.12448 18.5832 2.99878 18.7042 2.86181C18.7179 2.84649 18.7344 2.83228 18.7532 2.81743C18.5604 3.02288 18.2861 3.02696 18.2015 3.00233C18.1441 2.9896 18.107 2.97367 18.0688 2.95231C17.9601 2.84905 18.1152 3.04791 18.1866 3.3389C18.2722 3.62449 18.3605 3.95797 18.4627 4.28772C18.4737 4.32338 18.4847 4.35883 18.4962 4.3952C18.624 4.77557 18.5963 5.28115 18.6617 5.91967C18.666 5.9625 18.6706 6.00468 18.6755 6.04805C18.7622 6.76039 18.6916 7.46444 18.6209 8.31947C18.6188 8.34848 18.6168 8.37753 18.6148 8.40685C18.6135 8.42775 18.6121 8.44871 18.6108 8.46974C18.4959 10.0925 18.542 11.8248 18.4802 13.3266C18.476 13.3835 18.4724 13.4398 18.4689 13.4959C18.4632 13.6794 18.4296 13.8788 18.3628 14.0253C18.3493 14.0564 18.3499 14.0966 18.3537 14.1203C18.4469 14.0391 18.5928 14.0027 18.6692 14.0047C18.7966 14.0069 18.8151 14.0352 18.8306 14.0409C18.6332 13.9652 18.4905 13.3 18.354 12.6685C18.3387 12.601 18.3233 12.5333 18.3072 12.4644C18.1162 11.2234 18.2959 9.6169 18.3603 8.15332C18.3646 8.07221 18.369 7.98949 18.3732 7.90897C18.4298 6.90574 18.6397 5.81636 19.0187 4.92289C19.0497 4.85355 19.0837 4.7857 19.1081 4.74501C19.0993 4.75878 19.0936 4.77228 19.0532 4.81841C19.011 4.85469 18.9446 4.96663 18.6676 5.01963C18.3386 5.06806 18.1156 4.8591 18.0751 4.80702C18.0111 4.73167 18.0036 4.70524 17.9919 4.68397C17.9658 4.62205 17.9877 4.6755 17.9932 4.71301C18.0109 4.80075 18.0267 4.92293 18.0392 5.04292C18.0642 5.28569 18.0811 5.54714 18.0954 5.8064C18.1236 6.32904 18.1417 6.86028 18.1631 7.39459C18.1638 7.41252 18.1645 7.43046 18.1652 7.44841C18.2178 8.88899 18.1783 10.3985 18.0465 11.7465C18.0439 11.7679 18.0389 11.7981 18.041 11.7873C17.949 12.2515 17.8422 12.7817 17.708 13.1282C17.6992 13.15 17.6909 13.1684 17.6868 13.1773C17.7115 13.1425 17.691 13.1359 17.8301 13.0002C17.8646 12.9699 17.9096 12.936 17.9696 12.9042C18.0376 12.8668 18.159 12.8231 18.283 12.8186C18.5565 12.8091 18.7279 12.929 18.8185 13.0103C18.9608 13.151 18.9605 13.2006 18.9764 13.2253C18.9885 13.2538 18.9898 13.261 18.9908 13.2646C18.9915 13.2726 18.9781 13.2176 18.9706 13.1709C18.9532 13.0678 18.9393 12.9415 18.9281 12.8154C18.9058 12.5606 18.8926 12.2936 18.8839 12.026C18.8678 11.4926 18.8674 10.945 18.8951 10.4295C18.8981 10.3782 18.901 10.3277 18.904 10.2787C18.9051 10.047 18.9827 9.73459 18.9243 9.86605C18.8764 9.93628 18.7898 9.99942 18.729 10.0223C18.5857 10.07 18.6034 10.0358 18.6421 10.0475C18.6833 10.0534 18.7528 10.0736 18.8193 10.1014C18.8072 10.0959 18.793 10.087 18.7834 10.079C18.7339 10.0034 18.8469 10.2103 18.859 10.4645C18.8883 10.7287 18.8739 11.0068 18.9281 11.4245C18.936 11.479 18.9433 11.5383 18.9502 11.5993C19.0142 12.1946 19.0495 12.8534 19.1177 13.5115C19.1232 13.566 19.1284 13.622 19.1331 13.6786C19.2151 14.7597 19.2044 15.9104 19.1197 16.993C19.1156 17.0413 19.1116 17.0881 19.1075 17.1359C19.0547 17.7413 19.0086 18.3331 18.9111 18.8854C18.9034 18.9297 18.896 18.9738 18.8889 19.0176C18.7966 19.5692 18.768 20.127 18.691 20.5364C18.6857 20.5646 18.6797 20.5944 18.6733 20.6243C18.5363 21.2392 18.2896 21.9559 18.0062 22.4495C18.058 22.3591 18.1436 22.2787 18.213 22.2373C18.4196 22.1274 18.4328 22.1586 18.3878 22.1421C18.4082 22.1393 18.4298 22.1393 18.451 22.1431C18.5098 22.1532 18.5629 22.1865 18.5968 22.2182C18.602 22.2238 18.6061 22.2287 18.6091 22.2319C18.632 22.2791 18.5325 22.0893 18.4967 21.8505C18.4495 21.6058 18.4267 21.3201 18.3496 20.9528C18.3445 20.9296 18.3395 20.9049 18.3348 20.8805C18.1919 20.0806 18.2596 19.0537 18.1804 18.02C18.1788 17.998 18.1772 17.9759 18.1756 17.9538C18.0858 16.6489 18.0755 15.3148 18.1628 14.027C18.1633 14.0203 18.1638 14.0137 18.1643 14.0071C18.1816 13.7516 18.227 13.5993 18.2492 13.5673C18.2546 13.5612 18.2596 13.5554 18.2644 13.5499C18.3164 13.4846 18.3632 13.445 18.2747 13.5126C18.2305 13.5406 18.0906 13.6403 17.8431 13.627C17.5964 13.6074 17.4668 13.4871 17.4215 13.4443C17.4251 13.4477 17.4287 13.4511 17.4321 13.4546C17.9961 13.9849 17.8202 15.5245 17.877 17.0324C17.8784 17.0543 17.8797 17.076 17.881 17.0977C17.9929 18.6545 17.9745 20.0028 18.076 21.7512C18.0766 21.7555 18.0772 21.7601 18.0778 21.7651C18.1658 22.7936 18.1542 24.0479 18.0523 25.1249C18.0519 25.1288 18.0515 25.1326 18.0511 25.1365C18.035 25.4623 17.8101 25.722 17.6262 26.579C17.6252 26.5861 17.6242 26.5933 17.6233 26.6005C17.572 26.9654 17.2831 27.5387 16.9772 28.0441C16.9725 28.0519 16.9679 28.0596 16.9633 28.0672C16.8114 28.3267 16.2741 28.5957 15.7928 28.6661C15.7823 28.6678 15.7719 28.6695 15.7616 28.671C15.4449 28.7173 15.1985 28.8534 15.0572 28.9369C14.9118 29.0248 14.8423 29.068 14.816 29.0801C14.8131 29.0816 14.8108 29.0829 14.8089 29.0842C15.0202 29.0368 14.9464 29.1051 14.9876 29.1102C14.9902 29.1117 14.9932 29.1134 14.9964 29.1155C14.8356 29.1071 14.7852 28.5478 14.8439 27.4656C14.8439 27.4655 14.8439 27.4654 14.8439 27.4652C14.8742 26.9561 15.1848 25.9044 15.4901 25.1397C15.4921 25.1349 15.494 25.1301 15.4959 25.1252C15.7081 24.5893 16.0727 24.0959 16.4964 23.4217C16.5034 23.4101 16.5103 23.3984 16.5172 23.3867C16.8087 22.8793 17.2151 22.4905 17.7091 21.8391C17.7211 21.8226 17.733 21.8059 17.7448 21.7891C17.8794 21.595 18.0423 21.3828 18.0974 21.3372C18.0998 21.3351 18.1005 21.3348 18.0982 21.3368C17.9259 21.5108 17.4664 21.5303 17.3442 21.4521C17.1946 21.3895 17.1707 21.3519 17.1481 21.3366C17.1145 21.3065 17.1363 21.3328 17.152 21.3649C17.1891 21.4336 17.2397 21.5426 17.2881 21.6485C17.2914 21.6557 17.2947 21.663 17.2979 21.6702C17.4612 22.0463 17.3651 23.1883 17.263 24.1021C17.2612 24.1189 17.2594 24.1358 17.2576 24.1527C17.2102 24.7128 16.9536 25.2561 16.6811 26.073C16.6737 26.0968 16.6663 26.1208 16.659 26.145C16.4713 26.7789 16.1484 27.3456 15.6973 27.8342C15.6803 27.8528 15.663 27.8712 15.6456 27.8895C15.5536 27.9883 15.4173 28.076 15.2283 28.146C15.2076 28.1537 15.1864 28.1617 15.1648 28.1698C15.374 28.1055 15.5689 28.1994 15.625 28.2498C15.6462 28.2662 15.661 28.2811 15.6723 28.294C15.6849 28.3511 15.5805 28.0337 15.5533 27.6599C15.5493 27.6239 15.5451 27.5867 15.5408 27.5487C15.5347 27.5418 15.563 27.2929 15.6167 27.0959C15.6694 26.8859 15.7394 26.6631 15.8162 26.4391C15.9707 25.9895 16.1517 25.5334 16.3376 25.0758C16.3542 25.0348 16.3711 24.9935 16.3881 24.9517C16.6579 24.2828 17.055 23.6264 17.5001 23.2665C17.5247 23.2468 17.5477 23.2278 17.5612 23.216C17.5357 23.2255 17.5069 23.2352 17.444 23.2434C17.4033 23.2473 17.3457 23.2514 17.2501 23.2222C17.0758 23.1693 16.983 23.0309 16.9775 23.017C16.9653 22.994 16.9824 23.0334 16.9954 23.0935C17.0031 23.1265 17.0113 23.1669 17.0202 23.2133C17.1337 23.7604 16.6782 24.8749 16.3412 25.8748C16.3216 25.932 16.3025 25.9877 16.2827 26.0453C16.189 26.3165 16.0688 26.5732 15.9285 26.8034C15.8032 27.0203 15.5794 27.2754 15.543 27.2934C15.5478 27.2904 15.557 27.2824 15.5991 27.2621C15.6586 27.2542 15.6705 27.1618 16.0881 27.2149C16.2654 27.2474 16.4613 27.384 16.5449 27.4984C16.6333 27.6124 16.6566 27.69 16.6724 27.7384C16.6981 27.8325 16.6907 27.8428 16.6916 27.8449C16.6896 27.842 16.6905 27.783 16.6964 27.7222C16.708 27.5954 16.7319 27.4375 16.7585 27.2778C16.8125 26.9556 16.8776 26.6151 16.9435 26.2697C16.9522 26.2243 16.9607 26.1795 16.9692 26.1337C17.1414 25.206 17.6767 24.2582 18.2593 23.2841C18.2872 23.2372 18.3155 23.1898 18.3436 23.1427C18.6778 22.5834 19.0422 22.1497 19.4184 22.041C19.457 22.0273 19.5044 22.0202 19.5678 22.009C19.4292 22.0976 19.0432 22.0352 18.9492 21.9275C18.8696 21.8618 18.8514 21.8247 18.8396 21.8076C19.1734 22.3983 18.9124 23.868 18.5101 24.9968C18.4936 25.0441 18.4767 25.0915 18.4605 25.1359C18.2373 25.7495 17.988 26.226 17.6142 26.6027C17.581 26.6368 17.5469 26.6701 17.5114 26.7035C17.6051 26.6171 17.6809 26.6541 17.4195 26.6642C17.3572 26.6684 17.2792 26.6717 17.1606 26.6888C17.2365 26.6767 17.2847 26.7501 17.1478 26.6449C17.0281 26.5496 16.8658 26.3587 16.6774 26.1286C16.6414 26.0851 16.6033 26.0394 16.563 25.9925C16.4297 25.8748 16.2608 25.1681 16.2327 24.5718C16.1901 23.9447 16.2084 23.2932 16.243 22.6113C16.2454 22.5597 16.258 22.506 16.2709 22.4546C16.3144 22.1447 16.0727 21.7149 15.8747 21.5908C15.6777 21.4437 15.5416 21.4112 15.4308 21.3843C15.2359 21.345 15.104 21.3496 14.9573 21.3668C14.5593 21.4146 14.2163 21.4157 13.9822 21.3575C13.9525 21.3505 13.9239 21.3426 13.896 21.3338C13.5987 21.2401 13.4492 21.18 13.2609 21.0599C13.0763 20.9418 12.8731 20.7692 12.6705 20.5735C12.6313 20.5357 12.5925 20.4974 12.5525 20.4572C12.0754 19.9591 12.0626 19.7402 11.901 18.5756C11.8876 18.512 11.8717 18.4458 11.8523 18.3775C11.6753 17.7479 11.4681 17.1319 11.3663 16.6143C11.358 16.5714 11.3505 16.5293 11.344 16.4883C11.252 15.877 11.1365 15.1896 10.9841 14.5514C10.97 14.4909 10.9555 14.4301 10.9407 14.3689C10.6143 12.985 10.3088 11.6985 10.3225 10.358C10.3211 10.2837 10.3198 10.2089 10.318 10.132C10.3739 8.6866 10.4817 6.8745 10.4755 5.26406C10.4761 5.17514 10.4764 5.08443 10.4766 4.99189C10.4759 4.37527 10.5362 3.81832 10.6737 3.19227C10.6931 3.09978 10.7108 3.00276 10.7278 2.90134C10.7078 2.94313 10.6816 2.9331 10.7276 2.89194C10.7523 2.86996 10.8018 2.85812 10.8511 2.83501C10.8497 2.83651 10.8476 2.83807 10.8449 2.83961C10.8251 2.85159 10.7391 2.88798 10.6204 2.86966C10.5442 2.86238 10.4523 2.80059 10.4408 2.78409C10.4244 2.766 10.4479 2.7937 10.4709 2.84788C10.5209 2.95841 10.5757 3.15073 10.6267 3.36025C10.6481 3.447 10.6698 3.53844 10.6935 3.63433C10.9574 4.66535 10.9089 5.90804 10.9382 7.14409C10.9396 7.2537 10.9408 7.35727 10.9421 7.4678C10.9584 8.82256 11.0104 10.1683 11.0633 11.4959C11.0678 11.6159 11.0723 11.7388 11.0749 11.849C11.0486 13.0841 10.8829 14.6548 10.8538 16.0785C10.8494 16.2185 10.8451 16.3555 10.8409 16.4971C10.8199 17.1861 10.7489 17.8689 10.6522 18.5619C10.633 18.7013 10.6122 18.8418 10.5909 18.9884C10.4896 19.6144 10.2326 20.4066 10.0129 21.1745C9.96929 21.3255 9.9384 21.4816 9.90765 21.6392C9.92603 21.5987 9.95689 21.5579 9.98144 21.5353C10.0274 21.4939 10.0381 21.5082 10.0345 21.5156C10.2531 21.4389 10.4945 21.5027 10.5717 21.5478C10.6609 21.5944 10.6737 21.6178 10.6781 21.6224C10.6805 21.6311 10.635 21.5844 10.5946 21.5278C10.5314 21.4415 10.4589 21.3268 10.3865 21.2056C10.3844 21.2424 10.3089 20.9502 10.2874 20.6876C10.2586 20.4142 10.2409 20.1165 10.2274 19.819C10.2202 19.6606 10.2139 19.5009 10.2081 19.3403C10.1574 17.7935 10.1578 16.2095 10.1684 14.6419C10.1699 14.4636 10.1718 14.2844 10.1743 14.1065C10.1853 12.923 10.2718 11.7801 10.3567 10.5553C10.3691 10.3577 10.3796 10.1585 10.3874 9.95785C10.4108 9.28557 10.5079 8.57185 10.5765 7.8209C10.5959 7.61355 10.6135 7.40794 10.6295 7.1999C10.6842 6.49153 10.78 5.84814 10.9979 5.22048C11.059 5.03792 11.1199 4.83332 11.1935 4.60701C11.1936 4.60668 11.1937 4.60635 11.1938 4.60603C11.2452 4.44798 11.2734 4.29698 11.2923 4.18006C11.3015 4.12311 11.3097 4.07073 11.3123 4.06007C11.3125 4.05684 11.3149 4.06104 11.2948 4.11724C11.2671 4.15662 11.2491 4.35585 10.8792 4.53577C10.8544 4.54328 10.799 4.57799 10.6338 4.56514C10.4688 4.5575 10.2628 4.41956 10.2063 4.33324C10.0917 4.16269 10.1443 4.2039 10.1413 4.25307C10.1562 4.36795 10.155 4.57727 10.1447 4.78145C10.1249 5.20203 10.0752 5.65668 10.0658 6.16606C10.0638 6.30433 10.0647 6.44728 10.0752 6.60456C10.1183 7.36716 9.99896 8.30984 9.96561 9.22211C9.95951 9.3568 9.9539 9.48716 9.94847 9.62217C9.8917 11.2715 9.89844 12.8753 9.92725 14.4972C9.93029 14.6486 9.93358 14.7993 9.93721 14.9496C9.96969 16.2309 10.0302 17.5257 10.2 18.8296C10.2213 18.9959 10.2445 19.1625 10.2622 19.3092C10.3446 19.9895 10.4262 20.6724 10.5393 21.373C10.5682 21.5506 10.5982 21.7292 10.6303 21.9078C10.7505 22.5586 10.8774 23.1291 10.9409 23.6577C10.953 23.7571 10.9673 23.8539 10.9747 23.9482C10.9786 23.9989 10.9816 24.049 10.9835 24.0978C10.9765 23.9667 11.0237 23.7328 11.1583 23.5609C11.2902 23.3877 11.4383 23.3148 11.5289 23.2801C11.7171 23.218 11.765 23.2328 11.8642 23.2433C12.1442 23.3138 12.0977 23.3755 12.0563 23.3068C12.0076 23.2495 11.9349 23.1371 11.8672 23.0137C11.7286 22.7621 11.5916 22.456 11.4554 22.1433C11.3981 22.0115 11.3277 21.8826 11.2712 21.7461C11.2604 21.7199 11.2495 21.6935 11.2385 21.667C11.2231 21.63 11.2112 21.5943 11.1763 21.4982C11.1515 21.4428 11.1513 21.3936 11.0241 21.1949C10.9581 21.1052 10.8117 20.8911 10.4552 20.7864C10.0962 20.694 9.85539 20.8036 9.74521 20.8527C8.71111 21.3496 8.06911 22.1892 7.5622 22.6847C7.48279 22.768 7.40101 22.8637 7.4927 22.8311C7.49187 22.833 7.49167 22.8343 7.49228 22.8349C7.49547 22.8385 7.51851 22.8282 7.59724 22.8331C7.67087 22.8364 7.82916 22.8789 7.94596 22.9983C7.96118 23.0134 7.97438 23.0281 7.9858 23.042C8.14339 23.2889 8.04435 23.1912 8.05781 23.139C8.03941 23.269 8.03804 23.1677 8.11639 23.069C8.17542 22.9844 8.26236 22.8846 8.36278 22.7813C8.3998 22.7353 8.40673 22.757 8.52643 22.5619C8.55195 22.5132 8.58636 22.4508 8.61566 22.3256C8.6294 22.2626 8.6416 22.1815 8.63465 22.0747C8.63252 21.8921 8.50197 21.583 8.28736 21.4346C8.08894 21.2819 7.86012 21.2631 7.82691 21.2613C7.76774 21.2568 7.72134 21.2587 7.68273 21.2619C7.60594 21.2689 7.55831 21.2809 7.5201 21.291C7.41675 21.3209 7.38642 21.3387 7.35792 21.3507C7.25519 21.3995 7.22802 21.4179 7.18015 21.445C7.09836 21.4928 7.03141 21.5347 6.9648 21.5767C6.83166 21.661 6.70714 21.7426 6.58269 21.8255C6.335 21.9907 6.09301 22.1576 5.85384 22.3314C5.78363 22.3825 5.71225 22.4348 5.64062 22.4881C5.45911 22.641 4.90229 22.7411 4.38329 22.699C4.31122 22.6942 4.23903 22.6875 4.16949 22.6791C4.14984 22.6731 4.19451 22.6976 4.16419 22.6783C4.13763 22.6589 4.06565 22.5736 3.9867 22.4491C3.82519 22.1982 3.62621 21.8272 3.35326 21.477C3.30302 21.4123 3.25033 21.348 3.1946 21.2843C2.93939 20.9979 2.84217 20.7238 2.72198 20.1371C2.70658 20.0668 2.69019 19.9933 2.67189 19.917C2.57436 19.5235 2.53254 19.1142 2.43187 18.6058C2.41531 18.5247 2.39706 18.4424 2.37695 18.3599C2.29507 18.0316 2.27274 17.576 2.21101 17.0648C2.20036 16.9788 2.1882 16.8907 2.17364 16.8006C2.04477 16.1112 2.21225 15.4119 2.32904 14.4531C2.33904 14.3634 2.34785 14.2741 2.35544 14.1827C2.46099 13.0083 2.48164 11.6396 2.35373 10.526C2.35019 10.4554 2.34926 10.3912 2.35119 10.3287C2.37139 9.45742 2.24991 8.67345 2.18128 7.95438C2.17276 7.86535 2.16541 7.77829 2.16006 7.69509C2.1126 7.06528 2.0254 6.5532 2.04393 6.12956C2.0467 6.05433 2.05205 5.98287 2.06029 5.91546C2.12679 5.39601 2.19225 4.88583 2.32922 4.48277C2.35658 4.40182 2.38713 4.32186 2.42251 4.2369C2.58212 3.85218 2.68368 3.49309 2.78499 3.17368C2.81708 3.07169 2.84573 2.97219 2.8746 2.87532C2.91157 2.74599 2.95876 2.61748 3.01768 2.51624C3.05192 2.45692 3.09563 2.41013 3.11849 2.38503C3.11968 2.38371 3.1208 2.38248 3.12185 2.38135C2.9701 2.57715 2.59911 2.62725 2.42613 2.52212C2.35465 2.49463 2.33733 2.39537 2.37705 2.54119C2.40716 2.66861 2.42086 2.89238 2.44308 3.16174C2.45311 3.27507 2.46566 3.39962 2.4903 3.54005C2.63521 4.36079 2.64965 5.27743 2.67504 6.2032C2.67761 6.31563 2.67815 6.42733 2.67745 6.54162C2.69627 7.18585 2.66003 7.6604 2.66808 8.24544C2.66988 8.36501 2.67132 8.47953 2.67263 8.60037C2.691 10.5758 2.68832 12.5655 2.70245 14.5595C2.7035 14.6991 2.70465 14.8448 2.70591 14.9845C2.7159 16.1894 2.75792 17.4095 2.84411 18.6066C2.85417 18.7575 2.86516 18.9153 2.86937 19.0363C2.88384 19.4674 2.80475 19.9865 2.71874 20.5585C2.69478 20.7226 2.66695 20.8923 2.645 21.0844C2.62595 21.2403 2.59995 21.3899 2.57164 21.5216C2.55564 21.5964 2.57153 21.675 2.55833 21.7324C2.55158 21.7623 2.54479 21.7881 2.53987 21.8053C2.60462 21.6598 2.74977 21.5133 2.88258 21.4485C3.01654 21.3801 3.12496 21.3674 3.20912 21.3663C3.28387 21.3662 3.34455 21.3769 3.40609 21.3965C3.68597 21.5095 3.6848 21.5956 3.72871 21.6741C3.73844 21.7147 3.70395 21.5609 3.6916 21.4307C3.6757 21.2921 3.66217 21.1365 3.64896 20.98C3.62267 20.6647 3.59702 20.3401 3.56835 20.0158C3.55297 19.8411 3.53691 19.6661 3.52009 19.4909C3.38406 18.0559 3.31404 16.6007 3.36085 15.1896C3.36756 15.0136 3.37728 14.825 3.39132 14.6794C3.46588 13.8464 3.45447 13.1335 3.47986 12.393C3.4852 12.1948 3.49092 11.9966 3.49703 11.7988C3.53533 10.3123 3.51478 8.8676 3.49566 7.41232C3.49245 7.19526 3.47718 6.97776 3.45872 6.76254C3.42669 6.38257 3.3822 6.00599 3.36118 5.61623C3.3548 5.50002 3.34724 5.38232 3.33736 5.2619C3.33243 5.20184 3.32681 5.14017 3.32051 5.07935C3.31729 5.04814 3.31388 5.01718 3.31069 4.98888C3.30774 4.97381 3.30395 4.89147 3.30829 4.99956C3.30775 4.94561 3.31011 4.95911 3.30584 4.83894C3.29927 4.80663 3.32191 4.84797 3.27006 4.64116C3.25902 4.6074 3.24628 4.56401 3.20391 4.48549C3.15571 4.41299 3.09881 4.26548 2.80821 4.12526C2.66561 4.05972 2.45492 4.03514 2.28446 4.07929C2.11206 4.12105 1.99474 4.20459 1.9215 4.2705C1.796 4.38846 1.76368 4.46368 1.73463 4.51712C1.64923 4.71146 1.66942 4.71783 1.65857 4.75428C1.64604 4.84303 1.6498 4.84121 1.64858 4.84881C1.64801 4.85923 1.64767 4.86712 1.64735 4.87527C1.64667 4.89367 1.64656 4.89807 1.64618 4.91058C1.64546 4.93598 1.64516 4.94875 1.64464 4.97143C1.64292 5.04823 1.64171 5.11922 1.64048 5.19545C1.63816 5.3416 1.63627 5.48845 1.63456 5.63518C1.63118 5.9277 1.6286 6.21919 1.62658 6.51223C1.62259 7.09541 1.6208 7.68069 1.62195 8.26532C1.62215 8.36886 1.6224 8.47211 1.62271 8.5757C1.64395 10.8196 1.73061 13.0181 1.83778 15.2261C1.84423 15.354 1.85075 15.4811 1.85721 15.6058C1.93693 17.0862 2.08873 18.7075 2.65508 20.1846C2.7024 20.3188 2.74807 20.4483 2.79076 20.5748C3.00598 21.2919 3.59194 22.0397 4.1614 22.4435C4.3002 22.5495 4.4367 22.645 4.57063 22.7352C4.78171 22.8781 4.97075 23.0511 5.07164 23.1924C5.10139 23.2328 5.11704 23.2778 5.11162 23.2681C5.10925 23.2599 5.09943 23.2478 5.08502 23.1578C5.05028 22.8267 5.17524 22.6979 5.26547 22.6095C5.53868 22.382 5.64493 22.4577 5.62315 22.4472C5.60354 22.4516 5.48919 22.4397 5.3687 22.4146C5.35765 22.4493 5.06798 22.2413 4.81465 21.9365C4.55412 21.6374 4.2905 21.2897 4.03109 20.9409C3.93538 20.8119 3.84291 20.6854 3.74749 20.5536C3.55047 20.2827 3.40427 20.0124 3.2634 19.6734C3.22552 19.5849 3.17648 19.5029 3.11241 19.3631C3.0614 19.2735 3.05132 19.174 2.81254 18.939C2.64926 18.7858 2.39278 18.6999 2.21412 18.6984C2.03085 18.693 1.90701 18.7305 1.80955 18.7661C1.61737 18.8427 1.51066 18.923 1.39201 19.0353C0.920077 19.5445 0.983998 20.0005 0.974259 20.2706C0.983889 20.5585 1.01812 20.7822 1.03944 20.9839C1.05522 21.1259 1.06583 21.2541 1.06593 21.3582C1.07151 21.9775 1.05694 22.6513 1.12579 23.3428C1.14277 23.516 1.16408 23.69 1.19029 23.8643C1.3007 24.7691 1.75558 25.7632 2.23234 26.4416C2.32747 26.5866 2.41926 26.7235 2.50635 26.8571C2.92011 27.4953 3.43859 28.019 3.90415 28.4813C4.03191 28.6078 4.15642 28.7322 4.28106 28.857C4.51502 29.0894 4.78848 29.2817 5.047 29.423C5.18212 29.4979 5.34095 29.5725 5.37469 29.5918C5.37463 29.5776 5.38134 29.6466 5.16303 29.3886C5.07998 29.2749 4.97615 29.0698 4.98102 28.8062C4.98541 28.5447 5.09476 28.3467 5.17585 28.2407C5.34211 28.0359 5.42943 28.012 5.4881 27.9751C5.60398 27.9175 5.6416 27.914 5.67768 27.9039C5.74251 27.8897 5.76462 27.8903 5.78766 27.8893C5.82985 27.8891 5.85654 27.892 5.90529 27.9058C5.63107 27.8574 5.24241 27.4027 4.86321 26.7598C4.77785 26.6202 4.69083 26.4745 4.60004 26.325C3.99863 25.2774 3.54003 23.8583 3.22791 22.5547C3.18896 22.385 3.14402 22.2181 3.10385 22.0545C3.07856 21.9379 3.04812 21.8329 3.01483 21.7309C2.96425 21.5774 2.88956 21.44 2.82347 21.2861C2.78625 21.2006 2.74576 21.1138 2.68457 21.0095C2.61878 20.9058 2.55686 20.7895 2.35577 20.6262C2.25228 20.5495 2.09157 20.4375 1.8081 20.4138C1.52036 20.3843 1.20463 20.5433 1.07141 20.6859C0.365863 21.4299 0.4629 22.2097 0.486315 22.7538C0.536353 23.3226 0.654368 23.8258 0.742896 24.2807C0.773399 24.4367 0.800766 24.5907 0.812494 24.7064C0.993823 26.2843 1.83663 27.5627 2.71436 28.6066C2.79821 28.7061 2.88222 28.8035 2.96406 28.8976C2.99847 28.9372 3.03271 28.9765 3.06407 29.0127C3.45305 29.456 3.92665 29.6606 4.25704 29.8015C4.43385 29.8753 4.58883 29.9343 4.72477 29.9943C4.76307 30.0112 4.8019 30.0277 4.84144 30.0436C5.08001 30.1325 5.29458 30.2224 5.71008 30.2353C5.82181 30.2334 5.9311 30.2297 6.1153 30.1625C6.2778 30.1062 6.49525 29.9477 6.60578 29.7761C6.83493 29.4069 6.79103 29.2029 6.79437 29.0658C6.77412 28.8043 6.72627 28.6875 6.6894 28.5672C6.61069 28.3368 6.53279 28.1665 6.45428 27.9941C6.29722 27.6547 6.14126 27.3467 5.98642 27.0351C5.67881 26.4192 5.38131 25.8125 5.10623 25.1996C5.05837 25.093 5.00827 24.9913 4.9559 24.8867C4.8604 24.7021 4.77287 24.5115 4.74541 24.3659C4.72731 24.3161 4.74808 24.1873 4.72177 24.3691C4.71104 24.4056 4.70572 24.4562 4.62743 24.5772C4.56449 24.6891 4.32654 24.8831 4.10002 24.9052C3.67145 24.9263 3.68194 24.8206 3.65465 24.8271C3.63784 24.8134 3.71506 24.8795 3.77478 24.9477C3.90424 25.0906 4.04913 25.2797 4.18769 25.471C4.46931 25.8599 4.73576 26.2733 5.02878 26.7117C5.04469 26.7353 5.06006 26.7582 5.07495 26.7803C5.14669 26.8878 5.20794 27 5.26396 27.1172C5.32642 27.2456 5.35024 27.3214 5.46269 27.5564C5.49954 27.6129 5.47696 27.6362 5.67462 27.8581C5.7021 27.8855 5.73605 27.918 5.79212 27.9596C5.82039 27.9803 5.85449 28.0033 5.89952 28.0281C5.97016 28.0656 6.10445 28.1337 6.31527 28.1432C6.52365 28.1601 6.82396 28.0555 6.98245 27.8975C7.14978 27.7407 7.20976 27.5874 7.24269 27.4858C7.29397 27.2952 7.27986 27.288 7.28553 27.2221C7.28398 27.0391 7.26906 27.0245 7.26392 26.9829C7.24835 26.9051 7.23786 26.8696 7.22763 26.8315C7.20655 26.7555 7.18767 26.6955 7.16897 26.6365C7.13156 26.5193 7.09506 26.411 7.0588 26.3035C6.98623 26.0889 6.91509 25.881 6.84566 25.6727C6.70757 25.2584 6.5765 24.8471 6.4681 24.4455C6.4668 24.4407 6.46631 24.4384 6.46674 24.4405C6.46685 24.4471 6.47359 24.4525 6.47476 24.5437C6.4698 24.5927 6.48648 24.6596 6.40273 24.8663C6.36156 24.9606 6.26109 25.1326 6.06392 25.2557C5.86898 25.3804 5.64652 25.4013 5.5214 25.3889C5.26847 25.3583 5.21788 25.3016 5.16686 25.278C5.12104 25.2501 5.10423 25.2353 5.09098 25.2246C5.06758 25.2046 5.06853 25.2032 5.07136 25.2062C5.09101 25.2246 5.15252 25.3037 5.20196 25.3814L5.17204 25.3315C5.17763 25.3415 5.18319 25.3515 5.18872 25.3614C5.66349 26.2107 6.13556 27.0941 6.63766 27.923L6.60959 27.8712C6.60975 27.8715 6.60992 27.8719 6.6101 27.8722C6.6212 27.9055 6.8297 28.1444 7.02852 28.1552C7.23293 28.1853 7.45602 28.1093 7.70618 27.9655C7.73214 27.9499 7.75586 27.9362 7.77298 27.9265C7.79035 27.9165 7.80125 27.9096 7.80958 27.9C7.8179 27.8903 7.82315 27.8785 7.83046 27.8599C7.83753 27.8416 7.84761 27.8161 7.85934 27.7881C7.85934 27.7881 7.85934 27.7881 7.85934 27.7881C7.97174 27.5251 8.0625 27.3251 8.14971 27.2159C8.22945 27.0889 8.35078 27.1666 8.2849 27.0358C8.28407 27.0341 8.28322 27.0324 8.28235 27.0307C8.27705 27.0201 8.26023 26.9891 8.25428 26.9789C7.74793 26.1428 7.27197 25.3173 6.79601 24.466C6.79052 24.4562 6.78501 24.4463 6.77949 24.4363C6.7738 24.4261 6.7559 24.3962 6.74957 24.3864C6.66101 24.2507 6.57568 24.12 6.42315 23.9508C6.38263 23.9072 6.33881 23.8612 6.2663 23.8005C6.22784 23.769 6.18639 23.7358 6.11274 23.6913C6.03492 23.6519 5.95462 23.5805 5.66992 23.5469C5.52888 23.5331 5.29004 23.5567 5.0817 23.69C4.87101 23.8214 4.76061 24.0075 4.71344 24.1156C4.61705 24.3512 4.63101 24.452 4.62574 24.5315C4.62687 24.6866 4.64417 24.7548 4.65727 24.8237C4.66539 24.862 4.673 24.8927 4.6815 24.9246C4.80469 25.3845 4.94451 25.8249 5.08741 26.257C5.15908 26.4735 5.2317 26.687 5.30198 26.8957C5.33688 26.9996 5.37156 27.1032 5.40187 27.1985C5.4167 27.2452 5.43111 27.2923 5.43989 27.3243C5.44372 27.3375 5.44735 27.355 5.44325 27.3353C5.44255 27.3175 5.4334 27.3334 5.43155 27.1793C5.43689 27.1212 5.4228 27.1175 5.47178 26.9353C5.50344 26.8378 5.56169 26.6876 5.72681 26.5328C5.88314 26.3768 6.18064 26.2733 6.38573 26.29C6.59336 26.2995 6.72339 26.3661 6.79034 26.4015C6.8331 26.425 6.86479 26.4465 6.89049 26.4653C6.94143 26.5031 6.96966 26.5306 6.9908 26.5516C7.15138 26.734 7.10444 26.7082 7.11618 26.7167C7.02615 26.5106 6.78892 26.0575 6.5626 25.7508C6.5499 25.7331 6.53628 25.7137 6.5219 25.6929C6.24422 25.2886 5.95061 24.8464 5.62848 24.413C5.46534 24.1948 5.29831 23.9765 5.08465 23.7438C4.97003 23.6244 4.87083 23.5094 4.63962 23.3492C4.5102 23.2895 4.39783 23.1126 3.84149 23.1492C3.5505 23.1797 3.25756 23.4152 3.16038 23.579C3.04552 23.7553 3.02165 23.86 2.99417 23.9656C2.92049 24.3881 2.9784 24.5075 3.00315 24.697C3.0725 25.0492 3.15835 25.3373 3.26284 25.6183C3.30604 25.7349 3.34987 25.847 3.39992 25.9602C3.68712 26.6103 3.9969 27.2491 4.30318 27.8693C4.45641 28.1808 4.60949 28.488 4.74207 28.7782C4.80709 28.9209 4.86837 29.0653 4.90058 29.1634C4.91664 29.2044 4.9198 29.2597 4.91046 29.1693C4.91783 29.1191 4.86921 29.004 5.04938 28.7085C5.1367 28.5719 5.31623 28.4418 5.44006 28.3997C5.58045 28.3486 5.65302 28.349 5.71638 28.3474C5.77407 28.3534 5.64203 28.3329 5.5502 28.2908C5.53291 28.2838 5.51536 28.2761 5.49773 28.2681C5.31179 28.1838 5.13876 28.1137 4.99035 28.0514C4.69747 27.9318 4.53682 27.8356 4.47261 27.7635C4.43793 27.7253 4.40271 27.6867 4.36847 27.649C4.28721 27.5598 4.20947 27.4737 4.13351 27.3872C3.34258 26.494 2.71912 25.5024 2.58831 24.4971C2.56007 24.2788 2.52086 24.0952 2.48339 23.9207C2.37465 23.4271 2.26327 22.9846 2.21882 22.5874C2.1597 22.1905 2.25606 21.8782 2.26256 21.9134C2.17293 22.0126 1.91815 22.1438 1.69242 22.1193C1.47079 22.0999 1.36708 22.0184 1.31204 21.979C1.20812 21.8922 1.21831 21.8785 1.21585 21.8804C1.22259 21.8911 1.24038 21.9256 1.25631 21.9628C1.28639 22.0324 1.29146 22.1259 1.30641 22.2067C1.31649 22.2607 1.32296 22.3137 1.32482 22.3566C1.34693 22.5592 1.37476 22.7574 1.41535 22.9514C1.75691 24.4534 2.13799 25.8359 2.943 27.3146C3.02708 27.4578 3.1125 27.6057 3.20276 27.7582C3.60885 28.4011 4.10003 29.3934 5.35145 29.7933C5.51741 29.8413 5.66654 29.8595 5.83073 29.8569C5.91466 29.8545 5.99798 29.8493 6.12229 29.8215C6.18809 29.8045 6.25509 29.7923 6.39819 29.7206C6.47 29.6769 6.57093 29.6443 6.74644 29.4275C6.83223 29.3153 6.9448 29.1101 6.94931 28.8409C6.9543 28.5696 6.84757 28.3575 6.75986 28.2373C6.48528 27.9062 6.40955 27.9301 6.32976 27.8703C6.14087 27.7693 6.06717 27.7401 5.97946 27.6935C5.83067 27.6164 5.72002 27.5447 5.62004 27.4568C5.49068 27.3386 5.36359 27.2221 5.23931 27.1043C4.77577 26.6651 4.37437 26.2615 4.07353 25.814C3.97546 25.6694 3.87908 25.5313 3.78844 25.399C3.34246 24.765 3.10786 24.2653 2.98805 23.5731C2.96303 23.4312 2.94162 23.2882 2.92337 23.1435C2.84921 22.5668 2.82571 21.963 2.79629 21.3079C2.78736 21.1078 2.76471 20.9331 2.74324 20.7731C2.71271 20.5502 2.68169 20.3496 2.67474 20.2097C2.65334 20.0613 2.73858 20.0432 2.57841 20.2395C2.531 20.2824 2.50792 20.3046 2.40879 20.3452C2.35781 20.3633 2.2835 20.3892 2.15019 20.3856C2.02128 20.3855 1.81449 20.3174 1.68826 20.198C1.53871 20.0459 1.58201 20.0574 1.58349 20.0772C1.60351 20.1196 1.6252 20.2244 1.66313 20.3216C1.8189 20.7312 2.04494 21.1798 2.3158 21.5662C2.41049 21.7032 2.5025 21.8358 2.59843 21.9729C2.86005 22.3451 3.12399 22.7179 3.43677 23.1008C3.75968 23.4563 4.0913 23.9786 4.96837 24.2176C5.14612 24.2577 5.3343 24.304 5.6207 24.3105C5.82654 24.2992 6.18371 24.3434 6.62454 23.9485C6.85927 23.7126 7.08427 23.374 7.01502 22.8337C6.9844 22.6496 6.94063 22.5466 6.89849 22.451C6.80631 22.2531 6.70629 22.1247 6.60961 22.0012C6.29746 21.6149 5.96251 21.3583 5.61475 21.1348C5.50061 21.0632 5.39308 20.9923 5.29496 20.9218C4.88905 20.6284 4.69152 20.3953 4.53271 19.9666C4.48309 19.8287 4.43354 19.6948 4.38655 19.5654C3.88461 18.2918 3.75818 16.9523 3.66298 15.5033C3.65531 15.3791 3.6475 15.2524 3.63964 15.1251C3.50807 12.9331 3.34129 10.7241 3.29921 8.5623C3.29787 8.46003 3.29672 8.35803 3.29575 8.2557C3.29026 7.6779 3.28859 7.09785 3.29002 6.52008C3.29076 6.22979 3.29228 5.94096 3.29481 5.65214C3.2961 5.50736 3.29762 5.36248 3.2996 5.22026C3.30064 5.14642 3.30171 5.07693 3.30315 5.00784C3.30357 4.98791 3.30383 4.97631 3.30433 4.95776C3.30457 4.94945 3.30469 4.94511 3.30492 4.93888C3.30499 4.9367 3.30504 4.93611 3.30484 4.93993C3.3037 4.94543 3.30823 4.93167 3.29607 5.01896C3.28534 5.05472 3.30563 5.06064 3.22034 5.25477C3.19131 5.30817 3.15902 5.38334 3.03355 5.50127C2.96033 5.56717 2.84301 5.6507 2.67063 5.69246C2.50019 5.73661 2.28951 5.71203 2.14693 5.6465C1.85636 5.50629 1.79949 5.35881 1.75131 5.28637C1.70898 5.2079 1.69627 5.16458 1.68526 5.13093C1.63364 4.92487 1.6565 4.96829 1.65014 4.9394C1.64834 4.89651 1.65002 4.97114 1.64969 4.99956C1.65545 5.16225 1.65983 5.13529 1.66267 5.1751C1.66572 5.20189 1.66834 5.22555 1.67094 5.25047C1.67595 5.29846 1.68052 5.34797 1.68466 5.39809C1.69296 5.49846 1.69972 5.60225 1.70546 5.7069C1.72452 6.05951 1.6979 6.4221 1.67641 6.78693C1.66384 7.00152 1.65412 7.21806 1.65595 7.43377C1.66603 8.87442 1.67907 10.3306 1.63704 11.7377C1.63007 11.938 1.62351 12.1387 1.61736 12.3393C1.59058 13.0774 1.59193 13.8509 1.5306 14.4928C1.50854 14.7204 1.49942 14.9172 1.49115 15.1174C1.4383 16.6603 1.51166 18.1618 1.65217 19.6694C1.66833 19.8394 1.68374 20.0093 1.69854 20.1794C1.7262 20.4959 1.75082 20.8109 1.77773 21.1366C1.82113 21.4868 1.77882 21.7136 1.97392 22.3445C2.11283 22.6686 2.29341 22.9836 2.82799 23.1842C2.95225 23.224 3.07881 23.2455 3.21951 23.2451C3.50998 23.2618 4.05323 23.0659 4.25852 22.5951C4.30083 22.5096 4.33529 22.4291 4.36524 22.3519C4.42169 22.2059 4.49205 22.076 4.5213 21.9405C4.57159 21.7051 4.59627 21.4825 4.61164 21.2645C4.61924 21.1369 4.63529 20.9878 4.65633 20.8338C4.73011 20.2818 4.83568 19.6711 4.81157 18.9636C4.8035 18.7779 4.79095 18.6249 4.77968 18.4693C4.68704 17.2939 4.63443 16.1405 4.62074 14.9642C4.61907 14.8267 4.61763 14.6826 4.61646 14.5442C4.60049 12.5617 4.60297 10.576 4.58295 8.579C4.58152 8.45576 4.57995 8.33866 4.578 8.21587C4.57127 7.65532 4.4929 6.98591 4.43704 6.48596C4.42909 6.37082 4.42231 6.25803 4.4172 6.14406C4.36898 5.20802 4.35111 4.25412 4.16383 3.23757C4.15214 3.17656 4.14202 3.09627 4.13315 3.00567C4.10942 2.78502 4.10384 2.51364 4.02456 2.15997C3.96151 1.83083 3.69551 1.24524 3.16513 1.00642C2.79687 0.799512 2.16499 0.891545 1.86902 1.25644C1.86249 1.26375 1.85603 1.27109 1.84964 1.27846C1.73018 1.41707 1.65225 1.55097 1.57738 1.67889C1.45257 1.89461 1.35181 2.103 1.26873 2.31966C1.22488 2.43293 1.18467 2.54482 1.14953 2.65472C1.03933 3.00052 0.947152 3.31384 0.837215 3.57389C0.790167 3.68583 0.743832 3.80488 0.702147 3.9259C0.489495 4.55351 0.398883 5.12421 0.315821 5.68117C0.297447 5.81194 0.287026 5.94004 0.28243 6.06464C0.260245 6.75713 0.389133 7.34694 0.429266 7.82632C0.438291 7.93241 0.448977 8.03451 0.460212 8.13447C0.551926 8.91958 0.676025 9.63883 0.66244 10.2843C0.659727 10.3963 0.662143 10.5068 0.667363 10.6103C0.798454 11.8476 0.758689 12.8583 0.657121 14.0391C0.650698 14.1134 0.64325 14.1869 0.634672 14.2623C0.551201 15.0136 0.300619 16.0398 0.486752 17.0719C0.49709 17.1365 0.506327 17.2038 0.514804 17.2734C0.569113 17.6912 0.572603 18.1785 0.707747 18.7638C0.722333 18.8246 0.735918 18.8863 0.748852 18.9496C0.826971 19.3328 0.89117 19.829 1.01425 20.3189C1.02845 20.3766 1.04229 20.4376 1.05638 20.5019C1.15034 21.0087 1.36785 21.8598 1.87477 22.4181C1.90615 22.4558 1.9367 22.4948 1.967 22.5355C2.13464 22.7575 2.27312 23.0268 2.49106 23.3884C2.60387 23.568 2.73949 23.7825 2.98211 24.0041C3.21823 24.2272 3.60425 24.4122 3.94318 24.4485C4.04841 24.4624 4.15281 24.473 4.25736 24.4807C5.00748 24.5139 5.82655 24.5336 6.71082 23.9288C6.77526 23.8811 6.84315 23.8314 6.90989 23.7828C7.1379 23.617 7.36786 23.4472 7.59464 23.2826C7.70814 23.2003 7.82134 23.119 7.93059 23.0434C7.98398 23.0065 8.03883 22.9695 8.08043 22.943C8.0982 22.931 8.12823 22.9154 8.09308 22.932C8.0798 22.937 8.06895 22.9464 7.98119 22.9719C7.94846 22.9806 7.90558 22.9916 7.83278 22.9983C7.79616 23.0013 7.75158 23.0032 7.69402 22.9989C7.66213 22.997 7.43743 22.979 7.24051 22.8277C7.02774 22.6807 6.89822 22.3737 6.89627 22.1937C6.88941 22.0884 6.90146 22.0089 6.91478 21.9478C6.94324 21.8263 6.97578 21.7685 6.99834 21.7252C7.1012 21.5588 7.08466 21.606 7.09348 21.5905C6.96461 21.7319 6.83035 21.8859 6.69663 22.0763C6.54229 22.315 6.32789 22.5948 6.30588 23.1442C6.32541 23.4191 6.2611 23.6744 6.62613 24.1866C6.64965 24.2149 6.67555 24.2433 6.70412 24.2715C7.2301 24.7587 7.80482 24.627 8.08967 24.5378C8.12303 24.5269 8.15492 24.5159 8.18632 24.5044C8.57742 24.3418 8.74119 24.2106 8.89672 24.0717C9.58771 23.3632 10.0341 22.8116 10.5608 22.5612C10.4828 22.595 10.2784 22.6943 9.95426 22.6116C9.63261 22.5163 9.51249 22.3299 9.46636 22.2691C9.37898 22.1301 9.40344 22.1481 9.40405 22.1594C9.41834 22.1969 9.45222 22.296 9.49182 22.3908C9.50268 22.4169 9.51351 22.443 9.52432 22.4692C9.58063 22.6052 9.62295 22.7489 9.67984 22.889C9.81661 23.2236 9.9565 23.5648 10.1481 23.9338C10.2459 24.1184 10.3537 24.3118 10.5231 24.5295C10.6993 24.7298 10.9207 25.0604 11.5541 25.1912C11.7667 25.2187 11.9336 25.2297 12.2303 25.1277C12.3745 25.0728 12.5734 24.9682 12.7401 24.7486C12.9098 24.5307 12.9718 24.2379 12.963 24.0492C12.9618 23.9727 12.9591 23.8969 12.9551 23.8224C12.9476 23.6838 12.9394 23.548 12.9232 23.4157C12.8375 22.7197 12.6559 22.0931 12.5366 21.5358C12.5026 21.3762 12.4715 21.2157 12.4433 21.0533C12.3327 20.4135 12.2454 19.7473 12.1621 19.0778C12.1399 18.9001 12.1176 18.7431 12.0974 18.585C11.9405 17.3833 11.8819 16.1498 11.8507 14.9036C11.8472 14.7562 11.8439 14.608 11.8409 14.4588C11.8123 12.8645 11.777 11.2484 11.8055 9.68188C11.8086 9.55017 11.812 9.42297 11.8159 9.29137C11.8307 8.3905 11.9063 7.51398 11.8187 6.46227C11.8097 6.37788 11.8052 6.27795 11.804 6.17253C11.8 5.77432 11.834 5.32545 11.8457 4.83951C11.8492 4.59216 11.857 4.34465 11.8102 4.0112C11.7732 3.83935 11.7778 3.64493 11.5266 3.29422C11.4006 3.11724 11.0921 2.91545 10.8137 2.89721C10.5317 2.87311 10.3717 2.93603 10.2361 2.98862C9.81769 3.1891 9.77397 3.43893 9.72827 3.52514C9.69009 3.62969 9.68107 3.68402 9.671 3.73112C9.65367 3.82136 9.6478 3.87076 9.64053 3.91548C9.62729 4.00133 9.61561 4.05281 9.60337 4.0905C9.60329 4.09075 9.60321 4.091 9.60313 4.09125C9.54765 4.26296 9.45944 4.44895 9.38391 4.66164C9.09833 5.43857 8.96315 6.2804 8.89473 7.05497C8.87681 7.25308 8.85745 7.44832 8.8362 7.64613C8.76329 8.35216 8.64376 9.0887 8.60755 9.88083C8.59862 10.0678 8.58784 10.255 8.57602 10.444C8.49473 11.6139 8.40502 12.8635 8.39636 14.0835C8.39416 14.265 8.39247 14.447 8.39111 14.6277C8.38214 16.2183 8.38295 17.7968 8.43576 19.4052C8.44179 19.5694 8.44828 19.7336 8.45572 19.8988C8.47011 20.2105 8.48401 20.5237 8.51245 20.8574C8.55765 21.197 8.5301 21.5338 8.82481 22.1097C8.9077 22.2562 8.99489 22.4068 9.10934 22.5735C9.18909 22.6868 9.27178 22.8069 9.42563 22.9588C9.50613 23.0344 9.60122 23.1232 9.78527 23.2151C9.95575 23.3052 10.3076 23.3878 10.6258 23.2762C10.919 23.1834 11.2073 23.0256 11.4532 22.7407C11.5926 22.5782 11.7097 22.3739 11.7763 22.1587C11.8286 22.0174 11.8832 21.8749 11.9258 21.7275C12.1423 20.9541 12.3937 20.2179 12.5421 19.2585C12.5608 19.1167 12.5808 18.9669 12.5994 18.8176C12.6939 18.0682 12.7438 17.3008 12.7514 16.5353C12.7527 16.3976 12.7547 16.2644 12.7575 16.1285C12.7703 14.6928 12.9232 13.4156 12.9416 11.7946C12.9371 11.6638 12.931 11.5384 12.9248 11.4142C12.8546 10.0691 12.7656 8.74593 12.7202 7.42777C12.7165 7.31705 12.7129 7.21317 12.7092 7.10308C12.6466 5.86606 12.6968 4.59483 12.3313 3.2133C12.3082 3.12725 12.2846 3.03622 12.2593 2.94094C12.1953 2.70748 12.132 2.45448 11.992 2.14748C11.919 1.99397 11.8272 1.8208 11.653 1.63544C11.4857 1.4518 11.186 1.26668 10.8822 1.22532C10.566 1.17474 10.2769 1.2617 10.0817 1.36528C10.0585 1.37739 10.0363 1.39006 10.015 1.40316C9.89463 1.47919 9.78167 1.57986 9.65916 1.68843C9.44732 1.87469 9.20908 2.15923 9.11466 2.54079C9.0896 2.6275 9.06299 2.7192 9.03901 2.81448C8.86181 3.4812 8.74458 4.25054 8.73046 4.96587C8.72793 5.05704 8.7254 5.14636 8.72287 5.23387C8.68959 6.8891 8.5464 8.34923 8.46475 10.165C8.46569 10.2375 8.4664 10.3099 8.46717 10.3841C8.44155 11.9038 8.79169 13.4167 9.11814 14.8076C9.13172 14.8643 9.14493 14.9203 9.15781 14.976C9.29807 15.5732 9.39349 16.1382 9.49028 16.7816C9.50033 16.8453 9.5114 16.9079 9.5232 16.9693C9.67093 17.7014 9.88001 18.2922 10.0438 18.8894C10.0497 18.9102 10.0555 18.9342 10.0612 18.9616C10.0969 19.4811 10.3455 21.0966 11.1872 21.7983C11.235 21.8475 11.2822 21.8953 11.3309 21.9434C11.7841 22.4233 12.6112 23.0061 13.306 23.177C13.3829 23.2017 13.4605 23.2231 13.5379 23.2414C14.1734 23.3879 14.7347 23.3195 15.2147 23.249C15.1673 23.2529 15.1372 23.2573 15.0404 23.2382C14.9846 23.223 14.9034 23.2089 14.7519 23.0955C14.5998 23.004 14.3888 22.6293 14.4284 22.3765C14.4372 22.4225 14.4447 22.4747 14.4423 22.5253C14.4648 23.9536 14.0156 25.2668 15.1642 27.1835C15.1926 27.2173 15.2228 27.2543 15.254 27.2929C15.4237 27.4995 15.6058 27.7603 15.9088 28.0424C16.1844 28.3123 16.7852 28.675 17.4316 28.5695C17.4316 28.5697 17.4732 28.5663 17.5306 28.5633C17.7524 28.5517 18.3573 28.5295 18.8142 28.0923C18.8693 28.0406 18.9234 27.9877 18.977 27.9328C19.6046 27.3048 19.9878 26.4795 20.2316 25.7669C20.2502 25.7136 20.2694 25.6574 20.288 25.6015C20.6653 24.21 21.2829 22.8075 20.4136 20.8956C20.3448 20.7805 20.2572 20.6506 20.0891 20.5133C19.8704 20.2993 19.3042 20.1997 19.0108 20.3453C18.9676 20.3696 18.9079 20.3972 18.8404 20.4214C17.8187 20.7829 17.2767 21.6091 16.8723 22.2655C16.8444 22.3124 16.816 22.36 16.7878 22.4074C16.203 23.4003 15.545 24.4746 15.2819 25.8182C15.2739 25.8607 15.266 25.9025 15.2577 25.9451C15.195 26.2708 15.1167 26.5969 15.0402 26.9458C15.0023 27.122 14.9642 27.2993 14.9345 27.5119C14.9205 27.6209 14.906 27.7309 14.9086 27.9003C14.9124 27.9871 14.9123 28.0831 14.9626 28.2592C14.9911 28.3491 15.0317 28.4663 15.1463 28.6134C15.2562 28.7614 15.4892 28.9227 15.7091 28.9641C16.1839 29.0277 16.2533 28.9125 16.3657 28.8804C16.4598 28.8353 16.5191 28.7959 16.5711 28.76C17.4538 28.017 17.6494 27.3415 17.9223 26.5834C17.9397 26.528 17.9568 26.4741 17.9747 26.4188C18.2444 25.3955 18.8618 24.4943 18.6635 22.8833C18.6519 22.8271 18.6386 22.7649 18.6214 22.6963C18.5882 22.5693 18.5498 22.4221 18.4468 22.2283C18.352 22.045 18.1204 21.7516 17.759 21.6407C17.5628 21.5793 17.3973 21.5783 17.252 21.5944C17.0235 21.6221 16.8358 21.6936 16.6694 21.7912C16.5963 21.8336 16.5349 21.8742 16.4772 21.917C15.6099 22.5943 15.1277 23.4225 14.7609 24.2825C14.7428 24.3263 14.725 24.3697 14.7075 24.4128C14.3447 25.4409 13.88 26.1564 13.8506 27.7521C13.8549 27.7859 13.8592 27.8209 13.8635 27.8569C13.934 28.2362 13.8786 28.7426 14.3937 29.4072C14.4501 29.4719 14.5146 29.5344 14.5901 29.5926C14.8204 29.7804 15.255 29.9452 15.6798 29.8104C15.7209 29.7988 15.7623 29.786 15.8036 29.7718C16.1762 29.6442 16.5733 29.4302 16.8962 29.0978C16.9201 29.0733 16.944 29.0485 16.9677 29.0236C17.5961 28.3678 18.0847 27.5397 18.3554 26.6683C18.3608 26.6514 18.3664 26.6344 18.372 26.6173C18.5601 26.0486 18.9772 25.2568 19.0647 24.3454C19.0665 24.3284 19.0684 24.3114 19.0702 24.2943C19.1263 23.2833 19.4419 22.4134 18.9502 20.9248C18.9451 20.9136 18.9399 20.9024 18.9347 20.891C18.857 20.7242 18.7696 20.5651 18.642 20.3825C18.5745 20.2893 18.5072 20.1935 18.3651 20.0589C18.2879 19.9921 18.2051 19.907 17.9848 19.816C17.8761 19.774 17.7148 19.7326 17.5204 19.7527C17.3265 19.7705 17.1358 19.8613 17.0181 19.9567C16.9854 19.9825 16.9564 20.0073 16.9298 20.0311C16.6061 20.337 16.4756 20.5548 16.3107 20.7794C16.3033 20.7899 16.2958 20.8004 16.288 20.8112C15.9686 21.244 15.414 21.8316 15.0275 22.5061C15.0229 22.514 15.0181 22.522 15.0132 22.5302C14.6931 23.0517 14.2041 23.7002 13.8923 24.4803C13.89 24.4858 13.8878 24.4913 13.8856 24.4968C13.538 25.4543 13.1704 26.1599 13.061 27.4987C13.0611 27.5041 13.0612 27.5094 13.0613 27.5148C13.0682 27.7999 12.9926 28.3071 13.0426 28.8643C13.0702 29.4035 13.373 30.2458 14.047 30.6362C14.0782 30.6557 14.1097 30.6739 14.1414 30.6909C14.5312 30.8784 14.8821 31.0193 15.4703 30.8403C15.496 30.8312 15.5206 30.8218 15.5448 30.8119C15.9864 30.603 16.1607 30.4959 16.0388 30.5471C16.0592 30.5441 16.0795 30.5409 16.0999 30.5376C17.0207 30.3626 17.9118 29.9495 18.5115 28.9562C18.5163 28.9475 18.5211 28.9388 18.5259 28.9299C18.8464 28.3162 19.1896 27.7324 19.3345 26.8163C19.3346 26.8154 19.3346 26.8145 19.3348 26.8136C19.3312 26.6589 19.6913 26.0184 19.7563 25.3091C19.7568 25.3045 19.7572 25.2999 19.7577 25.2952C19.8585 24.0099 19.8589 22.8811 19.7333 21.5464C19.732 21.5367 19.7307 21.527 19.7293 21.5174C19.6474 20.2119 19.6259 18.4932 19.5085 16.9922C19.507 16.9702 19.5055 16.9481 19.504 16.926C19.3424 15.6834 19.9654 14.0393 18.5727 12.3192C18.5626 12.3091 18.5525 12.299 18.5423 12.289C18.4486 12.1992 18.259 12.0395 17.9439 12.0159C17.6281 11.998 17.4235 12.1295 17.3251 12.1967C17.1277 12.3451 17.0895 12.4126 17.0501 12.4466C17.0475 12.4492 17.0452 12.4515 17.0432 12.4534C16.6026 12.9209 16.4987 13.4665 16.4627 13.872C16.4618 13.883 16.461 13.8941 16.4602 13.9052C16.3657 15.3147 16.3983 16.6917 16.5087 18.0827C16.5107 18.1063 16.5127 18.1298 16.5147 18.1532C16.6045 19.0816 16.5544 20.0389 16.7466 21.1851C16.7537 21.2223 16.7616 21.2609 16.7698 21.2986C16.8156 21.5065 16.8433 21.8086 16.903 22.1424C16.9772 22.4744 17.0151 22.8904 17.4498 23.3706C17.4917 23.4133 17.5369 23.4554 17.5856 23.4955C17.7438 23.626 17.9455 23.7279 18.1608 23.7658C18.2387 23.7797 18.318 23.7846 18.396 23.7815C18.5144 23.7632 18.7009 23.7886 19.0512 23.5928C19.1693 23.5214 19.2972 23.3998 19.378 23.2599C19.8155 22.4672 20.0365 21.7678 20.223 20.9474C20.2314 20.9065 20.2396 20.8645 20.2471 20.8228C20.3501 20.2124 20.3555 19.7318 20.4333 19.2615C20.439 19.2243 20.445 19.187 20.4513 19.1495C20.5614 18.4983 20.6081 17.8715 20.6562 17.2608C20.6599 17.2123 20.6634 17.1649 20.6671 17.116C20.747 15.9067 20.7286 14.7501 20.6179 13.5407C20.6115 13.4765 20.6045 13.4121 20.5969 13.3483C20.522 12.728 20.4821 12.1018 20.3961 11.4196C20.3864 11.3468 20.3756 11.2726 20.3622 11.1944C20.327 10.9965 20.3192 10.6495 20.2724 10.2962C20.2047 9.94607 20.207 9.48087 19.6725 8.98949C19.5826 8.91596 19.48 8.85337 19.3721 8.80701C19.2342 8.74789 19.0919 8.69549 18.9149 8.65803C18.7369 8.62869 18.5219 8.57509 18.1705 8.70835C18.0191 8.76925 17.8521 8.89503 17.7481 9.04659C17.4077 9.63476 17.4887 9.87978 17.4384 10.1684C17.4337 10.222 17.4294 10.2743 17.4251 10.3257C17.3785 10.9152 17.3676 11.4814 17.3718 12.0565C17.3747 12.3449 17.3822 12.6324 17.4012 12.9311C17.4113 13.0813 17.423 13.2316 17.4472 13.4039C17.4602 13.4895 17.472 13.578 17.5123 13.7176C17.5234 13.7538 17.5357 13.7932 17.5624 13.8546C17.5906 13.9071 17.6097 13.9936 17.7753 14.1553C17.8806 14.2497 18.0653 14.3765 18.3569 14.3665C18.4892 14.3617 18.6201 14.315 18.6957 14.2735C18.7621 14.2383 18.8136 14.1998 18.8547 14.1637C19.0248 13.998 19.014 13.973 19.0599 13.9C19.091 13.8417 19.1145 13.7913 19.136 13.7428C19.3871 13.1314 19.5059 12.6485 19.6243 12.1046C19.6384 12.0325 19.6429 11.9939 19.6484 11.9532C19.8043 10.353 19.7254 8.88944 19.6401 7.37397C19.639 7.35618 19.6379 7.33839 19.6368 7.3206C19.6044 6.78993 19.5745 6.25708 19.5354 5.71454C19.5156 5.44403 19.4941 5.16994 19.4613 4.88511C19.444 4.74105 19.426 4.59638 19.3902 4.42292C19.3676 4.32958 19.3608 4.25559 19.2782 4.07012C19.251 4.01697 19.2286 3.96368 19.1419 3.8622C19.0813 3.78685 18.8267 3.55542 18.4635 3.60956C18.3076 3.63379 18.2098 3.68883 18.1316 3.74279C18.0668 3.78927 18.0309 3.82559 17.9964 3.86316C17.9317 3.93678 17.9115 3.97206 17.8825 4.0194C17.8132 4.13771 17.7654 4.23882 17.7199 4.33944C17.2349 5.49612 16.9717 6.61222 16.8862 7.82566C16.8814 7.90732 16.8766 7.99133 16.8722 8.07381C16.8181 9.61377 16.7217 11.0523 17.0604 12.7831C17.0783 12.8468 17.0956 12.9101 17.1128 12.9743C17.3222 13.5481 17.2551 14.3539 18.1653 15.0539C18.2919 15.1319 18.4388 15.2153 18.7006 15.2152C18.8605 15.2158 19.0906 15.1478 19.2426 15.0063C19.3392 14.9365 19.422 14.8727 19.4833 14.7949C19.7474 14.4544 19.9078 14.0813 19.975 13.6821C19.9869 13.6135 19.997 13.545 20.0051 13.4764C20.1529 11.734 20.1865 10.2123 20.3273 8.58764C20.3287 8.56951 20.3302 8.55129 20.3317 8.53296C20.3338 8.50725 20.3359 8.48147 20.3382 8.45542C20.4109 7.69083 20.5146 6.76212 20.4027 5.85195C20.3985 5.81536 20.3947 5.77965 20.391 5.74314C20.3298 5.24341 20.3397 4.5776 20.0856 3.86429C20.0742 3.83243 20.0632 3.80122 20.0523 3.76964C19.9498 3.47538 19.8614 3.17627 19.7487 2.83724C19.6117 2.52033 19.5716 2.02385 18.8858 1.5659C18.7858 1.50823 18.6816 1.46464 18.5542 1.43608C18.3439 1.38161 17.922 1.40213 17.636 1.70396C17.605 1.73911 17.5724 1.77629 17.5388 1.81369C17.2465 2.12899 16.9423 2.58541 16.8966 3.10286C16.8925 3.13721 16.8892 3.17213 16.8865 3.2076C16.7633 4.89558 16.7865 6.69589 16.6167 8.10976C16.6149 8.11888 16.613 8.1274 16.6114 8.13413C16.6151 8.13807 16.5779 8.20508 16.6516 8.04026C16.6672 8.01188 16.6819 7.97877 16.7412 7.90303C16.8051 7.85109 16.8822 7.64205 17.3765 7.57631C17.6275 7.55961 17.8397 7.65741 17.9579 7.74567C18.0568 7.81702 18.1242 7.90145 18.1499 7.9372C18.2158 8.03038 18.2292 8.06976 18.2457 8.10597C18.2895 8.21945 18.2794 8.21363 18.2832 8.22259C18.2827 8.22344 18.273 8.13395 18.269 8.0608C18.2682 8.04788 18.2674 8.03451 18.2666 8.02073C18.2198 7.16697 18.07 6.26994 18.1439 5.47862C18.1445 5.47351 18.145 5.46841 18.1456 5.46331C18.1965 4.98874 18.2576 4.51663 18.3367 4.05724C18.3761 3.82935 18.4207 3.60107 18.4721 3.38756C18.4978 3.28095 18.5255 3.17693 18.554 3.08705C18.5678 3.04333 18.5831 3.00046 18.5933 2.97583C18.598 2.96419 18.6028 2.9555 18.5967 2.9671C18.593 2.97343 18.587 2.9857 18.5654 3.01585C18.5144 3.0521 18.584 3.10189 18.2067 3.2696Z" fill="#FDBF27"/>
<path d="M14.5148 32.7321C13.7726 33.373 13.2854 33.7484 13.193 33.764C12.8123 33.8284 13.8968 33.0767 14.6377 32.2843C15.7874 31.0548 16.5147 29.9644 16.9544 29.4372C17.6842 28.5622 18.0335 28.0302 18.2109 27.7068C18.2352 27.6605 18.2584 27.6162 18.2801 27.5744C18.3787 27.3749 18.397 27.2832 18.4252 27.2409C18.5314 27.0816 18.4461 27.2555 18.2801 27.5744C18.2605 27.6141 18.2377 27.6581 18.2109 27.7068C18.0238 28.064 17.7691 28.5438 17.5612 28.9519C17.2503 29.562 16.7311 30.0662 15.8831 31.0904C15.3287 31.7599 14.8874 32.2918 14.5148 32.7321Z" fill="#FDBF27"/>
<path d="M18.9553 26.9395C18.9036 27.0429 18.8951 27.1625 18.9316 27.272C18.9682 27.3816 19.0467 27.4722 19.1501 27.5239C19.2534 27.5755 19.373 27.584 19.4826 27.5475C19.5922 27.511 19.6827 27.4324 19.7344 27.3291C19.7344 27.3291 19.7344 27.3291 19.7344 27.3291C19.7451 27.3078 19.7551 27.2877 19.7623 27.2742C19.7655 27.268 19.7692 27.2618 19.7655 27.2681C19.7615 27.2732 19.7644 27.2741 19.7311 27.3133C19.7201 27.3251 19.7082 27.3401 19.67 27.3694C19.6439 27.3871 19.6272 27.4044 19.548 27.433C19.4911 27.4585 19.3034 27.475 19.1778 27.3863C18.9502 27.1986 19.0082 27.1345 18.9861 27.0996C18.98 27.0628 18.9804 27.0493 18.9799 27.035C18.9799 27.0371 18.9799 27.0391 18.9799 27.0412C18.9836 27.2692 18.6609 27.5242 18.361 27.7979C18.2187 27.9297 18.0773 28.0749 17.9627 28.2436C17.9599 28.2477 17.9571 28.2518 17.9543 28.256C17.5425 28.8169 16.98 29.4519 16.4753 29.9499C16.4621 29.9626 16.4491 29.9751 16.4363 29.9874C15.9255 30.4588 15.068 30.9978 14.3434 31.6282C14.3124 31.6546 14.2814 31.6811 14.2502 31.7081C13.7629 32.1249 13.2017 32.5803 12.7825 32.8769C12.7717 32.8841 12.7621 32.8899 12.7659 32.8875C12.7687 32.886 12.7724 32.8833 12.7941 32.8724C12.824 32.863 12.8151 32.8438 13.0296 32.7979C13.05 32.7948 13.0722 32.7905 13.1298 32.7883C13.2046 32.7989 13.2716 32.7454 13.6105 32.9112C13.7751 32.9807 14.0479 33.3138 14.0743 33.5499C14.1219 33.7863 14.0721 33.9523 14.0552 34.013C14.0022 34.1743 13.9739 34.1991 13.9529 34.2365C13.8848 34.3333 13.9077 34.2944 13.9193 34.286C13.9523 34.2527 14.0149 34.1953 14.0768 34.1403C14.2035 34.0277 14.3454 33.9056 14.4875 33.7805C14.7729 33.5288 15.0654 33.2643 15.3553 32.9553C15.3602 32.9501 15.365 32.9449 15.3699 32.9397C16.2273 32.0343 16.9914 30.9573 17.6573 30.0768C17.6662 30.0657 17.6747 30.055 17.683 30.0448C18.2404 29.3281 18.798 28.7013 19.246 27.6351C19.2466 27.624 19.2731 27.5998 19.1842 27.747C19.1847 27.7439 19.2201 27.7024 19.1538 27.7844C19.1471 27.7922 19.1388 27.8016 19.1274 27.8136C19.1129 27.8263 19.1179 27.832 19.0156 27.9129C18.9626 27.9489 18.8966 28.0073 18.7068 28.0626C18.5399 28.1217 18.0754 28.1214 17.7902 27.7884C17.5413 27.4828 17.5695 27.2876 17.5593 27.1892C17.5596 27.0859 17.5709 27.0374 17.5781 26.9993C17.6047 26.8843 17.6138 26.8789 17.6171 26.8665C17.6246 26.8474 17.624 26.8494 17.623 26.8512C17.6166 26.8642 17.5971 26.9026 17.5799 26.9351C17.5432 27.0046 17.5032 27.0776 17.4623 27.1514C17.3807 27.2983 17.2949 27.4484 17.2093 27.5982C17.0379 27.8983 16.8646 28.2001 16.7 28.5132C16.6855 28.5404 16.6704 28.5676 16.6545 28.5952C16.3519 29.1119 15.6805 29.788 15.1302 30.4669C15.1116 30.4893 15.0932 30.5116 15.0749 30.5337C14.5539 31.162 14.0389 31.796 13.5236 32.4103L13.607 32.3246C13.5964 32.3343 13.5859 32.3441 13.5754 32.354C13.3252 32.5906 13.1401 32.8237 12.9592 33.0586C12.7532 33.3275 12.559 33.6022 12.3709 33.8235C12.3707 33.8237 12.3705 33.8239 12.3704 33.8242C12.2475 33.9037 12.1456 34.1921 12.1121 34.3346C12.0946 34.4833 12.1423 34.7323 12.2983 34.9046C12.4377 35.0625 12.5862 35.1135 12.6546 35.1349C12.8217 35.1799 12.8695 35.1659 12.9173 35.1662C13.0064 35.1596 13.0367 35.1483 13.0674 35.1396C13.1223 35.1216 13.1472 35.1055 13.1685 35.0897C13.2099 35.0579 13.2288 35.0254 13.2437 34.9896C13.2719 34.9184 13.275 34.8359 13.2706 34.7487C13.2603 34.5746 13.2141 34.3834 13.1946 34.2446C13.1945 34.2441 13.1943 34.2432 13.194 34.2425C13.1937 34.2418 13.1935 34.2413 13.1932 34.2409C13.1929 34.2404 13.1925 34.24 13.192 34.2395C13.1914 34.239 13.1908 34.2384 13.1903 34.2381C13.1903 34.2381 13.1903 34.2381 13.1903 34.2381C13.0702 34.166 12.9213 34.0394 12.8062 33.9245C12.7489 33.867 12.6989 33.8129 12.6723 33.7673C12.6598 33.7443 12.6513 33.7238 12.6641 33.7024C12.6716 33.6917 12.6817 33.6805 12.722 33.6659C12.7453 33.6589 12.7682 33.649 12.8498 33.6428C12.894 33.6433 12.9379 33.6292 13.1013 33.6731C13.168 33.6941 13.3145 33.744 13.4528 33.9006C13.6075 34.0714 13.6548 34.3187 13.6375 34.4653L13.3792 34.9757C13.3796 34.9755 13.3799 34.9752 13.3803 34.975C13.7014 34.7463 13.9796 34.53 14.2484 34.3126C14.4782 34.1264 14.6998 33.9334 14.8811 33.7695C14.8885 33.7629 14.8957 33.7565 14.9027 33.7502C14.9203 33.7339 14.9705 33.6829 14.986 33.6645C15.5332 33.0375 16.0583 32.4106 16.5806 31.7807C16.599 31.7586 16.6174 31.7363 16.636 31.7139C17.1633 31.0464 17.7544 30.5181 18.3389 29.5486C18.3677 29.4971 18.3956 29.4444 18.4223 29.3907C18.5706 29.09 18.7186 28.781 18.8681 28.4708C18.943 28.3155 19.0187 28.1593 19.0956 28.0019C19.1345 27.9222 19.1729 27.8441 19.2148 27.7576C19.2357 27.7141 19.2559 27.6732 19.2852 27.6083C19.2924 27.592 19.3019 27.5714 19.3164 27.5344C19.3228 27.514 19.3374 27.4937 19.3653 27.3715C19.373 27.3312 19.3845 27.2809 19.3848 27.1761C19.3747 27.0763 19.4026 26.8801 19.1531 26.5739C18.8674 26.2404 18.4023 26.24 18.2344 26.2993C18.0438 26.3549 17.9767 26.4139 17.9224 26.4509C17.8169 26.5341 17.8198 26.5422 17.8042 26.5562C17.7913 26.5697 17.7815 26.5808 17.773 26.5905C17.6787 26.7067 17.6928 26.6976 17.6661 26.7349C17.5505 26.9234 17.5601 26.9475 17.5425 26.9826C17.337 27.5198 16.7497 28.2099 16.2259 28.8296C16.2135 28.8442 16.2011 28.8589 16.1886 28.8738C15.3841 29.8902 14.7272 30.7576 13.9333 31.5992C13.9289 31.6039 13.9246 31.6086 13.9202 31.6133C13.7069 31.8412 13.4548 32.0727 13.1885 32.3082C13.0546 32.4268 12.9175 32.5453 12.7699 32.6773C12.6951 32.7447 12.6203 32.8114 12.5239 32.9085C12.4707 32.9666 12.4312 32.9918 12.3106 33.1664C12.2763 33.2246 12.2374 33.2676 12.1772 33.4516C12.1575 33.5212 12.1052 33.7019 12.1552 33.9483C12.1833 34.1948 12.4646 34.5387 12.6388 34.6133C12.9976 34.7897 13.0867 34.7372 13.1868 34.7473C13.2672 34.7444 13.3095 34.7377 13.3564 34.7301C13.5946 34.68 13.6116 34.6486 13.6628 34.6288C13.7091 34.6057 13.7337 34.5913 13.7586 34.5767C13.8074 34.5479 13.8403 34.5262 13.8718 34.5051C14.5419 34.0238 14.9792 33.5892 15.5005 33.1267C15.5269 33.1029 15.5532 33.0794 15.5795 33.0562C16.2092 32.4817 16.915 32.0777 17.7314 31.3151C17.7486 31.2981 17.7657 31.2809 17.7828 31.2636C18.4314 30.5854 18.9019 29.9205 19.3595 29.0835C19.3615 29.0796 19.3635 29.0756 19.3655 29.0716C19.4462 28.9091 19.5079 28.7274 19.5657 28.5307C19.6756 28.1078 19.8368 27.644 19.851 27.0381C19.851 27.0326 19.851 27.027 19.8509 27.0214C19.8503 27.0038 19.8505 26.9876 19.8439 26.9478C19.8213 26.91 19.8785 26.8426 19.6484 26.6532C19.5216 26.5637 19.3322 26.5802 19.274 26.6061C19.1932 26.6354 19.1754 26.6533 19.148 26.672C19.1075 26.7031 19.0934 26.7202 19.0804 26.7343C19.0392 26.7825 19.0355 26.7938 19.0252 26.809C19.0088 26.8357 19.001 26.8506 18.9929 26.8657C18.9775 26.8948 18.9662 26.9178 18.9553 26.9395Z" fill="#FDBF27"/>
<path d="M3.9439 30.2429C3.90856 30.1985 3.87346 30.1547 3.83858 30.1112C3.44862 29.7371 3.14351 29.4126 3.02582 29.2188C2.92586 29.0541 2.8044 28.8102 2.69402 28.5701C2.47233 28.0879 2.29533 27.6211 2.42702 27.843C2.76328 28.4094 3.07241 28.8091 3.59438 29.4346C4.03831 29.9666 4.59222 30.61 6.24839 32.3008C6.53545 32.5938 6.95804 32.9706 7.35116 33.3117C8.00178 33.8763 8.57164 34.343 8.31261 34.1704C8.31102 34.1693 8.20339 34.1023 8.08137 33.9922C7.53243 33.4968 6.88637 33.0862 6.4022 32.6667C6.01343 32.33 4.74414 31.2484 3.9439 30.2429Z" fill="#FDBF27"/>
<path d="M2.53124 26.8002C2.58326 26.6456 2.57177 26.4768 2.4993 26.3307C2.42682 26.1847 2.2993 26.0734 2.14478 26.0214C1.99026 25.9694 1.82141 25.9809 1.67536 26.0533C1.52931 26.1258 1.41804 26.2533 1.36601 26.4078C1.36601 26.4078 1.36601 26.4078 1.36601 26.4078C1.27238 26.7327 1.32714 26.8924 1.35059 27.0449C1.38179 27.1932 1.42147 27.3157 1.46279 27.4329C1.54626 27.6659 1.6387 27.8732 1.73331 28.0765C1.737 28.0844 1.74069 28.0923 1.74438 28.1002C1.75133 28.1152 1.75824 28.1301 1.76512 28.1449C2.16899 29.054 2.64795 30.0165 3.19317 30.7332C3.20993 30.7555 3.22669 30.7779 3.24346 30.8004C3.98316 31.7661 4.80403 32.5467 5.65425 33.2871C5.69473 33.3222 5.7365 33.3582 5.77465 33.3911C6.34675 33.8769 6.87577 34.2103 7.31091 34.581C7.35683 34.6197 7.4077 34.6515 7.45473 34.6866C7.4866 34.7124 7.51787 34.7374 7.54872 34.7629C7.62608 34.827 7.7213 34.8972 7.79605 34.9452C7.82116 34.9617 7.83097 34.9687 7.87555 34.9956C7.88769 35.0029 7.90129 35.0108 7.91923 35.0205C7.9439 35.0302 7.9276 35.0374 8.10489 35.0981C8.15309 35.1116 8.21492 35.1311 8.33907 35.1372C8.40163 35.1393 8.48216 35.1379 8.59034 35.1128C8.71082 35.1008 9.09454 34.909 9.21842 34.6038C9.35284 34.3043 9.30444 34.0897 9.27889 33.9758C9.24746 33.8571 9.21492 33.7988 9.19094 33.7535C9.13589 33.6585 9.13082 33.6601 9.12204 33.6464C9.08764 33.6005 9.06825 33.5798 9.05163 33.5615C8.96681 33.4729 8.95507 33.4673 8.92315 33.4374C8.86623 33.3865 8.82053 33.3471 8.77073 33.3041C8.6749 33.2216 8.58136 33.1421 8.48798 33.0626C8.30251 32.9047 8.11851 32.7477 7.93703 32.5906C7.57705 32.2781 7.21115 31.9563 6.91016 31.6525C6.8937 31.6358 6.87736 31.6191 6.86112 31.6026C5.97735 30.6977 5.0957 29.7963 4.31282 28.8567C4.30926 28.8525 4.30571 28.8482 4.30216 28.844C3.89405 28.3572 3.53705 27.9167 3.24396 27.4224C3.23453 27.4067 3.22506 27.3909 3.21556 27.3749C3.19539 27.3422 3.18621 27.3224 3.1306 27.2466C3.11603 27.2281 3.0853 27.185 3.01903 27.1218C2.99312 27.0993 3.01 27.1081 2.91975 27.0404C2.84167 26.9906 2.72591 26.8965 2.44228 26.8709C2.15714 26.8274 1.73057 27.0632 1.61637 27.2837C1.48252 27.499 1.47966 27.6271 1.46833 27.711C1.46303 28.0314 1.49095 27.9789 1.49519 28.0346C1.52561 28.1506 1.53771 28.1756 1.5547 28.2255C1.58526 28.3103 1.61326 28.3811 1.64198 28.4525C1.69861 28.5928 1.75616 28.7275 1.81586 28.8623C1.93834 29.1342 2.0514 29.3877 2.23371 29.6996C2.28202 29.7796 2.32679 29.8415 2.36577 29.8936C3.2403 30.9364 4.03275 31.5782 4.89994 32.3398L4.80353 32.2464C4.81971 32.2647 4.83592 32.2828 4.85217 32.3009C5.23643 32.7278 5.63914 33.0961 6.0212 33.444C6.20353 33.6096 6.38389 33.772 6.56281 33.9339C6.57121 33.9415 6.59702 33.9635 6.60586 33.9706C6.61115 33.9749 6.61651 33.9791 6.62194 33.9834C6.73091 34.0701 6.95892 34.1635 7.23916 34.13C7.52044 34.0973 7.73247 33.9048 7.81846 33.656C7.83589 33.591 7.85279 33.53 7.8653 33.4854C7.87771 33.4399 7.88401 33.4095 7.87996 33.3796C7.87591 33.3498 7.86173 33.3221 7.83768 33.2816C7.81374 33.242 7.7812 33.1877 7.74708 33.1296C7.74708 33.1296 7.74708 33.1296 7.74708 33.1296C7.6341 32.9082 7.64009 32.7139 7.72946 32.6179C7.81745 32.5226 7.877 32.4993 7.82889 32.4616C7.82687 32.46 7.82476 32.4583 7.82255 32.4565L7.8656 32.4932C7.68275 32.3279 7.49932 32.1644 7.31914 32.0035C6.93865 31.6633 6.57888 31.3408 6.27094 31.0074C6.25775 30.9931 6.24462 30.9788 6.23153 30.9645C6.21328 30.9444 6.15599 30.8884 6.13512 30.8711C5.32599 30.1932 4.40137 29.4204 3.84305 28.7709C3.82791 28.7518 3.81572 28.7339 3.81793 28.7379C3.72015 28.5795 3.59842 28.3331 3.49392 28.106C3.4408 27.9903 3.38885 27.8722 3.34226 27.7595C3.31905 27.7033 3.29634 27.6462 3.28049 27.6028C3.27365 27.5859 3.26323 27.5478 3.27637 27.5965C3.27682 27.6362 3.3001 27.5647 3.2956 27.8701C3.28453 27.951 3.28228 28.0768 3.14939 28.2907C3.03616 28.5097 2.61091 28.7448 2.32748 28.7014C2.04555 28.676 1.93186 28.5827 1.85623 28.5347C1.76926 28.4694 1.78608 28.4783 1.76169 28.4572C1.69996 28.3982 1.67721 28.3647 1.66719 28.3523C1.63101 28.3027 1.63868 28.3103 1.63849 28.3111C1.64983 28.3301 1.66115 28.3491 1.67247 28.3679C2.03108 28.9738 2.47566 29.5327 2.8866 30.0253C2.89026 30.0297 2.89392 30.0341 2.8976 30.0385C3.74233 31.0567 4.6462 31.9806 5.53712 32.8983C5.55351 32.9151 5.57001 32.932 5.58662 32.949C5.97153 33.3384 6.343 33.6632 6.71898 33.9927C6.90647 34.1561 7.09445 34.3176 7.2796 34.4764C7.37251 34.5561 7.46531 34.6356 7.55367 34.7122C7.59867 34.7513 7.64143 34.7886 7.67755 34.8212C7.68914 34.8308 7.72622 34.8687 7.68209 34.8233C7.67154 34.8115 7.65682 34.7964 7.62566 34.7548C7.61749 34.7419 7.61374 34.7451 7.56051 34.6533C7.53725 34.6093 7.50519 34.5522 7.474 34.4344C7.44869 34.3214 7.40028 34.1076 7.53444 33.8087C7.6581 33.504 8.04116 33.3125 8.1611 33.3007C8.26889 33.2756 8.34895 33.2743 8.41097 33.2764C8.53403 33.2825 8.59446 33.3017 8.64098 33.3147C8.81058 33.373 8.78496 33.3751 8.80528 33.3825C8.81755 33.3891 8.8246 33.3933 8.82931 33.3961C8.84368 33.4047 8.83624 33.4003 8.82918 33.3955C8.78564 33.3674 8.76779 33.3527 8.73648 33.3272C8.72567 33.3182 8.71629 33.3081 8.70801 33.2977C8.65352 33.2412 8.60138 33.1829 8.54314 33.133C7.99699 32.6653 7.43781 32.2959 7.02974 31.9423C6.98921 31.9072 6.94822 31.8718 6.90868 31.8375C6.10003 31.1364 5.28874 30.4302 4.64435 29.6854C4.62516 29.6627 4.60609 29.6402 4.58713 29.618C3.96329 28.8939 3.25487 28.4005 2.87565 27.6153C2.86944 27.6027 2.86329 27.59 2.85721 27.5772C2.8538 27.5701 2.85043 27.5629 2.8471 27.5558C2.76177 27.373 2.6815 27.19 2.62124 27.021C2.59149 26.9376 2.56702 26.8564 2.55451 26.7955C2.537 26.7407 2.56016 26.6802 2.53124 26.8002Z" fill="#FDBF27"/>
<rect x="29.9106" y="26.6324" width="9" height="42.2703" fill="#FDBF27"/>
<path d="M36.6855 0.98697C36.6855 1.20298 36.7714 1.41014 36.9241 1.56288C37.0768 1.71561 37.284 1.80142 37.5 1.80142C37.716 1.80142 37.9232 1.71561 38.0759 1.56288C38.2286 1.41014 38.3145 1.20298 38.3145 0.98697C38.3145 0.98697 38.3145 0.98697 38.3145 0.98697C38.312 0.973889 38.3239 0.922742 38.2893 0.763335C38.2758 0.614236 38.0435 0.263859 37.8087 0.185697C37.3807 0.0413413 37.3366 0.134237 37.2459 0.133538C37.2325 0.13636 37.2199 0.139325 37.2078 0.142377C36.9833 0.208081 36.9426 0.249531 36.8675 0.288074C36.803 0.325495 36.7494 0.360039 36.6988 0.393619C36.5993 0.459949 36.5115 0.523096 36.4271 0.58474C36.2561 0.710101 36.0992 0.830279 35.9409 0.952437C35.6261 1.19583 35.3208 1.43647 35.0155 1.68035C34.4383 2.14173 33.8708 2.6079 33.3252 3.09869C33.2802 3.13923 33.236 3.17987 33.1918 3.2212C32.2028 4.14282 31.3885 5.20824 30.651 6.25603C30.6022 6.32525 30.5535 6.39496 30.5052 6.46485C29.5926 7.78284 28.8056 9.17509 28.1168 10.5963C28.0772 10.6781 28.0373 10.7612 27.9982 10.8433C27.1213 12.6941 26.3619 14.5899 25.7545 16.5529C25.7311 16.629 25.708 16.7048 25.6851 16.781C25.078 18.7894 24.6623 20.8878 24.5006 22.9957C24.4968 23.0443 24.493 23.093 24.4895 23.1417C24.3252 25.4108 24.4484 27.6691 24.7408 29.8988C24.7418 29.9066 24.7428 29.9144 24.7439 29.9221C25.0129 31.9435 25.4405 33.9341 26.0301 35.8725C26.0364 35.8931 26.0427 35.9136 26.049 35.9341C26.4826 37.3334 27.1237 38.6958 27.9096 39.9615C27.9268 39.9892 27.9442 40.0166 27.9617 40.0439C28.5427 40.9439 29.3607 41.6607 30.0348 42.4287C30.0495 42.4455 30.0639 42.4619 30.0786 42.4789C30.0929 42.4954 30.1071 42.5117 30.1213 42.5279C30.6249 43.1121 31.2001 43.6251 31.7781 44.1279C31.7815 44.131 31.7861 44.1325 31.7907 44.1322C31.7953 44.132 31.7997 44.1299 31.8027 44.1265C31.8058 44.123 31.8074 44.1185 31.8072 44.1139C31.807 44.1092 31.8049 44.1049 31.8015 44.1018C31.8015 44.1018 31.8015 44.1018 31.8015 44.1018C31.2349 43.5854 30.6603 43.0749 30.1879 42.4723C30.1746 42.4556 30.1612 42.4387 30.1479 42.4217C30.1341 42.4041 30.1209 42.387 30.1075 42.3693C29.4886 41.5494 29.2164 40.5189 28.8881 39.5852C28.8781 39.5565 28.8679 39.5279 28.8576 39.4992C28.3863 38.1857 28.1262 36.8125 27.7921 35.4509C27.7873 35.4309 27.7824 35.4109 27.7774 35.3909C27.3144 33.5065 26.9531 31.6016 26.7573 29.6849C26.7565 29.6775 26.7558 29.6701 26.755 29.6628C26.5425 27.5449 26.5218 25.4072 26.6862 23.3097C26.6897 23.2647 26.6934 23.2197 26.6972 23.1747C26.8588 21.2233 27.2442 19.3077 27.814 17.42C27.8354 17.3484 27.8571 17.2771 27.879 17.2055C28.4483 15.3543 29.1384 13.5204 29.945 11.7521C29.9809 11.6737 30.0174 11.5944 30.0537 11.5164C30.6852 10.1575 31.3803 8.84272 32.1985 7.61475C32.2419 7.54958 32.2857 7.48463 32.3296 7.42016C33.0194 6.40624 33.7391 5.46828 34.5669 4.65463C34.604 4.61799 34.6409 4.5817 34.6783 4.54526C35.1966 4.04123 35.6977 3.52177 36.2053 3.01655C36.4735 2.75004 36.7421 2.48855 37.0153 2.24119C37.1521 2.11759 37.2881 1.99907 37.4236 1.89014C37.4896 1.83701 37.5569 1.78545 37.6154 1.74436C37.6445 1.72388 37.6721 1.70584 37.6885 1.69602C37.6956 1.68738 37.7413 1.68051 37.6081 1.72134C37.6004 1.72328 37.592 1.72526 37.5828 1.72721C37.5341 1.71835 37.5352 1.80272 37.148 1.67458C36.9335 1.60472 36.7149 1.27401 36.706 1.14599C36.6764 1.00774 36.6879 0.978446 36.6855 0.98697Z" fill="#FDBF27"/>
<path d="M37.2523 0.912183C37.2523 1.15383 37.3483 1.38558 37.5192 1.55645C37.6901 1.72732 37.9218 1.82332 38.1635 1.82332C38.4051 1.82332 38.6369 1.72732 38.8077 1.55645C38.9786 1.38558 39.0746 1.15383 39.0746 0.912183C39.0746 0.912183 39.0746 0.912183 39.0746 0.912183C39.0719 0.943243 39.0834 0.870915 39.0638 1.04555C39.0615 1.06006 39.0585 1.07759 39.0531 1.10183C39.0504 1.11399 39.047 1.12789 39.0425 1.14453C39.0317 1.17129 39.0555 1.13861 38.9794 1.30929C38.937 1.38337 38.8884 1.5084 38.6622 1.66566C38.4487 1.84166 37.9264 1.85223 37.7104 1.69286C37.2897 1.39317 37.3579 1.28165 37.3084 1.21528C37.262 1.07179 37.2822 1.12441 37.2756 1.10363C37.2688 1.07291 37.2663 1.05646 37.2642 1.04334C37.2604 1.01846 37.2594 1.00655 37.2591 1.00431C37.2574 0.98692 37.2576 0.98713 37.2576 0.986938C37.2577 0.988549 37.258 0.994484 37.2585 1.00341C37.2592 1.01783 37.26 1.03745 37.2607 1.05764C37.262 1.09609 37.2633 1.1384 37.2644 1.18109C37.2666 1.2674 37.2683 1.35005 37.2699 1.43872C37.273 1.61146 37.2753 1.78635 37.2774 1.96362C37.2813 2.3099 37.2841 2.66784 37.2862 3.01952C37.2929 4.14151 37.2944 5.26624 37.2947 6.39718C37.2947 6.41359 37.2947 6.43005 37.2947 6.44656C37.2727 13.5961 37.0432 20.7753 36.9771 27.9469C36.977 27.9534 36.977 27.9599 36.9769 27.9664C36.94 32.2455 36.9097 36.5119 36.9491 40.8014C36.9491 40.8016 36.9491 40.8017 36.9491 40.8019C36.9507 40.939 36.9685 41.0713 36.9988 41.2051C37.1409 41.9177 37.731 42.6086 37.8897 43.3042C37.8903 43.3083 37.8929 43.3128 37.8962 43.3165C37.8995 43.3201 37.9032 43.3226 37.9072 43.3235C37.9113 43.3245 37.9157 43.3239 37.9203 43.3222C37.9248 43.3204 37.9292 43.3176 37.9315 43.3141C38.3143 42.6135 38.7126 41.8795 38.8735 41.181C38.9003 41.0482 38.9151 40.9173 38.9139 40.7819C38.9139 40.7818 38.9139 40.7816 38.9139 40.7815C38.8872 36.5291 38.936 32.257 38.9729 27.985C38.973 27.9785 38.9731 27.972 38.9731 27.9655C39.0387 20.8034 39.0948 13.6319 39.1169 6.44674C39.1169 6.4301 39.1169 6.41351 39.1169 6.39696C39.1167 5.26383 39.1151 4.13697 39.1084 3.00845C39.1063 2.65456 39.1035 2.29401 39.0995 1.94269C39.0974 1.76273 39.095 1.58476 39.0918 1.40591C39.0902 1.31393 39.0884 1.22779 39.086 1.13392C39.0848 1.08726 39.0835 1.04034 39.0818 0.992716C39.0809 0.967486 39.0799 0.941719 39.0786 0.915689C39.0777 0.898123 39.0773 0.888577 39.0757 0.864526C39.0751 0.855201 39.0742 0.841288 39.0716 0.815131C39.0712 0.811637 39.0696 0.794422 39.0654 0.767272C39.0632 0.752845 39.0605 0.735355 39.0535 0.703828C39.0468 0.682824 39.067 0.735462 39.0203 0.590817C38.9706 0.524077 39.0387 0.412348 38.6179 0.112589C38.4019 -0.0468205 37.8795 -0.036248 37.666 0.139793C37.4397 0.297081 37.391 0.422191 37.3485 0.496368C37.2723 0.667343 37.2961 0.63474 37.2853 0.661588C37.2808 0.678315 37.2774 0.692307 37.2746 0.704574C37.2692 0.729027 37.2662 0.746795 37.2638 0.761574C37.2434 0.943196 37.2551 0.874081 37.2523 0.912183Z" fill="#FDBF27"/>
<path d="M36.7592 4.84647C36.7351 5.31347 36.7022 5.86309 36.657 6.50082C36.6545 6.53491 36.6519 6.56916 36.6491 6.60355C36.7286 6.20455 36.7852 6.09017 36.8232 6.05478C37.3607 5.55343 36.9919 7.48524 37.0551 10.0755C37.1137 12.4736 37.0766 17.0739 37.0558 19.5968C37.0324 22.4269 36.9502 23.0873 36.8668 23.9358C36.7515 25.1089 36.4446 27.2957 36.4446 29.3505C36.4446 29.872 36.4446 29.3354 36.1318 26.2607C35.996 24.9265 35.8013 23.1174 35.5981 21.2472C35.481 22.0303 35.3047 22.9054 35.0105 23.8901C35.0118 23.9088 35.0131 23.9275 35.0143 23.9463C35.1831 26.4524 35.3082 29.9405 35.3493 31.7833C35.3904 33.6262 35.3487 33.8178 35.1989 29.9643C35.1387 28.4154 35.0622 26.2504 34.9842 23.9775C34.902 24.248 34.8109 24.5267 34.7097 24.814C34.6269 25.0489 34.5367 25.2945 34.4421 25.5442C34.1461 26.3971 33.8553 27.0763 33.63 27.5557C33.4949 27.8727 33.3682 28.1621 33.2586 28.4055C32.8598 29.2912 32.6929 29.5595 32.7384 28.4497C32.7393 28.4279 32.7403 28.4056 32.7413 28.3829C32.658 28.2991 32.5531 28.1504 32.3993 27.876C32.2869 29.23 32.1658 30.2264 32.0602 30.925C31.8915 32.0418 31.7664 32.3868 31.6823 32.5C31.5982 32.6133 31.5565 32.4983 31.7076 29.6565C31.7492 28.8726 31.8048 27.8937 31.8665 26.8286C31.8505 26.7952 31.8341 26.7612 31.8175 26.7265C31.5177 26.0991 31.1268 25.2464 30.7324 24.4285C30.0445 26.1928 29.4788 27.5075 28.9633 27.8149C28.7743 27.9275 28.6791 27.7773 28.5632 27.3816C28.5586 27.3659 28.554 27.35 28.5494 27.3338C28.345 28.4738 28.1542 29.05 28.0368 29.3476C27.8491 29.8232 27.8375 29.5918 27.9135 29.103C28.0372 28.3084 28.1244 27.4663 28.3066 26.2472C28.2691 26.0332 28.234 25.8039 28.2023 25.5606C28.1357 25.6767 28.0668 25.7769 27.9951 25.8594C27.8491 26.0272 27.862 25.7191 27.7846 25.1921C27.7572 25.0054 27.7286 24.8254 27.6995 24.651C27.1295 26.2113 26.9846 26.7907 27.0691 27.539C27.2522 29.1593 27.217 30.2483 27.7416 32.7225C28.0843 34.3388 28.4381 36.2141 29.1106 37.1614C29.129 37.1873 29.1465 37.2132 29.1631 37.2392C29.1726 36.772 29.1833 36.2292 29.1942 35.647C29.1887 35.6073 29.1832 35.5681 29.1776 35.5294C28.9894 34.2263 29.0714 33.1999 29.0082 32.0064C28.9633 31.1586 28.9867 29.8162 29.0493 28.8951C29.0974 28.1861 29.1827 27.7503 29.2297 28.4405C29.2438 28.6471 29.2545 28.9544 29.2597 29.3853C29.268 30.0676 29.2622 31.0616 29.2494 32.1518C29.2822 32.7686 29.3141 33.3895 29.3242 34.0281C29.3399 35.0164 29.335 35.9109 29.3171 36.6793C29.364 37.125 29.403 37.5506 29.4322 37.8641C29.4964 38.1192 29.4925 38.3006 29.4923 38.3076L29.4923 38.3078C29.4923 38.4976 29.4709 38.2789 29.4322 37.8641C29.4026 37.7462 29.3584 37.6124 29.2925 37.4728C29.2583 38.3416 29.207 38.9797 29.1548 39.3172C29.1131 39.5873 29.1131 39.7023 29.1561 37.5877C29.1583 37.477 29.1607 37.3607 29.1631 37.2392C29.1465 37.2132 29.129 37.1873 29.1106 37.1614C28.4381 36.2141 28.0843 34.3388 27.7416 32.7225C27.217 30.2483 27.2522 29.1593 27.0691 27.539C26.9846 26.7907 27.1295 26.2113 27.6995 24.651C27.3948 22.8229 27.0309 21.5994 27.2815 19.5562C27.4711 18.0101 27.7278 16.9394 27.8503 16.3479C28.0184 15.536 28.3618 14.2912 29.632 12.5798C29.6673 12.5323 29.7024 12.485 29.7372 12.4381C29.8278 11.1239 29.8715 10.9143 29.8715 10.9699C29.8715 11.1766 29.8715 11.6341 29.7923 12.3638C31.5905 9.93846 32.6724 8.43464 32.801 8.22109C33.4614 7.124 34.5526 5.21968 35.2254 4.50294C36.0275 3.64861 36.7289 2.97849 36.6968 3.11545C36.5697 3.6579 36.1439 4.71714 35.4713 5.84802C35.3291 6.08714 35.1622 6.378 34.9812 6.6994C35.5539 6.03486 36.423 5.45423 36.7513 4.86092C36.7631 4.695 36.7729 4.53785 36.7811 4.3888C36.8705 2.76933 36.7752 2.1056 37.1171 1.54502C37.7623 0.48718 36.9502 4.15505 36.8668 4.56101C36.8471 4.65677 36.8101 4.75179 36.7592 4.84647Z" fill="#FDBF27"/>
<path d="M36.8238 2.7635C36.8238 2.99349 36.8238 4.14692 36.657 6.50082C36.563 7.82585 36.1564 9.39136 36.0262 10.1051C35.932 10.6218 36.274 9.04986 36.59 6.49908C36.9924 3.25087 36.6544 2.30352 37.1171 1.54502C37.7623 0.48718 36.9502 4.15505 36.8668 4.56101C36.7091 5.32829 35.4384 6.04839 34.8032 6.92305C34.2871 7.63376 33.4172 9.37162 32.6569 10.9049C31.8194 12.5938 34.3766 7.68852 35.4713 5.84802C36.1439 4.71714 36.5697 3.6579 36.6968 3.11545C36.7289 2.97849 36.0275 3.64861 35.2254 4.50294C34.5526 5.21968 33.4614 7.124 32.801 8.22109C32.6686 8.44091 31.5262 10.0279 29.632 12.5798C28.3618 14.2912 28.0184 15.536 27.8503 16.3479C27.7278 16.9394 27.4711 18.0101 27.2815 19.5562C27.007 21.7943 27.4698 23.049 27.7846 25.1921C27.862 25.7191 27.8491 26.0272 27.9951 25.8594C28.6154 25.1462 29.0259 23.1036 29.5517 20.9762C29.8737 19.6735 30.3329 18.4527 30.7324 17.0222C31.2921 15.0176 32.2707 13.3802 32.9659 11.9642C33.2669 11.3512 33.9102 9.59231 34.9208 7.50092C35.2566 6.80596 35.4308 6.94279 35.537 7.25119C35.6432 7.55958 35.7266 8.05789 35.7696 9.82869C35.8126 11.5995 35.8126 14.6277 35.6874 16.8585C35.5623 19.0892 35.312 20.4308 35.1831 21.2178C35.0541 22.0047 35.0541 22.1964 35.2836 19.8036C35.513 17.4108 35.9718 12.4277 36.2499 9.68814C36.5635 6.59919 36.7391 6.13319 36.8232 6.05478C37.3607 5.55343 36.9919 7.48524 37.0551 10.0755C37.1137 12.4736 37.0766 17.0739 37.0558 19.5968C37.0324 22.4269 36.9502 23.0873 36.8668 23.9358C36.7515 25.1089 36.4446 27.2957 36.4446 29.3505C36.4446 29.872 36.4446 29.3354 36.1318 26.2607C35.8189 23.1861 35.1932 17.5897 34.8709 14.5342C34.5485 11.4787 34.5485 11.1337 34.6737 14.7891C34.7988 18.4446 35.0491 26.1109 35.1989 29.9643C35.3487 33.8178 35.3904 33.6262 35.3493 31.7833C35.3082 29.9405 35.1831 26.4524 35.0143 23.9463C34.8456 21.4402 34.637 20.022 34.5504 18.3522C34.4638 16.6825 34.5056 14.8042 34.5896 13.645C34.7485 11.4545 35.3044 10.3206 35.5383 9.54179C35.5945 9.35438 35.5598 9.08006 35.4972 8.98017C35.4027 8.82932 34.5966 9.99421 33.67 11.5612C33.1892 12.3744 32.9912 12.9434 32.3838 14.558C31.8971 15.852 31.2342 18.1658 30.848 19.4656C30.4619 20.7654 30.4201 20.9954 30.3569 21.1905C30.2937 21.3856 30.2103 21.539 30.1673 21.1388C30.1243 20.7386 30.1243 19.7804 30.4372 17.8876C30.7501 15.9948 31.3758 13.1966 31.6981 11.6785C32.0204 10.1603 32.0204 10.007 31.9996 10.0622C31.8822 10.3725 31.7272 11.0454 31.3284 12.1437C31.0714 12.8514 30.8044 13.8936 30.2994 16.1516C29.7944 18.4097 29.0853 21.8596 28.6991 23.9242C28.2072 26.5544 28.1031 27.8846 27.9135 29.103C27.8375 29.5918 27.8491 29.8232 28.0368 29.3476C28.2245 28.8719 28.5999 27.6836 28.9184 24.6183C29.237 21.5529 29.4873 16.6465 29.6371 14.0423C29.7958 11.2829 29.8715 10.8967 29.8715 10.9699C29.8715 11.2731 29.8715 12.1164 29.6213 13.5666C29.371 15.0168 28.8704 17.0484 28.55 18.5741C28.2295 20.0998 28.1044 21.0581 28.0608 22.165C27.9689 24.4971 28.2687 26.3757 28.5632 27.3816C28.6791 27.7773 28.7743 27.9275 28.9633 27.8149C29.5698 27.4533 30.2457 25.6973 31.1084 23.4555C31.496 22.4483 31.6791 21.6737 31.87 20.6846C32.2884 18.5164 32.3996 16.708 32.4205 15.9135C32.4263 15.6932 32.4831 15.8473 32.3377 18.6287C32.1923 21.41 31.8586 26.8148 31.7076 29.6565C31.5565 32.4983 31.5982 32.6133 31.6823 32.5C31.7664 32.3868 31.8915 32.0418 32.0602 30.925C32.229 29.8081 32.4376 27.9299 32.5867 25.0457C32.7359 22.1616 32.8193 18.3284 32.9249 15.9321C33.0304 13.5358 33.1555 12.6925 33.22 12.1814C33.2845 11.6703 33.2845 11.517 33.2845 13.2779C33.2845 15.0389 33.2845 18.7187 33.1593 21.8218C33.0342 24.9249 32.7839 27.3398 32.7384 28.4497C32.6929 29.5595 32.8598 29.2912 33.2586 28.4055C33.6574 27.5198 34.2831 26.0249 34.7097 24.814C35.4378 22.7472 35.6432 21.1231 35.7696 19.8094C35.8295 19.1868 35.8126 18.649 35.8126 18.66C35.8126 19.246 35.6874 20.6817 35.2267 22.7644C34.5847 25.6664 33.6232 27.6174 33.3079 28.1976C33.1756 28.4409 33.0342 28.5478 32.8654 28.4729C32.6967 28.398 32.4881 28.1297 31.8175 26.7265C31.147 25.3233 30.0207 22.7934 29.4196 22.046C28.0197 20.305 28.4811 25.6033 28.4811 25.5713C28.4811 25.1177 28.4811 23.7761 28.4602 23.1808C28.4394 22.5855 28.3977 22.7772 28.1885 23.3359C27.2127 25.9419 26.9642 26.6103 27.0691 27.539C27.2522 29.1593 27.217 30.2483 27.7416 32.7225C28.0843 34.3388 28.4381 36.2141 29.1106 37.1614C29.5088 37.7222 29.4923 38.3061 29.4923 38.3078C29.4923 38.7661 29.3672 36.8425 29.1776 35.5294C28.9894 34.2263 29.0714 33.1999 29.0082 32.0064C28.9633 31.1586 28.9867 29.8162 29.0493 28.8951C29.1118 27.974 29.237 27.514 29.2597 29.3853C29.2825 31.2566 29.1991 35.473 29.1561 37.5877C29.1131 39.7023 29.1131 39.5873 29.1548 39.3172C29.2621 38.623 29.3659 36.6578 29.3242 34.0281C29.297 32.3146 29.1131 30.7281 29.1757 29.0078C29.2035 28.2441 29.3634 27.7092 29.5947 28.5827C29.826 29.4562 30.1597 31.756 30.3525 33.0367C30.627 34.8601 30.9637 35.5544 31.3871 36.2908C31.5117 36.5074 31.5553 36.8297 31.5357 37.026C31.5161 37.2224 31.3909 37.299 31.1596 37.3385C30.6025 37.4336 30.1256 37.4163 29.936 37.5319C29.2717 37.9369 30.2912 39.5037 30.398 40.2598C30.4448 40.5908 30.5036 40.8615 30.4827 40.9783C30.4201 40.865 30.3354 40.6315 30.2514 40.3615C30.209 40.2064 30.1673 40.0147 30.1243 39.585" stroke="#FDBF27" stroke-width="2" stroke-linecap="round" stroke-linejoin="round"/>
</svg>
