<svg width="72" height="116" viewBox="0 0 72 116" fill="none" xmlns="http://www.w3.org/2000/svg">
<circle cx="36" cy="20" r="20" fill="#FAB9B4"/>
<path d="M72 80C72 75.2724 71.0688 70.5911 69.2597 66.2234C67.4505 61.8557 64.7988 57.8871 61.4558 54.5442C58.1129 51.2012 54.1443 48.5495 49.7766 46.7403C45.4089 44.9312 40.7276 44 36 44C31.2724 44 26.5911 44.9312 22.2234 46.7403C17.8557 48.5495 13.8871 51.2012 10.5442 54.5442C7.20125 57.8871 4.5495 61.8557 2.74034 66.2234C0.931167 70.5911 -4.13299e-07 75.2724 0 80L36 80H72Z" fill="#F03535"/>
<circle cx="36" cy="20" r="20" fill="#FAB9B4"/>
<path d="M72 80C72 75.2724 71.0688 70.5911 69.2597 66.2234C67.4505 61.8557 64.7988 57.8871 61.4558 54.5442C58.1129 51.2012 54.1443 48.5495 49.7766 46.7403C45.4089 44.9312 40.7276 44 36 44C31.2724 44 26.5911 44.9312 22.2234 46.7403C17.8557 48.5495 13.8871 51.2012 10.5442 54.5442C7.20125 57.8871 4.5495 61.8557 2.74034 66.2234C0.931167 70.5911 -4.13299e-07 75.2724 0 80L36 80H72Z" fill="#F03535"/>
</svg>
