<svg width="64" height="87" viewBox="0 0 64 87" fill="none" xmlns="http://www.w3.org/2000/svg">
<rect y="6" width="64" height="81" rx="4" fill="#537BB9"/>
<rect x="3" y="3" width="59" height="82" rx="4" fill="#FDF8F1"/>
<rect width="59" height="82" rx="4" fill="#537BB9"/>
<path d="M12.7 22.98C12.68 23.18 12.7 23.4 12.78 23.58C12.84 23.76 12.9 23.88 13 23.98C13.24 24.24 13.48 24.46 13.72 24.68C13.8 24.76 13.9 24.82 13.98 24.86C14.28 25.02 14.52 25.22 14.76 25.42C15.14 25.66 15.44 26 15.72 26.36C15.76 26.4 15.8 26.44 15.84 26.48C16.08 26.72 16.28 26.96 16.44 27.26C16.58 27.5 16.68 27.72 16.78 27.96C16.98 28.44 17.06 28.94 17.06 29.46C17.06 29.62 17.06 29.76 17.06 29.9C17.06 30.24 17 30.58 16.84 30.9C16.76 31.1 16.7 31.34 16.6 31.54C16.5 31.74 16.4 31.9 16.3 32.06C16.18 32.28 15.98 32.4 15.8 32.56C15.32 32.9 14.74 33.12 14.16 33.2C13.5 33.26 12.9 33.16 12.34 32.78C12.12 32.64 11.88 32.46 11.66 32.32C11.32 32.06 11.04 31.76 10.86 31.38C10.78 31.2 10.7 31.04 10.68 30.86C10.62 30.74 10.66 30.64 10.74 30.56C10.82 30.48 10.92 30.36 11.02 30.26C11.18 30.12 11.34 29.96 11.52 29.82C11.54 29.8 11.58 29.76 11.6 29.74C11.68 29.68 11.78 29.68 11.86 29.74C11.92 29.78 11.94 29.84 12 29.9C12.1 30.04 12.22 30.16 12.34 30.28C12.38 30.3 12.4 30.34 12.44 30.36C12.7 30.74 13.04 31 13.48 31.14C13.9 31.3 14.34 31.32 14.72 31.04C14.88 30.94 15 30.78 15.08 30.64C15.24 30.28 15.32 29.92 15.22 29.54C15.16 29.22 15.12 28.9 15.02 28.58C14.92 28.22 14.74 27.94 14.52 27.66C14.38 27.52 14.28 27.36 14.18 27.24C13.88 26.92 13.54 26.7 13.2 26.44C12.78 26.14 12.38 25.86 12 25.5C11.6 25.16 11.3 24.76 11.16 24.28C11.04 23.98 11 23.66 10.98 23.36C10.96 23.02 11 22.68 11.02 22.36C11.08 21.96 11.2 21.58 11.34 21.22C11.38 21.06 11.42 20.9 11.52 20.78C11.66 20.46 11.88 20.16 12.12 19.88C12.18 19.82 12.26 19.74 12.3 19.68C12.54 19.38 12.84 19.22 13.18 19.1C13.3 19.02 13.46 18.98 13.62 18.92C13.92 18.8 14.24 18.82 14.58 18.92C15.04 19.1 15.48 19.32 15.9 19.6C15.92 19.62 15.94 19.64 15.98 19.66C16.22 19.76 16.42 19.96 16.6 20.18C16.66 20.28 16.76 20.36 16.86 20.4C16.98 20.46 17 20.52 16.98 20.62C16.96 20.66 16.92 20.72 16.9 20.78C16.76 21.02 16.64 21.28 16.48 21.54C16.42 21.64 16.36 21.72 16.3 21.8C16.22 21.88 16.16 21.9 16.06 21.84C15.82 21.72 15.58 21.56 15.34 21.4C15.08 21.24 14.8 21.06 14.52 20.94C14.2 20.82 13.88 20.84 13.64 21.08C13.3 21.42 13 21.76 12.84 22.2C12.8 22.32 12.76 22.46 12.72 22.58C12.7 22.72 12.7 22.84 12.7 22.98ZM19.7158 31.2C19.7158 30.84 19.6958 30.48 19.7158 30.12C19.7158 29.66 19.7558 29.2 19.7558 28.74C19.7758 28.06 19.7558 27.38 19.7558 26.7C19.7558 24.94 19.7758 23.18 19.7758 21.44C19.7758 21.42 19.7758 21.4 19.7758 21.38C19.7758 21.24 19.7758 21.26 19.6558 21.26C19.3758 21.26 19.1158 21.24 18.8558 21.22C18.6358 21.22 18.4158 21.18 18.1958 21.18C18.0358 21.16 17.9758 21.1 17.9758 20.92C17.9758 20.54 17.9958 20.14 18.0158 19.76C18.0158 19.66 18.0358 19.56 18.0558 19.46C18.0958 19.32 18.1958 19.26 18.3358 19.26C18.4358 19.24 18.5358 19.24 18.6358 19.24C18.9758 19.24 19.3358 19.22 19.6758 19.24C20.1758 19.26 20.6758 19.32 21.1758 19.34C21.4558 19.36 21.7558 19.34 22.0158 19.34C22.2558 19.34 22.4958 19.36 22.7358 19.34C22.8758 19.34 23.0158 19.32 23.1758 19.32C23.1958 19.32 23.2158 19.3 23.2558 19.3C23.3958 19.28 23.4558 19.34 23.4558 19.48C23.4558 19.96 23.4558 20.46 23.4558 20.94C23.4358 21.1 23.3958 21.16 23.2358 21.18C23.1358 21.2 23.0158 21.2 22.8958 21.2C22.4758 21.22 22.0758 21.22 21.6558 21.24C21.5358 21.24 21.5358 21.24 21.5358 21.36C21.5358 21.48 21.5358 21.58 21.5358 21.68C21.5358 22.48 21.5158 23.28 21.5358 24.08C21.5358 25.08 21.5758 26.08 21.5758 27.08C21.5558 28.46 21.5358 29.84 21.5358 31.22C21.5358 31.8 21.5358 32.36 21.5358 32.92C21.5358 33.34 21.5158 33.32 21.1158 33.38C20.9758 33.4 20.8358 33.38 20.6958 33.4C20.4558 33.42 20.1958 33.44 19.9558 33.46C19.7558 33.48 19.6958 33.42 19.6958 33.22C19.7158 32.54 19.7158 31.88 19.7358 31.2C19.7158 31.2 19.7158 31.2 19.7158 31.2ZM26.09 22.62C26.11 23.96 26.11 24.98 26.13 26.02C26.15 26.62 26.15 27.24 26.19 27.84C26.25 28.48 26.33 29.1 26.39 29.74C26.41 29.88 26.43 30.02 26.45 30.14C26.51 30.46 26.69 30.68 26.93 30.86C26.93 30.88 26.97 30.9 26.99 30.9C27.25 30.94 27.51 30.98 27.79 30.94C27.97 30.92 28.13 30.86 28.27 30.7C28.27 30.7 28.29 30.68 28.33 30.66C28.53 30.56 28.59 30.36 28.65 30.16C28.87 29.52 28.95 28.88 29.01 28.22C29.03 27.88 29.07 27.54 29.09 27.2C29.13 26.78 29.13 26.34 29.13 25.92C29.15 24.88 29.15 23.86 29.19 22.84C29.21 21.96 29.27 21.1 29.33 20.22C29.33 20.06 29.37 19.9 29.39 19.74C29.41 19.62 29.45 19.54 29.57 19.52C29.59 19.5 29.61 19.5 29.63 19.5C29.95 19.46 30.27 19.42 30.59 19.4C30.83 19.38 30.91 19.46 30.91 19.68C30.93 19.86 30.91 20.04 30.91 20.22C30.91 20.76 30.89 21.3 30.87 21.84C30.85 22.38 30.85 22.92 30.83 23.46C30.83 23.84 30.83 24.2 30.81 24.56C30.81 25.7 30.79 26.82 30.77 27.94C30.75 28.22 30.73 28.5 30.69 28.78C30.65 29.14 30.61 29.5 30.57 29.86C30.49 30.4 30.33 30.9 30.11 31.38C29.87 31.86 29.55 32.26 29.07 32.54C28.95 32.6 28.85 32.68 28.75 32.74C28.19 33.04 27.61 33.2 26.99 33.06C26.65 33 26.33 32.86 26.07 32.62C25.91 32.46 25.73 32.3 25.57 32.14C25.53 32.1 25.49 32.04 25.45 32C25.43 31.98 25.43 31.96 25.43 31.94C25.23 31.74 25.15 31.44 25.01 31.2C24.99 31.18 24.97 31.14 24.95 31.1C24.89 30.86 24.83 30.64 24.75 30.4C24.75 30.38 24.75 30.34 24.73 30.32C24.59 29.84 24.51 29.36 24.43 28.86C24.37 28.6 24.35 28.32 24.35 28.04C24.35 27.48 24.35 26.9 24.35 26.34C24.37 25.78 24.41 25.24 24.43 24.7C24.45 23.94 24.49 23.18 24.51 22.42C24.53 22.1 24.55 21.78 24.57 21.48C24.59 21.16 24.59 20.84 24.61 20.54C24.63 20.32 24.63 20.08 24.63 19.86C24.65 19.76 24.67 19.68 24.71 19.58C24.73 19.46 24.81 19.42 24.93 19.42C25.23 19.44 25.55 19.42 25.85 19.44C26.13 19.44 26.13 19.44 26.13 19.72C26.15 20.12 26.15 20.5 26.13 20.88C26.13 21.56 26.09 22.24 26.09 22.62ZM32.1434 26.22C32.1434 24.7 32.1434 23.18 32.1434 21.64C32.1434 21.14 32.1234 20.64 32.1234 20.14C32.1434 19.84 32.1634 19.56 32.1834 19.28C32.2034 19.02 32.2834 18.96 32.5434 18.94C32.7434 18.92 32.9434 18.9 33.1434 18.88C33.7034 18.84 34.2834 18.84 34.8434 18.86C35.0634 18.88 35.2634 18.92 35.4834 18.96C35.5834 18.98 35.6634 19 35.7434 19.02C35.9034 19.06 36.0434 19.1 36.1834 19.14C36.2834 19.16 36.4034 19.2 36.5034 19.26C36.6034 19.3 36.7034 19.34 36.8034 19.4C37.2234 19.64 37.5434 19.98 37.8234 20.38C38.2834 21 38.5434 21.68 38.7034 22.42C38.8434 23.04 38.9034 23.68 38.9634 24.32C39.0234 24.96 39.0234 25.58 39.0234 26.22C39.0034 27.5 38.7634 28.7 38.2434 29.86C38.0834 30.2 37.9434 30.52 37.7834 30.84C37.7234 31 37.6234 31.14 37.5234 31.26C37.3234 31.54 37.1034 31.8 36.8634 32.04C36.6234 32.28 36.3434 32.46 36.0234 32.58C35.6234 32.74 35.2034 32.88 34.7834 32.96C34.5634 33 34.3234 33 34.0834 33C33.6434 33.02 33.1834 33.02 32.7234 32.98C32.5834 32.96 32.4434 32.92 32.3234 32.88C32.2434 32.84 32.2034 32.78 32.2034 32.7C32.2034 32.66 32.2034 32.62 32.2034 32.58C32.1834 31.94 32.1834 31.28 32.1834 30.64C32.1834 30.28 32.1434 29.9 32.1434 29.54C32.1434 28.92 32.1234 28.32 32.1234 27.7C32.1234 27.22 32.1234 26.72 32.1234 26.22C32.1434 26.22 32.1434 26.22 32.1434 26.22ZM33.8434 20.54C33.8434 20.74 33.8634 20.92 33.8434 21.1C33.8434 21.54 33.8434 21.98 33.8434 22.42C33.8434 22.76 33.8434 23.1 33.8234 23.44C33.7634 24.76 33.7434 26.1 33.7234 27.44C33.7234 27.8 33.7234 28.18 33.7034 28.54C33.6834 29.42 33.6634 30.28 33.6634 31.14C33.6634 31.3 33.6834 31.34 33.8434 31.36C34.0434 31.36 34.2234 31.36 34.4034 31.36C34.5034 31.36 34.5834 31.34 34.6834 31.3C35.0034 31.18 35.3434 31.04 35.6234 30.84C35.9434 30.6 36.2234 30.32 36.3834 29.94C36.5234 29.58 36.6634 29.22 36.7434 28.84C36.8634 28.34 37.0034 27.82 37.0434 27.3C37.0834 26.66 37.1234 26.02 37.1434 25.38C37.1634 25.06 37.1634 24.74 37.1234 24.44C37.0434 23.72 36.8634 23.02 36.6634 22.34C36.4634 21.62 35.6634 20.76 34.8634 20.66C34.8234 20.64 34.7834 20.64 34.7434 20.62C34.4434 20.52 34.1434 20.54 33.8434 20.54ZM42.39 23.54C42.43 23.4 42.47 23.3 42.51 23.2C42.65 22.8 42.77 22.4 42.93 22C43.23 21.3 43.49 20.58 43.83 19.88C43.91 19.74 43.95 19.58 44.03 19.44C44.07 19.36 44.11 19.3 44.17 19.24C44.21 19.18 44.27 19.16 44.35 19.16C44.69 19.18 45.05 19.18 45.39 19.2C45.55 19.2 45.61 19.3 45.57 19.44C45.51 19.62 45.45 19.8 45.39 19.98C45.29 20.28 45.17 20.58 45.09 20.88C44.83 21.76 44.59 22.64 44.33 23.52C44.23 23.88 44.11 24.22 43.99 24.56C43.89 24.86 43.79 25.16 43.69 25.48C43.55 25.84 43.43 26.22 43.29 26.58C43.27 26.68 43.25 26.78 43.25 26.86C43.23 27.78 43.23 28.7 43.25 29.62C43.25 30.18 43.27 30.74 43.29 31.3C43.31 31.78 43.33 32.26 43.33 32.74C43.33 32.8 43.33 32.84 43.33 32.9C43.33 32.98 43.29 33.04 43.21 33.04C43.11 33.06 43.01 33.08 42.89 33.08C42.55 33.08 42.21 33.08 41.87 33.08C41.83 33.08 41.79 33.08 41.75 33.08C41.65 33.06 41.59 33 41.57 32.9C41.57 32.86 41.57 32.82 41.57 32.78C41.53 31.88 41.53 30.98 41.55 30.08C41.55 28.88 41.55 27.66 41.55 26.44C41.55 26.36 41.53 26.3 41.51 26.24C41.31 25.78 41.15 25.3 41.01 24.82C40.87 24.42 40.71 24.02 40.55 23.6C40.37 23.08 40.19 22.58 40.01 22.06C39.93 21.84 39.89 21.64 39.81 21.44C39.61 21 39.41 20.56 39.21 20.12C39.17 20 39.11 19.88 39.07 19.76C39.01 19.54 39.11 19.4 39.33 19.32C39.65 19.22 39.99 19.2 40.33 19.14C40.55 19.12 40.63 19.16 40.73 19.36C40.91 19.76 41.11 20.14 41.29 20.54C41.37 20.74 41.43 20.96 41.51 21.16C41.67 21.6 41.79 22.06 41.97 22.48C42.11 22.8 42.23 23.12 42.33 23.44C42.35 23.46 42.35 23.48 42.39 23.54Z" fill="#FDF8F1"/>
<rect y="6" width="64" height="81" rx="4" fill="#537BB9"/>
<rect x="3" y="3" width="59" height="82" rx="4" fill="#FDF8F1"/>
<rect width="59" height="82" rx="4" fill="#537BB9"/>
<path d="M12.7 22.98C12.68 23.18 12.7 23.4 12.78 23.58C12.84 23.76 12.9 23.88 13 23.98C13.24 24.24 13.48 24.46 13.72 24.68C13.8 24.76 13.9 24.82 13.98 24.86C14.28 25.02 14.52 25.22 14.76 25.42C15.14 25.66 15.44 26 15.72 26.36C15.76 26.4 15.8 26.44 15.84 26.48C16.08 26.72 16.28 26.96 16.44 27.26C16.58 27.5 16.68 27.72 16.78 27.96C16.98 28.44 17.06 28.94 17.06 29.46C17.06 29.62 17.06 29.76 17.06 29.9C17.06 30.24 17 30.58 16.84 30.9C16.76 31.1 16.7 31.34 16.6 31.54C16.5 31.74 16.4 31.9 16.3 32.06C16.18 32.28 15.98 32.4 15.8 32.56C15.32 32.9 14.74 33.12 14.16 33.2C13.5 33.26 12.9 33.16 12.34 32.78C12.12 32.64 11.88 32.46 11.66 32.32C11.32 32.06 11.04 31.76 10.86 31.38C10.78 31.2 10.7 31.04 10.68 30.86C10.62 30.74 10.66 30.64 10.74 30.56C10.82 30.48 10.92 30.36 11.02 30.26C11.18 30.12 11.34 29.96 11.52 29.82C11.54 29.8 11.58 29.76 11.6 29.74C11.68 29.68 11.78 29.68 11.86 29.74C11.92 29.78 11.94 29.84 12 29.9C12.1 30.04 12.22 30.16 12.34 30.28C12.38 30.3 12.4 30.34 12.44 30.36C12.7 30.74 13.04 31 13.48 31.14C13.9 31.3 14.34 31.32 14.72 31.04C14.88 30.94 15 30.78 15.08 30.64C15.24 30.28 15.32 29.92 15.22 29.54C15.16 29.22 15.12 28.9 15.02 28.58C14.92 28.22 14.74 27.94 14.52 27.66C14.38 27.52 14.28 27.36 14.18 27.24C13.88 26.92 13.54 26.7 13.2 26.44C12.78 26.14 12.38 25.86 12 25.5C11.6 25.16 11.3 24.76 11.16 24.28C11.04 23.98 11 23.66 10.98 23.36C10.96 23.02 11 22.68 11.02 22.36C11.08 21.96 11.2 21.58 11.34 21.22C11.38 21.06 11.42 20.9 11.52 20.78C11.66 20.46 11.88 20.16 12.12 19.88C12.18 19.82 12.26 19.74 12.3 19.68C12.54 19.38 12.84 19.22 13.18 19.1C13.3 19.02 13.46 18.98 13.62 18.92C13.92 18.8 14.24 18.82 14.58 18.92C15.04 19.1 15.48 19.32 15.9 19.6C15.92 19.62 15.94 19.64 15.98 19.66C16.22 19.76 16.42 19.96 16.6 20.18C16.66 20.28 16.76 20.36 16.86 20.4C16.98 20.46 17 20.52 16.98 20.62C16.96 20.66 16.92 20.72 16.9 20.78C16.76 21.02 16.64 21.28 16.48 21.54C16.42 21.64 16.36 21.72 16.3 21.8C16.22 21.88 16.16 21.9 16.06 21.84C15.82 21.72 15.58 21.56 15.34 21.4C15.08 21.24 14.8 21.06 14.52 20.94C14.2 20.82 13.88 20.84 13.64 21.08C13.3 21.42 13 21.76 12.84 22.2C12.8 22.32 12.76 22.46 12.72 22.58C12.7 22.72 12.7 22.84 12.7 22.98ZM19.7158 31.2C19.7158 30.84 19.6958 30.48 19.7158 30.12C19.7158 29.66 19.7558 29.2 19.7558 28.74C19.7758 28.06 19.7558 27.38 19.7558 26.7C19.7558 24.94 19.7758 23.18 19.7758 21.44C19.7758 21.42 19.7758 21.4 19.7758 21.38C19.7758 21.24 19.7758 21.26 19.6558 21.26C19.3758 21.26 19.1158 21.24 18.8558 21.22C18.6358 21.22 18.4158 21.18 18.1958 21.18C18.0358 21.16 17.9758 21.1 17.9758 20.92C17.9758 20.54 17.9958 20.14 18.0158 19.76C18.0158 19.66 18.0358 19.56 18.0558 19.46C18.0958 19.32 18.1958 19.26 18.3358 19.26C18.4358 19.24 18.5358 19.24 18.6358 19.24C18.9758 19.24 19.3358 19.22 19.6758 19.24C20.1758 19.26 20.6758 19.32 21.1758 19.34C21.4558 19.36 21.7558 19.34 22.0158 19.34C22.2558 19.34 22.4958 19.36 22.7358 19.34C22.8758 19.34 23.0158 19.32 23.1758 19.32C23.1958 19.32 23.2158 19.3 23.2558 19.3C23.3958 19.28 23.4558 19.34 23.4558 19.48C23.4558 19.96 23.4558 20.46 23.4558 20.94C23.4358 21.1 23.3958 21.16 23.2358 21.18C23.1358 21.2 23.0158 21.2 22.8958 21.2C22.4758 21.22 22.0758 21.22 21.6558 21.24C21.5358 21.24 21.5358 21.24 21.5358 21.36C21.5358 21.48 21.5358 21.58 21.5358 21.68C21.5358 22.48 21.5158 23.28 21.5358 24.08C21.5358 25.08 21.5758 26.08 21.5758 27.08C21.5558 28.46 21.5358 29.84 21.5358 31.22C21.5358 31.8 21.5358 32.36 21.5358 32.92C21.5358 33.34 21.5158 33.32 21.1158 33.38C20.9758 33.4 20.8358 33.38 20.6958 33.4C20.4558 33.42 20.1958 33.44 19.9558 33.46C19.7558 33.48 19.6958 33.42 19.6958 33.22C19.7158 32.54 19.7158 31.88 19.7358 31.2C19.7158 31.2 19.7158 31.2 19.7158 31.2ZM26.09 22.62C26.11 23.96 26.11 24.98 26.13 26.02C26.15 26.62 26.15 27.24 26.19 27.84C26.25 28.48 26.33 29.1 26.39 29.74C26.41 29.88 26.43 30.02 26.45 30.14C26.51 30.46 26.69 30.68 26.93 30.86C26.93 30.88 26.97 30.9 26.99 30.9C27.25 30.94 27.51 30.98 27.79 30.94C27.97 30.92 28.13 30.86 28.27 30.7C28.27 30.7 28.29 30.68 28.33 30.66C28.53 30.56 28.59 30.36 28.65 30.16C28.87 29.52 28.95 28.88 29.01 28.22C29.03 27.88 29.07 27.54 29.09 27.2C29.13 26.78 29.13 26.34 29.13 25.92C29.15 24.88 29.15 23.86 29.19 22.84C29.21 21.96 29.27 21.1 29.33 20.22C29.33 20.06 29.37 19.9 29.39 19.74C29.41 19.62 29.45 19.54 29.57 19.52C29.59 19.5 29.61 19.5 29.63 19.5C29.95 19.46 30.27 19.42 30.59 19.4C30.83 19.38 30.91 19.46 30.91 19.68C30.93 19.86 30.91 20.04 30.91 20.22C30.91 20.76 30.89 21.3 30.87 21.84C30.85 22.38 30.85 22.92 30.83 23.46C30.83 23.84 30.83 24.2 30.81 24.56C30.81 25.7 30.79 26.82 30.77 27.94C30.75 28.22 30.73 28.5 30.69 28.78C30.65 29.14 30.61 29.5 30.57 29.86C30.49 30.4 30.33 30.9 30.11 31.38C29.87 31.86 29.55 32.26 29.07 32.54C28.95 32.6 28.85 32.68 28.75 32.74C28.19 33.04 27.61 33.2 26.99 33.06C26.65 33 26.33 32.86 26.07 32.62C25.91 32.46 25.73 32.3 25.57 32.14C25.53 32.1 25.49 32.04 25.45 32C25.43 31.98 25.43 31.96 25.43 31.94C25.23 31.74 25.15 31.44 25.01 31.2C24.99 31.18 24.97 31.14 24.95 31.1C24.89 30.86 24.83 30.64 24.75 30.4C24.75 30.38 24.75 30.34 24.73 30.32C24.59 29.84 24.51 29.36 24.43 28.86C24.37 28.6 24.35 28.32 24.35 28.04C24.35 27.48 24.35 26.9 24.35 26.34C24.37 25.78 24.41 25.24 24.43 24.7C24.45 23.94 24.49 23.18 24.51 22.42C24.53 22.1 24.55 21.78 24.57 21.48C24.59 21.16 24.59 20.84 24.61 20.54C24.63 20.32 24.63 20.08 24.63 19.86C24.65 19.76 24.67 19.68 24.71 19.58C24.73 19.46 24.81 19.42 24.93 19.42C25.23 19.44 25.55 19.42 25.85 19.44C26.13 19.44 26.13 19.44 26.13 19.72C26.15 20.12 26.15 20.5 26.13 20.88C26.13 21.56 26.09 22.24 26.09 22.62ZM32.1434 26.22C32.1434 24.7 32.1434 23.18 32.1434 21.64C32.1434 21.14 32.1234 20.64 32.1234 20.14C32.1434 19.84 32.1634 19.56 32.1834 19.28C32.2034 19.02 32.2834 18.96 32.5434 18.94C32.7434 18.92 32.9434 18.9 33.1434 18.88C33.7034 18.84 34.2834 18.84 34.8434 18.86C35.0634 18.88 35.2634 18.92 35.4834 18.96C35.5834 18.98 35.6634 19 35.7434 19.02C35.9034 19.06 36.0434 19.1 36.1834 19.14C36.2834 19.16 36.4034 19.2 36.5034 19.26C36.6034 19.3 36.7034 19.34 36.8034 19.4C37.2234 19.64 37.5434 19.98 37.8234 20.38C38.2834 21 38.5434 21.68 38.7034 22.42C38.8434 23.04 38.9034 23.68 38.9634 24.32C39.0234 24.96 39.0234 25.58 39.0234 26.22C39.0034 27.5 38.7634 28.7 38.2434 29.86C38.0834 30.2 37.9434 30.52 37.7834 30.84C37.7234 31 37.6234 31.14 37.5234 31.26C37.3234 31.54 37.1034 31.8 36.8634 32.04C36.6234 32.28 36.3434 32.46 36.0234 32.58C35.6234 32.74 35.2034 32.88 34.7834 32.96C34.5634 33 34.3234 33 34.0834 33C33.6434 33.02 33.1834 33.02 32.7234 32.98C32.5834 32.96 32.4434 32.92 32.3234 32.88C32.2434 32.84 32.2034 32.78 32.2034 32.7C32.2034 32.66 32.2034 32.62 32.2034 32.58C32.1834 31.94 32.1834 31.28 32.1834 30.64C32.1834 30.28 32.1434 29.9 32.1434 29.54C32.1434 28.92 32.1234 28.32 32.1234 27.7C32.1234 27.22 32.1234 26.72 32.1234 26.22C32.1434 26.22 32.1434 26.22 32.1434 26.22ZM33.8434 20.54C33.8434 20.74 33.8634 20.92 33.8434 21.1C33.8434 21.54 33.8434 21.98 33.8434 22.42C33.8434 22.76 33.8434 23.1 33.8234 23.44C33.7634 24.76 33.7434 26.1 33.7234 27.44C33.7234 27.8 33.7234 28.18 33.7034 28.54C33.6834 29.42 33.6634 30.28 33.6634 31.14C33.6634 31.3 33.6834 31.34 33.8434 31.36C34.0434 31.36 34.2234 31.36 34.4034 31.36C34.5034 31.36 34.5834 31.34 34.6834 31.3C35.0034 31.18 35.3434 31.04 35.6234 30.84C35.9434 30.6 36.2234 30.32 36.3834 29.94C36.5234 29.58 36.6634 29.22 36.7434 28.84C36.8634 28.34 37.0034 27.82 37.0434 27.3C37.0834 26.66 37.1234 26.02 37.1434 25.38C37.1634 25.06 37.1634 24.74 37.1234 24.44C37.0434 23.72 36.8634 23.02 36.6634 22.34C36.4634 21.62 35.6634 20.76 34.8634 20.66C34.8234 20.64 34.7834 20.64 34.7434 20.62C34.4434 20.52 34.1434 20.54 33.8434 20.54ZM42.39 23.54C42.43 23.4 42.47 23.3 42.51 23.2C42.65 22.8 42.77 22.4 42.93 22C43.23 21.3 43.49 20.58 43.83 19.88C43.91 19.74 43.95 19.58 44.03 19.44C44.07 19.36 44.11 19.3 44.17 19.24C44.21 19.18 44.27 19.16 44.35 19.16C44.69 19.18 45.05 19.18 45.39 19.2C45.55 19.2 45.61 19.3 45.57 19.44C45.51 19.62 45.45 19.8 45.39 19.98C45.29 20.28 45.17 20.58 45.09 20.88C44.83 21.76 44.59 22.64 44.33 23.52C44.23 23.88 44.11 24.22 43.99 24.56C43.89 24.86 43.79 25.16 43.69 25.48C43.55 25.84 43.43 26.22 43.29 26.58C43.27 26.68 43.25 26.78 43.25 26.86C43.23 27.78 43.23 28.7 43.25 29.62C43.25 30.18 43.27 30.74 43.29 31.3C43.31 31.78 43.33 32.26 43.33 32.74C43.33 32.8 43.33 32.84 43.33 32.9C43.33 32.98 43.29 33.04 43.21 33.04C43.11 33.06 43.01 33.08 42.89 33.08C42.55 33.08 42.21 33.08 41.87 33.08C41.83 33.08 41.79 33.08 41.75 33.08C41.65 33.06 41.59 33 41.57 32.9C41.57 32.86 41.57 32.82 41.57 32.78C41.53 31.88 41.53 30.98 41.55 30.08C41.55 28.88 41.55 27.66 41.55 26.44C41.55 26.36 41.53 26.3 41.51 26.24C41.31 25.78 41.15 25.3 41.01 24.82C40.87 24.42 40.71 24.02 40.55 23.6C40.37 23.08 40.19 22.58 40.01 22.06C39.93 21.84 39.89 21.64 39.81 21.44C39.61 21 39.41 20.56 39.21 20.12C39.17 20 39.11 19.88 39.07 19.76C39.01 19.54 39.11 19.4 39.33 19.32C39.65 19.22 39.99 19.2 40.33 19.14C40.55 19.12 40.63 19.16 40.73 19.36C40.91 19.76 41.11 20.14 41.29 20.54C41.37 20.74 41.43 20.96 41.51 21.16C41.67 21.6 41.79 22.06 41.97 22.48C42.11 22.8 42.23 23.12 42.33 23.44C42.35 23.46 42.35 23.48 42.39 23.54Z" fill="#FDF8F1"/>
</svg>
