<svg xmlns="http://www.w3.org/2000/svg" viewBox="0 0 390 844" role="img" aria-label="The High-Energy Connector">
  <rect width="390" height="844" fill="#fff9f1"/>
  <text x="195" y="168" text-anchor="middle" fill="#f6b2b0" font-family="Inter, Arial, sans-serif" font-size="16" font-weight="600">Your TAYO type is...</text>
  <g fill="#f6b2b0">
    <g transform="translate(57 206)"><circle cx="18" cy="18" r="9"/><circle cx="39" cy="18" r="9"/><circle cx="28" cy="6" r="9"/><circle cx="28" cy="31" r="9"/></g>
    <g transform="translate(279 283) scale(.8)"><circle cx="18" cy="18" r="9"/><circle cx="39" cy="18" r="9"/><circle cx="28" cy="6" r="9"/><circle cx="28" cy="31" r="9"/></g>
    <g transform="translate(300 190) scale(.55)"><circle cx="18" cy="18" r="9"/><circle cx="39" cy="18" r="9"/><circle cx="28" cy="6" r="9"/><circle cx="28" cy="31" r="9"/></g>
  </g>
  <g transform="translate(78 208)">
    <ellipse cx="74" cy="72" rx="58" ry="54" fill="#5a86c4"/>
    <ellipse cx="51" cy="25" rx="18" ry="42" fill="#5a86c4"/>
    <ellipse cx="96" cy="25" rx="18" ry="42" fill="#5a86c4"/>
    <circle cx="55" cy="71" r="6" fill="#3d332e"/><circle cx="94" cy="71" r="6" fill="#3d332e"/>
    <path d="M70 83h11m-6-3v15m-20-5c8 8 16 8 21 0m1 0c7 8 15 8 22 0" fill="none" stroke="#3d332e" stroke-width="5" stroke-linecap="round" stroke-linejoin="round"/>
    <ellipse cx="197" cy="128" rx="58" ry="54" fill="#ffc627"/>
    <ellipse cx="174" cy="81" rx="18" ry="42" fill="#ffc627"/>
    <ellipse cx="219" cy="81" rx="18" ry="42" fill="#ffc627"/>
    <circle cx="178" cy="127" r="6" fill="#3d332e"/><circle cx="217" cy="127" r="6" fill="#3d332e"/>
    <path d="M193 139h11m-6-3v15m-20-5c8 8 16 8 21 0m1 0c7 8 15 8 22 0" fill="none" stroke="#3d332e" stroke-width="5" stroke-linecap="round" stroke-linejoin="round"/>
  </g>
  <text x="195" y="506" text-anchor="middle" fill="#f6b2b0" font-family="'Arial Narrow', Impact, sans-serif" font-size="46" font-weight="900">THE HIGH-ENERGY</text>
  <text x="195" y="562" text-anchor="middle" fill="#f6b2b0" font-family="'Arial Narrow', Impact, sans-serif" font-size="46" font-weight="900">CONNECTOR</text>
  <text x="195" y="610" text-anchor="middle" fill="#f6b2b0" font-family="Inter, Arial, sans-serif" font-size="15" font-weight="700">
    <tspan x="195">Preferred Environment: Low-stimulation</tspan>
    <tspan x="195" dy="19">spaces, small-scale groups, and independent,</tspan>
    <tspan x="195" dy="19">self-paced, or focused activities.</tspan>
  </text>
</svg>
