<svg width="312" height="201" viewBox="0 0 312 201" fill="none" xmlns="http://www.w3.org/2000/svg">
<ellipse cx="204.846" cy="144.203" rx="54.9534" ry="42.7415" transform="rotate(5.70164 204.846 144.203)" fill="#FDBF27"/>
<ellipse cx="233.511" cy="104.596" rx="26.6441" ry="15.7325" transform="rotate(-67.5288 233.511 104.596)" fill="#FDBF27"/>
<ellipse cx="190.562" cy="97.3249" rx="26.6441" ry="15.7325" transform="rotate(-91.1056 190.562 97.3249)" fill="#FDBF27"/>
<circle cx="182.586" cy="138.075" r="5.55085" transform="rotate(5.70164 182.586 138.075)" fill="#403631"/>
<circle cx="225.668" cy="142.377" r="5.55085" transform="rotate(5.70164 225.668 142.377)" fill="#403631"/>
<path d="M195.706 149.359L196.085 145.559L211.731 147.882L210.49 151.714L205.632 150.94C205.632 150.94 205.261 152.51 205.599 153.423C205.977 154.444 206.682 155.119 207.506 155.811C208.694 156.809 210.862 156.586 210.862 156.586L209.577 160.853C209.577 160.853 208.275 160.552 207.496 160.205C206.472 159.749 205.955 159.351 205.077 158.645C204.423 158.119 204.035 157.829 203.508 157.17C202.982 156.511 202.408 155.302 202.408 155.302C202.408 155.302 201.924 156.429 201.384 156.958C200.679 157.647 199.98 158.092 199.086 158.487C198.056 158.941 197.568 159.061 196.45 159.102C195.436 159.14 193.944 158.413 193.944 158.413L195.228 154.146C195.228 154.146 196.539 154.548 197.352 154.358C198.503 154.089 199.361 153.836 200.075 152.872C200.649 152.098 200.775 150.166 200.775 150.166L195.706 149.359Z" fill="#403631"/>
<path d="M200.775 150.166L195.706 149.359L196.085 145.559L211.731 147.882L210.49 151.714L205.632 150.94M200.775 150.166C200.775 150.166 200.649 152.098 200.075 152.872C199.361 153.836 198.503 154.089 197.352 154.358C196.539 154.548 195.228 154.146 195.228 154.146L193.944 158.413C193.944 158.413 195.436 159.14 196.45 159.102C197.568 159.061 198.056 158.941 199.086 158.487C199.98 158.092 200.679 157.647 201.384 156.958C201.924 156.429 202.408 155.302 202.408 155.302C202.408 155.302 202.982 156.511 203.508 157.17C204.035 157.829 204.423 158.119 205.077 158.645C205.955 159.351 206.472 159.749 207.496 160.205C208.275 160.552 209.577 160.853 209.577 160.853L210.862 156.586C210.862 156.586 208.694 156.809 207.506 155.811C206.682 155.119 205.977 154.444 205.599 153.423C205.261 152.51 205.632 150.94 205.632 150.94M200.775 150.166L205.632 150.94" stroke="#403631"/>
<ellipse cx="103.197" cy="76.2338" rx="54.9534" ry="42.7415" transform="rotate(-7.03075 103.197 76.2338)" fill="#537BB9"/>
<ellipse cx="122.428" cy="31.2827" rx="26.6441" ry="15.7325" transform="rotate(-80.2612 122.428 31.2827)" fill="#537BB9"/>
<ellipse cx="78.9331" cy="33.6567" rx="26.6441" ry="15.7325" transform="rotate(-103.838 78.9331 33.6567)" fill="#537BB9"/>
<circle cx="80.1341" cy="75.1632" r="5.55085" transform="rotate(-7.03075 80.1341 75.1632)" fill="#403631"/>
<circle cx="123.105" cy="69.8636" r="5.55085" transform="rotate(-7.03075 123.105 69.8636)" fill="#403631"/>
<path d="M95.4183 83.2776L94.9509 79.488L110.723 78.3054L110.358 82.3164L105.449 82.6322C105.449 82.6322 105.433 84.2458 105.964 85.0616C106.557 85.9739 107.394 86.4772 108.35 86.9705C109.729 87.6818 111.794 86.9865 111.794 86.9865L111.482 91.4315C111.482 91.4315 110.145 91.4253 109.309 91.2588C108.21 91.0397 107.618 90.7652 106.606 90.2702C105.852 89.9013 105.409 89.7042 104.75 89.1771C104.091 88.65 103.265 87.5977 103.265 87.5977C103.265 87.5977 103.042 88.8035 102.631 89.4384C102.096 90.2663 101.512 90.8538 100.727 91.4359C99.8228 92.1056 99.3728 92.3308 98.2911 92.6176C97.3103 92.8778 95.6949 92.4972 95.6949 92.4972L96.0072 88.0521C96.0072 88.0521 97.3741 88.1556 98.126 87.7908C99.1895 87.2749 99.9699 86.8388 100.455 85.741C100.844 84.8595 100.54 82.948 100.54 82.948L95.4183 83.2776Z" fill="#403631"/>
<path d="M100.54 82.948L95.4183 83.2776L94.9509 79.488L110.723 78.3054L110.358 82.3164L105.449 82.6322M100.54 82.948C100.54 82.948 100.844 84.8595 100.455 85.741C99.9699 86.8388 99.1895 87.2749 98.126 87.7908C97.3741 88.1556 96.0072 88.0521 96.0072 88.0521L95.6949 92.4972C95.6949 92.4972 97.3103 92.8778 98.2911 92.6176C99.3728 92.3308 99.8228 92.1056 100.727 91.4359C101.512 90.8538 102.096 90.2663 102.631 89.4384C103.042 88.8035 103.265 87.5977 103.265 87.5977C103.265 87.5977 104.091 88.65 104.75 89.1771C105.409 89.7042 105.852 89.9013 106.606 90.2702C107.618 90.7652 108.21 91.0397 109.309 91.2588C110.145 91.4253 111.482 91.4315 111.482 91.4315L111.794 86.9865C111.794 86.9865 109.729 87.6818 108.35 86.9705C107.394 86.4772 106.557 85.9739 105.964 85.0616C105.433 84.2458 105.449 82.6322 105.449 82.6322M100.54 82.948L105.449 82.6322" stroke="#403631"/>
<path d="M187.567 29.396C187.567 27.0374 188.002 22.0097 188.965 21.3918C190.012 20.7198 191.171 20.6434 191.939 20.8426C192.263 21.0529 192.455 21.4851 192.557 23.0379C192.659 24.5907 192.665 27.251 192.672 29.9919" stroke="#FDF8F1" stroke-width="3" stroke-linecap="round"/>
<path d="M164.107 32.3077C164.107 32.2755 164.115 29.7646 164.187 25.8544C164.217 24.1673 164.588 23.7846 164.84 23.5071C165.501 22.7785 166.583 22.6071 167.528 22.6099C168.398 22.6124 168.971 23.6985 169.339 24.5322C169.695 25.3369 169.335 26.4464 167.811 29.0648C166.063 31.4059 165.784 32.001 165.508 32.3797C165.36 32.5542 165.195 32.6927 164.982 32.8599" stroke="#FAB9B4" stroke-width="3" stroke-linecap="round"/>
<path d="M164.982 32.8598C165.002 32.8598 167.405 32.8824 171.142 32.9556C172.487 32.9819 172.709 33.0842 172.889 33.1896C173.818 33.7333 173.839 35.835 173.81 36.656C173.769 37.8693 170.298 37.68 168.958 37.4131C167.841 36.8004 166.364 35.3797 165.098 33.6844C164.615 33.0007 164.458 32.6755 164.178 32.1809" stroke="#FAB9B4" stroke-width="3" stroke-linecap="round"/>
<path d="M163.75 32.3789C163.746 32.233 163.63 31.3974 163.405 30.7055C163.286 30.3417 162.936 29.9849 162.491 29.5477C162.234 29.2955 161.866 29.0335 161.338 28.7095C160.147 27.978 159.305 27.6022 159.043 27.5095C158.312 27.251 157.453 27.2823 157.061 27.3503C156.443 27.4577 155.948 28.8302 155.777 29.6883C155.698 30.0875 155.776 30.3565 155.832 30.5017C155.899 30.6733 156.043 30.7806 156.221 30.9155C156.55 31.1661 157.207 31.4645 158.53 31.8726C159.432 32.1007 160.802 32.3714 161.777 32.528C162.752 32.6846 163.29 32.7188 163.844 32.7541" stroke="#FAB9B4" stroke-width="3" stroke-linecap="round"/>
<path d="M163.743 33.1204C163.73 33.1204 163.123 33.1204 161.891 33.1752C161.257 33.2033 160.614 33.3395 159.997 33.5105C158.791 33.845 158.055 34.2378 157.68 34.4576C156.82 34.9631 156.52 35.4294 156.446 35.6807C156.403 35.8271 156.416 35.979 156.429 36.0992C156.468 36.4805 157.315 36.9321 158.175 37.2755C158.48 37.3973 158.82 37.3884 159.171 37.3781C159.432 37.3704 160.023 37.0934 161.012 36.5527C161.533 36.2685 162.031 35.8653 162.432 35.5219C162.834 35.1785 163.107 34.8816 163.421 34.4617C164.083 33.5078 164.481 32.8732 164.557 32.7183C164.593 32.648 164.623 32.5946 164.684 32.5132" stroke="#FAB9B4" stroke-width="3" stroke-linecap="round"/>
<path d="M164.698 32.5132C164.695 32.5758 164.692 32.6383 164.539 33.3005C164.385 33.9626 164.082 35.2224 163.904 36.3055C163.726 37.3886 163.684 38.2569 163.669 38.7586C163.638 39.724 164.163 40.7434 164.431 41.2058C164.676 41.6287 165.441 41.7776 165.752 41.8246C165.822 41.8352 165.883 41.8288 165.954 41.786C166.566 41.418 166.739 40.1863 166.873 39.4403C167.103 38.16 167.084 37.1577 167.071 36.7976C167.064 36.6215 167.042 36.4595 166.897 35.9503C166.484 34.5899 166.172 33.6479 166.101 33.5275C166.065 33.4718 166.03 33.4273 165.953 33.3761" stroke="#FAB9B4" stroke-width="3" stroke-linecap="round"/>
<path d="M165.953 33.376C165.953 33.3799 165.953 33.3838 165.954 34.1586C165.955 34.9335 165.957 36.4791 165.971 37.3322C165.986 38.1854 166.012 38.2992 166.025 38.387C166.037 38.4748 166.036 38.5332 165.988 38.6295" stroke="#FAB9B4" stroke-width="3" stroke-linecap="round"/>
<path d="M167.288 33.948C167.278 33.9431 168.173 34.4121 169.739 35.1871C171.303 35.961 171.919 35.7903 172.234 35.7604C172.352 35.7492 172.372 35.6712 172.384 35.5906C172.435 35.2521 172.324 35.022 172.199 34.8322C172.073 34.64 171.818 34.5376 171.572 34.4393C171.497 34.4174 171.404 34.3971 171.301 34.3866C171.198 34.3762 171.086 34.3762 170.96 34.3824" stroke="#FAB9B4" stroke-width="3" stroke-linecap="round"/>
<path d="M166.717 27.5434C166.717 26.8693 166.783 25.4954 166.91 25.4591C166.969 25.4422 167.026 25.4683 167.051 25.6067C167.122 25.9995 166.914 26.9662 166.588 28.269C166.219 29.3861 165.946 30.0332 165.816 30.2436C165.758 30.3293 165.719 30.372 165.59 30.4833" stroke="#FAB9B4" stroke-width="3" stroke-linecap="round"/>
<path d="M161.636 30.0354C161.633 30.0354 161.631 30.0354 161.126 30.0363C160.621 30.0372 159.612 30.0391 158.957 30.0715C158.301 30.1039 158.03 30.1669 157.729 30.2642" stroke="#FAB9B4" stroke-width="3" stroke-linecap="round"/>
<path d="M162.537 33.4978C162.428 33.4978 162.113 33.5276 160.754 33.99C160.194 34.277 159.658 35.0015 159.034 35.6204C158.937 35.6985 158.883 35.7367 158.823 35.7924" stroke="#FAB9B4" stroke-width="3" stroke-linecap="round"/>
<path d="M166.139 32.5366C166.141 32.5366 166.143 32.5366 166.18 32.5366C166.217 32.5366 166.289 32.5366 166.428 32.522" stroke="#FAB9B4" stroke-width="3" stroke-linecap="round"/>
<path d="M271.364 184.501C271.604 183.29 272.733 181.68 275.239 179.532C276.933 178.079 281.526 177.704 284.951 178.308C286.07 178.506 286.899 178.672 287.263 179.197C287.44 179.451 287.387 179.801 287.547 179.966C287.707 180.131 288.028 180.131 288.193 180.412C288.358 180.692 288.358 181.253 288.238 181.662C288.028 182.375 286.989 182.559 285.493 183.365C282.582 184.934 278.836 184.259 276.227 185.065C275.664 185.238 274.86 185.23 274.687 185.23C273.302 185.23 278.312 185.958 280.011 186.118C281.216 186.232 282.041 187.41 283.859 187.818C285.521 188.19 286.008 189.357 286.493 189.637C288.04 190.53 287.387 192.828 287.267 194.202C287.216 194.786 286.906 195.096 285.941 195.261C281.386 196.04 279.71 194.057 278.046 192.962C275.582 191.341 273.394 189.6 272.299 188.673C271.991 188.413 271.694 188.148 271.529 187.864C271.364 187.58 271.364 187.259 271.484 187.214C272.765 186.736 273.063 189.998 273.668 191.774C275.183 196.225 272.583 197.606 272.175 198.78C271.941 199.453 269.682 199.553 267.012 199.433C266.019 199.388 265.785 199.072 265.661 198.268C265.069 194.421 266.746 192.605 267.154 190.497C267.432 189.06 269.087 187.507 270.506 185.928C270.734 185.674 269.184 186.599 267.85 187.049C265.222 187.936 262.386 188.298 256.336 188.508C255.016 188.554 254.7 188.148 254.535 187.463C254.37 186.779 254.37 185.657 254.65 184.919C255.476 182.745 257.919 182.802 260.545 181.996C264.267 180.853 267.315 182.071 267.92 182.596C268.225 182.859 268.446 183.2 268.73 183.365C269.014 183.53 269.334 183.53 269.219 183.25C268.276 180.956 266.596 179.651 266.146 177.832C265.688 175.986 264.086 173.912 264.359 170.513C264.604 167.456 269.087 169.207 270.906 169.447C272.831 169.701 272.733 172.115 272.943 178.165C273.026 180.558 271.364 181.501 270.759 182.596C270.636 182.88 270.636 183.2 270.475 183.485C270.315 183.771 269.995 184.011 269.665 184.259" stroke="#FAB9B4" stroke-width="3" stroke-linecap="round"/>
<path d="M280.613 153.958C279.644 155.007 278.516 155.658 277.581 156.422C277.103 156.813 277.137 157.597 276.651 158.522C276.324 159.146 276.486 160.328 277.167 160.906C277.848 161.484 279.21 161.484 280.072 161.364C280.934 161.244 281.254 161.003 281.539 160.599C282.906 158.662 283.284 156.235 283.284 154.936C283.284 154.759 283.284 155.56 283.564 156.133C284.646 158.345 287.243 158.406 288.654 158.891C289.472 159.173 290.625 159.056 291.203 158.375C291.781 157.694 291.781 156.332 291.66 155.471C291.54 154.609 291.3 154.288 290.896 154.123C289.13 153.402 287.02 153.23 285.357 153.07C283.313 152.873 289.503 151.137 290.686 149.674C291.297 148.918 291.13 148.132 291.616 147.691C291.964 147.375 291.781 146.369 290.819 145.915C289.858 145.461 287.935 145.461 286.784 145.742C284.228 146.364 284.255 149.651 283.449 151.444C283.27 151.842 283.284 152.409 283.284 151.617C283.284 148.661 283.043 146.112 282.519 145.506C281.995 144.9 281.584 144.412 281.184 143.927C280.908 143.593 279.982 143.762 279.409 143.882C278.466 144.08 278.185 145.131 277.421 146.066C277.225 146.305 276.816 146.189 276.651 146.91C276.486 147.632 276.486 149.074 276.766 149.816C277.604 152.034 280.446 152.259 281.175 152.379C281.38 152.413 281.104 152.739 280.82 152.743C280.17 152.751 277.401 152.259 273.478 152.539C272.015 152.644 271.718 153.38 271.553 154.07C271.388 154.759 271.388 155.56 271.508 156.133C271.628 156.706 271.869 157.027 273.114 157.192C276.576 157.651 279.234 157.117 279.84 156.592C280.934 155.417 281.584 154.288 282.995 153.073C283.284 152.669 283.284 152.108 284.012 151.53" stroke="#FAB9B4" stroke-width="3" stroke-linecap="round"/>
<path d="M110.411 143.284C109.77 143.284 105.274 143.284 98.8021 143.405C96.493 143.447 96.1753 143.765 95.8901 144.049C95.3224 144.614 95.1168 146.105 95.237 147.925C95.2837 148.632 95.5975 148.863 96.1219 149.147C99.3863 150.916 103.123 149.601 104.297 149.193C105.73 148.696 106.522 147.013 107.696 145.918C108.87 144.824 109.681 143.935 110.045 143.73C110.192 143.647 110.169 144.406 110.048 144.815C109.63 146.239 108.071 147.805 106.33 150.073C105.101 151.675 105.313 155.874 106.198 158.414C106.8 160.141 109.591 159.307 111.45 159.067C112.22 158.967 112.509 158.346 112.674 157.818C113.279 155.882 113.567 150.213 112.843 146.728C112.697 146.028 112.111 145.634 112.111 145.429C112.111 143.916 112.839 148.052 115.014 150.398C116.128 151.598 117.607 152.262 118.702 153.316C119.598 154.178 121.006 154.209 121.737 155.015C122.028 155.336 122.938 155.18 123.511 155.06C124.084 154.94 124.405 154.699 124.57 153.855C125.455 149.323 122.307 147.334 122.147 146.848C121.988 146.366 121.096 146.443 120.732 145.918C120.555 145.664 120.608 145.314 120.448 145.149C119.663 144.34 118.267 144.255 116.772 143.449C116.152 143.115 114.966 143.284 115.189 143.284C118.994 143.284 120.117 141.915 121.936 141.465C122.387 141.353 122.705 141.104 122.87 140.7C123.591 138.935 123.764 137.065 123.644 135.245C123.597 134.538 123.283 134.307 122.478 134.183C118.631 133.591 117.457 135.268 116.403 135.676C114.956 136.236 114.058 139.308 113.004 141.697C112.718 142.345 112.839 143.187 112.839 142.919C112.839 139.636 112.111 138.036 111.951 136.336C111.837 135.132 110.659 134.307 109.605 133.899C108.414 133.438 107.741 132.039 107.461 131.434C107.044 130.533 104.68 130.66 102.616 131.341C100.565 132.018 102.155 135.028 102.519 135.552C103.457 136.903 105.464 138.667 106.806 139.721C107.784 140.488 108.79 140.614 109.275 140.774C109.44 140.934 109.44 141.255 109.721 141.42C110.001 141.585 110.562 141.585 111.14 142.313" stroke="#FAB9B4" stroke-width="3" stroke-linecap="round"/>
<path d="M105.313 134.059C104.993 134.059 104.672 134.059 104.507 134.46C104.045 135.581 104.583 137.048 105.107 138.018C105.529 138.798 106.602 139.235 107.732 139.841C108.294 140.142 108.863 140.366 109.151 139.809C110.792 136.646 108.712 135.118 107.906 134.023C107.711 133.758 107.741 133.418 107.18 133.253C106.619 133.088 105.498 133.088 104.92 133.489C104.342 133.889 104.342 134.69 104.623 135.263C105.595 137.251 107.331 137.215 108.18 137.376C108.469 137.536 108.469 137.856 108.629 138.021C108.79 138.186 109.11 138.186 109.44 138.186" stroke="#FAB9B4" stroke-width="3" stroke-linecap="round"/>
<path d="M104.634 133.142C105.621 134.503 106.494 135.37 107.08 136.177C107.362 136.566 107.796 136.672 108.259 136.985C108.984 137.474 109.098 138.41 109.19 138.782C109.656 139.092 110.085 139.896 110.859 140.547C111.203 140.768 111.449 140.768 111.702 140.768" stroke="#FAB9B4" stroke-width="3" stroke-linecap="round"/>
<path d="M106.494 131.096C108.156 131.096 110.4 131.464 110.863 131.869C111.04 132.023 110.958 132.513 111.08 132.734C111.289 133.11 111.702 133.815 112.165 134.595C113.146 136.249 113.004 137.967 112.912 139.641C112.82 140.21 112.635 140.21 112.418 140.302C112.2 140.394 111.955 140.578 111.702 140.768" stroke="#FAB9B4" stroke-width="3" stroke-linecap="round"/>
<path d="M117.468 136.304C117.468 137.108 117.1 137.974 116.695 138.996C116.043 140.643 115.24 141.259 114.34 141.975C114.154 142.124 113.938 142.07 114.364 141.548C116.962 138.373 118.58 137.859 119.48 137.02C119.705 136.81 119.882 136.557 120.1 136.43C120.318 136.304 120.563 136.304 120.69 136.611C121.375 138.275 120.258 139.276 119.549 140.084C118.958 140.755 118.028 140.768 117.749 140.891C117.607 140.953 117.654 141.259 117.531 141.386C117.408 141.512 117.163 141.512 117.036 141.297C116.391 140.201 117.468 139.407 117.683 138.942C118.296 137.619 120.373 137.859 121.402 137.143C121.597 137.007 121.865 137.048 121.992 137.232C122.118 137.416 122.118 137.785 122.026 138.097C121.934 138.41 121.75 138.655 121.532 138.782C121.117 139.023 120.816 139.276 120.353 139.589C120.258 139.712 120.258 139.957 120.135 140.084C120.013 140.21 119.767 140.21 119.514 140.21" stroke="#FAB9B4" stroke-width="3" stroke-linecap="round"/>
<path d="M111.144 143.372C111.886 144.116 112.26 144.485 112.969 145.292C113.248 145.609 113.562 145.787 114.765 147.057C115.697 148.041 117.094 148.022 117.373 148.115C117.651 148.206 117.959 148.581 118.798 149.29C119.64 150.002 119.698 150.627 119.977 150.719C120.726 150.966 120.816 152.113 120.908 152.392C121 152.669 121.804 152.916 122.578 153.567C122.891 153.831 123.167 153.789 123.294 153.267C123.664 151.741 123.236 150.442 122.834 150.163C122.639 150.028 122.371 150.069 122.245 149.946C122.118 149.823 122.118 149.578 121.903 149.451C120.776 148.787 119.767 148.767 118.836 148.149C117.619 147.341 116.542 147.464 115.642 146.847C115.434 146.704 115.24 146.72 115.145 146.628C115.05 146.536 115.05 146.352 114.927 146.257C114.804 146.162 114.559 146.162 114.432 146.04C114.306 145.917 114.306 145.671 114.214 145.545C114.122 145.418 113.938 145.418 113.843 145.326C113.748 145.234 113.748 145.05 113.932 144.955C114.982 144.414 115.976 145.418 116.876 145.882C117.68 146.296 119.071 146.72 120.1 147.184C120.317 147.281 120.563 147.278 120.69 147.401C120.816 147.524 120.816 147.77 120.908 147.896C121.087 148.142 121.374 148.391 121.992 149.29C122.135 149.498 122.118 149.693 122.026 149.91C121.579 150.967 120.448 151.185 119.426 151.802C119.114 151.99 118.655 151.929 118.127 151.622C115.942 150.352 116.106 149.325 115.734 149.232C115.608 149.14 115.608 148.956 115.516 148.861C115.424 148.767 115.24 148.767 115.05 148.767" stroke="#FAB9B4" stroke-width="3" stroke-linecap="round"/>
<path d="M111.702 145.418C111.702 147.511 111.333 150.995 111.021 153.469C110.818 155.074 110.031 155.835 109.719 156.916C109.6 157.328 109.098 157.321 109.006 157.6C108.964 157.726 108.729 157.695 108.512 157.603C108.015 157.393 107.796 155.664 107.888 153.309C107.964 151.366 109.466 150.258 109.778 149.359C110.107 148.415 110.958 148.276 111.575 147.651C112.179 147.041 112.26 153.621 111.797 155.927C111.739 156.213 111.333 156.393 110.929 157.01C110.792 157.219 110.284 157.137 109.94 157.045C107.456 156.38 109.282 150.627 109.561 150.535C109.656 150.258 109.656 151.296 109.656 153.064C109.656 153.605 109.656 153.42 109.656 153.231" stroke="#FAB9B4" stroke-width="3" stroke-linecap="round"/>
<path d="M107.796 144.86C107.427 144.86 104.23 144.86 99.6726 144.952C98.1208 144.984 98.1232 145.229 98.0004 145.538C97.8777 145.848 97.6321 146.278 97.5056 146.714C97.3792 147.15 97.3792 147.58 98.1157 147.801C100.243 148.44 102.089 147.838 102.553 147.437C103.483 146.632 104.074 146.162 104.353 146.04C104.495 145.977 104.447 145.671 104.57 145.545C104.693 145.418 104.938 145.418 104.973 145.418C105.586 145.418 100.452 145.976 98.218 146.686C97.8237 146.811 100.885 147.278 105.163 147.186C106.862 146.91 107.911 146.72 109.336 146.628C109.901 146.536 110.147 146.352 110.4 146.162" stroke="#FAB9B4" stroke-width="3" stroke-linecap="round"/>
<path d="M270.366 187.642C269.808 189.004 269.317 189.87 268.972 191.141C268.762 191.913 268.015 193.155 267.854 196.156C267.818 196.821 268.13 197.062 268.44 197.188C268.75 197.314 269.179 197.314 269.401 197.222C270.01 196.969 270.366 196.265 270.829 195.334C271.483 194.02 271.668 192.365 271.576 190.661C271.54 189.995 271.3 189.755 271.205 190.58C270.893 193.292 271.294 195.514 271.573 195.978C272.124 196.894 271.484 191.303 271.082 191.023C270.901 190.897 270.619 191.173 270.493 191.482C269.781 193.226 269.808 195.57 269.808 196.35C269.808 195.227 269.992 193.907 270.271 193.32C270.366 192.979 270.366 192.549 270.366 192.106" stroke="#FAB9B4" stroke-width="3" stroke-linecap="round"/>
<path d="M272.226 188.2C273.958 188.384 275.321 188.758 276.16 189.376C276.927 189.94 277.925 190.06 278.764 190.678C279.531 191.242 280.529 191.362 281.368 191.98C282.135 192.544 283.318 192.664 284.341 192.787C284.707 192.831 284.689 193.155 284.903 193.282C285.118 193.408 285.548 193.408 285.769 193.194C285.991 192.979 285.991 192.549 285.899 192.328C285.661 191.757 284.942 191.548 284.474 190.931C283.683 189.888 282.583 190.246 282.211 190.123C282.044 190.068 282.084 189.755 281.87 189.629C280.742 188.965 279.365 188.944 278.09 188.327C276.962 187.781 276.262 187.642 275.332 187.519C274.502 187.41 273.904 186.53 273.591 185.723C273.528 185.558 273.223 185.596 273.097 185.289C272.97 184.982 272.97 184.368 273.062 183.929C273.154 183.49 273.338 183.245 275.275 183.118C277.211 182.992 280.894 182.992 282.791 182.685C284.873 182.348 284.873 181.132 285.152 181.009C287.062 180.169 278.922 180.756 277.224 181.069C275.833 181.69 273.714 181.874 273.162 182.153C272.609 182.248 271.504 182.248 270.366 182.248" stroke="#FAB9B4" stroke-width="3" stroke-linecap="round"/>
<path d="M270.366 181.69C270.366 180.886 270.734 180.388 270.74 173.44C270.741 171.914 269.808 171.772 269.378 171.4C267.534 169.803 266.092 170.224 265.192 169.508C265.006 169.36 264.79 169.413 264.695 169.597C264.154 170.647 265.158 171.457 265.25 171.736C265.291 171.862 265.526 171.831 265.621 171.954C265.716 172.077 265.716 172.322 265.839 172.449C265.961 172.575 266.207 172.575 266.333 172.667C266.961 173.124 267.018 174.246 267.635 175.36C268.581 177.066 268.32 178.643 268.938 179.393C269.149 179.649 269.064 180.313 269.064 180.23C269.064 178.273 268.506 176.065 268.506 173.768C268.69 174.681 269.064 176.039 269.527 177.16C269.622 177.469 269.622 177.899 269.622 178.342" stroke="#FAB9B4" stroke-width="3" stroke-linecap="round"/>
<path d="M268.506 185.038C268.506 184.792 268.506 184.547 268.383 184.42C268.112 184.141 267.762 184.11 266.166 183.831C261.449 183.006 258.09 183.92 257.752 184.199C256.968 184.847 256.044 184.662 255.58 184.975C255.452 185.062 255.486 185.343 255.578 185.47C255.756 185.715 256.044 185.78 256.473 186.059C258.832 185.97 260.924 185.596 262.949 185.133C263.597 185.038 264.641 185.038 265.716 185.038" stroke="#FAB9B4" stroke-width="3" stroke-linecap="round"/>
<path d="M268.32 173.877C268.32 173.509 268.32 172.89 268.32 172.331C268.566 173.189 269.432 174.927 269.745 175.643C269.868 175.738 270.113 175.738 270.366 175.738" stroke="#FAB9B4" stroke-width="3" stroke-linecap="round"/>
<path d="M279.48 158.253C279.112 158.253 278.677 158.437 278.305 158.839C278.134 159.023 278.178 159.302 278.393 159.428C278.608 159.555 279.038 159.555 279.351 159.463C279.897 159.302 280.038 158.506 280.656 157.667C280.805 157.464 280.782 157.204 280.782 157.292C280.782 157.81 280.598 158.437 280.319 158.839C280.224 159.056 280.224 159.302 280.224 159.555" stroke="#FAB9B4" stroke-width="3" stroke-linecap="round"/>
<path d="M277.62 155.091C276.073 154.845 274.285 154.347 272.332 154.562C271.639 154.638 271.668 155.206 272.62 155.428C273.571 155.649 275.474 155.649 276.454 155.434C277.68 154.347 278.178 154.163 278.271 153.884C278.363 153.789 278.547 153.789 278.737 153.789" stroke="#FAB9B4" stroke-width="3" stroke-linecap="round"/>
<path d="M279.481 153.045C279.481 151.627 279.112 149.882 279.015 148.184C278.989 147.741 279.665 147.652 280.159 147.373C280.441 147.214 280.898 147.278 281.119 147.892C281.341 148.506 281.341 149.734 281.341 150.059C281.341 151.422 280.783 146.977 280.319 146.319C280.184 146.127 280.225 145.675 280.225 145.668C280.409 146.964 280.783 149.555 281.246 151.118C281.341 151.428 281.341 151.858 281.341 152.301" stroke="#FAB9B4" stroke-width="3" stroke-linecap="round"/>
<path d="M280.782 144.674V149.138" stroke="#FAB9B4" stroke-width="3" stroke-linecap="round"/>
<path d="M284.689 151.743C285.118 150.939 286.359 150.072 287.258 149.76C288.244 149.418 288.595 148.954 288.81 148.675C288.953 148.489 289.454 148.581 289.768 148.458C290.081 148.335 290.265 148.09 290.36 147.871C290.455 147.652 290.455 147.468 290.363 147.373C289.852 146.847 288.664 146.535 287.641 146.627C286.936 146.69 286.735 147.584 286.117 148.423C285.991 148.64 285.991 148.886 285.899 149.012C285.807 149.139 285.622 149.139 285.433 149.139" stroke="#FAB9B4" stroke-width="3" stroke-linecap="round"/>
<path d="M282.084 155.649C283.932 155.649 286.549 156.017 288.339 156.33C288.789 156.408 288.963 156.698 289.273 156.824C289.582 156.951 290.012 156.951 290.233 156.736C290.455 156.521 290.455 156.091 290.363 155.87C289.713 155.465 288.664 155.091 287.641 154.968C287.293 154.845 287.293 154.6 287.293 154.347" stroke="#FAB9B4" stroke-width="3" stroke-linecap="round"/>
<path d="M276.318 150.441C276.318 148.164 276.502 144.429 276.873 143.965C277.834 142.763 280.038 143.741 281.737 144.145C282.268 145.232 282.642 146.46 283.26 147.522C283.386 147.952 283.386 148.811 283.386 149.697" stroke="#FAB9B4" stroke-width="3" stroke-linecap="round"/>
<path d="M276.876 151.743C276.073 151.743 275.574 151.374 271.869 151.277C270.762 151.247 270.366 152.111 269.903 152.515C268.867 153.42 269.064 154.776 269.156 155.427C269.243 156.039 269.868 156.207 270.24 156.329C270.609 156.452 270.734 156.951 271.139 157.414C272.044 158.45 273.584 158.253 274.637 158.161C275.084 158.122 275.321 157.885 275.448 157.667C275.574 157.449 275.574 157.204 275.666 157.077C275.758 156.951 275.943 156.951 276.037 156.859C276.132 156.767 276.132 156.582 276.132 156.393" stroke="#FAB9B4" stroke-width="3" stroke-linecap="round"/>
<path d="M276.132 158.253C276.132 158.621 276.132 159.916 276.255 161.59C276.305 162.266 276.876 162.343 277.091 162.622C277.894 163.665 281.314 163.461 282.765 162.998C282.913 162.951 283.134 162.903 283.26 162.688C283.387 162.044 283.571 161.601 283.85 160.956C283.945 160.312 283.945 159.023 283.945 157.695" stroke="#FAB9B4" stroke-width="3" stroke-linecap="round"/>
<path d="M108.354 141.698C107.863 141.698 104.172 141.698 98.9639 141.79C97.172 141.822 97.009 142.256 96.73 142.379C96.0816 142.664 95.8911 144.228 95.4279 145.785C95.3331 146.218 95.3331 146.832 95.5172 147.148C95.7014 147.464 96.0697 147.464 96.4491 147.464" stroke="#FAB9B4" stroke-width="3" stroke-linecap="round"/>
<path d="M131.791 170.901C130.617 170.901 129.376 171.392 128.569 171.738C128.29 171.857 128.074 172.203 127.267 172.913C126.95 173.192 126.956 173.751 126.677 174.338C126.525 174.658 126.582 175.109 126.889 175.33C128.299 176.347 129.43 174.994 130.081 174.871C130.845 174.727 131.047 173.881 131.51 172.982C131.619 172.77 131.605 172.579 131.727 172.484C131.85 172.389 132.096 172.389 132.222 172.267C132.349 172.144 132.349 171.898 132.349 171.987C132.349 173.146 132.907 174.365 133.616 175.425C133.851 175.776 134.209 175.736 134.546 176.015C134.817 176.238 135.559 176.11 135.907 175.803C136.255 175.496 136.255 174.882 136.163 174.474C136.019 173.836 135.697 173.446 135.574 173.074C135.452 172.704 134.953 172.579 134.49 172.267C134.361 172.18 134.395 171.898 134.18 171.772C133.614 171.439 133.093 171.461 132.878 171.182C132.004 170.047 139.662 170.842 140.034 170.255C140.229 169.948 140.161 169.484 140.069 169.263C139.754 168.507 136.956 168.483 134.073 168.667C132.95 168.739 132.847 169.599 132.475 169.722C132.308 169.777 132.349 170.09 132.349 170.125C132.349 170.738 132.907 168.857 133.029 168.578C133.092 168.436 133.398 168.483 133.524 168.268C134.098 167.294 134.209 166.076 134.025 164.402C133.959 163.808 133.472 163.833 133.282 163.925C132.709 164.204 132.349 168.688 131.763 170.809C131.505 171.742 130.862 169.785 130.583 169.663C130.441 169.6 130.489 169.294 130.366 169.168C130.243 169.041 129.997 169.041 129.871 168.949C129.625 168.77 129.376 168.483 128.477 167.866C127.74 167.36 126.527 167.181 125.597 167.365C125.238 167.436 125.28 167.918 125.372 168.108C125.464 168.297 125.649 168.297 125.744 168.42C125.838 168.543 125.838 168.788 125.93 169.007C126.347 169.997 127.698 170.09 130.263 170.343C130.985 170.415 128.757 169.785 128.106 169.663C127.342 169.519 127.14 168.857 127.048 168.578C127.007 168.453 126.772 168.483 126.769 168.483C126.184 168.483 128.19 169.041 129.028 169.504C129.246 169.599 129.492 169.599 129.618 169.722C129.745 169.845 129.745 170.09 129.745 170.343" stroke="#FAB9B4" stroke-width="3" stroke-linecap="round"/>
<path d="M129.745 173.505C130.174 172.144 131.415 171.277 131.727 170.47C131.791 170.305 132.096 170.343 132.222 170.435C132.948 170.964 131.791 172.449 131.668 172.913C131.528 173.441 130.862 173.505 130.583 173.628C130.441 173.691 130.489 173.997 130.489 173.908C130.489 173.39 130.673 172.763 130.952 172.362C131.047 172.144 131.047 171.898 131.047 171.645" stroke="#FAB9B4" stroke-width="3" stroke-linecap="round"/>
<path d="M24.2783 12.9811C24.0328 12.9811 23.7873 12.9811 23.6608 13.1653C23.3399 13.6324 23.166 14.0972 22.3587 14.9296C20.986 16.345 20.3722 19.9676 21.2008 22.9437C21.5517 24.2036 23.6868 23.9556 24.6634 23.8635C25.6399 23.7714 25.8854 23.5873 26.104 23.3696C26.8677 22.6092 27.1875 21.6044 27.5325 20.1787C27.9681 18.3789 27.6302 15.775 27.3484 14.8756C27.2024 14.4096 26.8824 14.0377 26.7597 13.6656C26.7044 13.4983 26.3914 13.5392 26.2649 13.4471C26.1384 13.355 26.1384 13.1709 26.1384 13.1681C26.1384 13.1653 26.1384 13.3494 26.2305 13.5364C26.6308 14.3491 27.8087 14.5882 28.7081 15.4271C29.6075 16.2661 30.4129 16.7013 31.3122 17.3188C31.8636 17.6975 34.9738 18.0033 36.6469 17.5402C38.2234 17.1038 36.7445 12.4901 36.4627 11.7739C36.4143 11.6509 36.1865 11.6791 36.0917 11.5563C35.9968 11.4336 35.9968 11.188 35.874 11.0615C35.3903 10.5631 31.4471 10.377 28.7769 10.8402C27.939 11.1192 27.2563 11.7386 26.8545 12.1106C26.6369 12.2371 26.3914 12.2371 26.1384 12.2371" stroke="#FAB9B4" stroke-width="3" stroke-linecap="round"/>
<path d="M26.6964 12.2372C27.1261 11.6792 28.4895 11.1881 29.2057 10.8431C29.4688 10.7163 29.7916 10.3771 30.6305 9.66752C31.5695 8.87321 31.9046 7.96276 32.5222 7.12852C34.4631 4.50657 32.0906 3.62135 31.9679 3.24933C31.7502 2.58973 27.9092 2.56483 25.5525 3.12006C24.3628 3.40034 24.4681 5.47398 24.1556 6.89973C24.0328 7.21315 23.7873 7.3973 23.6608 8.35152C23.5343 9.30573 23.5343 11.0244 23.5343 12.7952" stroke="#FAB9B4" stroke-width="3" stroke-linecap="round"/>
<path d="M23.5342 12.7952C23.5342 11.2494 23.1659 9.88601 22.8534 9.04712C22.341 7.67155 21.8639 5.97986 21.5514 5.14096C21.1752 4.13102 20.3721 4.24069 20.2493 3.83891C20.0764 3.273 18.5846 3.12278 16.8807 3.21486C16.215 3.25083 15.9749 3.49108 15.8484 3.70871C15.3698 4.5321 15.1639 7.19262 15.627 8.91691C15.6886 9.14619 15.7219 9.38007 15.814 9.50656C16.2709 10.1342 17.2081 10.1911 17.4871 10.3138C17.6291 10.3763 17.582 10.6821 17.7968 10.8086C19.1296 11.1192 20.4874 11.4931 21.7895 11.6159C22.2322 11.7386 22.2322 11.9842 22.2322 12.2371" stroke="#FAB9B4" stroke-width="3" stroke-linecap="round"/>
<path d="M20.3721 11.6792C18.1549 11.6792 14.6728 12.0475 13.8339 12.3293C12.7462 12.6947 12.0687 13.9076 11.2298 14.7148C11.0485 14.8894 10.7667 14.8413 10.6402 15.3631C10.5137 15.8848 10.5137 16.9283 10.6058 17.4659C10.6979 18.0034 10.882 18.0034 11.0996 18.1262C13.2883 19.3608 17.3923 18.3792 18.1995 18.0667C18.3639 18.0031 18.326 17.6984 18.4181 17.5719C18.875 16.9443 19.9964 16.3963 20.8957 15.5575C21.1143 15.3398 21.2984 15.0943 21.3933 14.8757C21.4882 14.6572 21.4882 14.473 21.4882 14.2833" stroke="#FAB9B4" stroke-width="3" stroke-linecap="round"/>
<path d="M25.3943 13.5391C25.2102 14.3426 24.8363 15.2094 24.3731 16.2315C23.7793 17.542 23.5342 18.4943 23.0711 19.548C22.8929 19.9534 22.9762 20.6557 23.1604 21.0035C23.3445 21.3514 23.7128 21.3514 24.0253 21.2593C24.3378 21.1672 24.5833 20.9831 24.7098 20.6734C25.2622 19.3208 25.3943 18.379 26.0119 17.3569C26.2001 17.0453 26.1384 16.5859 26.0463 16.4566C25.8829 16.2272 25.5803 17.5605 24.9628 19.4215C24.7823 19.9655 24.8363 20.6557 24.8363 20.9115C24.8363 21.1672 24.8363 20.9831 24.9284 20.7654C25.0204 20.5478 25.2046 20.3023 25.3943 20.0493" stroke="#FAB9B4" stroke-width="3" stroke-linecap="round"/>
<path d="M26.1384 12.2371C27.5558 12.2371 30.651 12.6054 33.6001 12.9178C35.292 13.0971 36.9231 13.9074 37.7304 14.2199C38.0936 14.3605 38.041 15.0253 38.3201 15.4271C38.4555 15.6221 38.4149 15.8902 37.8932 16.0167C35.1476 16.6823 33.8354 15.5852 32.4683 14.9676C32.0568 14.7818 31.421 14.8412 31.1048 14.7491C30.7886 14.657 30.7886 14.4729 30.9728 14.378C32.0225 13.8372 33.508 14.8412 34.5367 15.3043C34.7543 15.3992 34.9998 15.3992 35.1263 15.3071C35.2528 15.215 35.2528 15.0309 35.2528 14.8412" stroke="#FAB9B4" stroke-width="3" stroke-linecap="round"/>
<path d="M32.0906 11.6791C33.3182 10.9351 36.3018 11.3034 37.0179 11.6158C37.1601 11.6779 37.1128 11.9841 37.2355 12.1106C37.5068 12.3901 37.8568 12.6054 38.32 12.9179C38.6352 13.1306 38.6604 13.5392 39.0324 14.0609C39.944 15.3395 38.9747 16.7013 38.6957 16.8241C38.6008 16.9468 38.6008 17.1923 37.9563 17.3188C37.3118 17.4453 36.0228 17.4453 34.6947 17.4453" stroke="#FAB9B4" stroke-width="3" stroke-linecap="round"/>
<path d="M26.1384 12.2372C26.1384 11.8689 26.3225 11.4336 26.8164 11.0616C27.9833 10.1825 29.1721 10.3771 29.9152 10.2543C30.9599 10.0817 30.8481 9.07504 31.2201 8.95228C31.5899 8.83025 31.7149 8.33101 32.0273 7.86786C32.1141 7.73924 32.3956 7.77299 32.5221 7.43539C32.6486 7.09778 32.6486 6.42258 31.912 6.07474C31.1754 5.72691 29.7023 5.72691 28.9433 5.81898C27.7214 5.96723 27.4404 7.39726 26.9772 8.63421C26.7794 9.16258 26.8824 10.0497 27.1893 10.4924C27.4962 10.9351 28.11 10.9351 28.5183 10.843C29.8481 10.5432 30.0445 8.58398 30.5077 7.53025C30.6858 7.12493 30.6025 6.42258 30.2956 6.07474C29.9887 5.72691 29.3749 5.72691 28.629 6.15659C27.8831 6.58626 27.0238 7.44562 26.5811 8.19523C26.1384 8.94484 26.1384 9.55866 26.2304 9.87487C26.3225 10.1911 26.5067 10.1911 26.7243 10.099C27.2209 9.88889 27.6246 9.44892 27.9036 8.8323C28.8249 6.79624 27.4404 5.54276 27.3483 5.26375C27.3069 5.13821 27.0721 5.16889 26.9772 5.26096C26.4507 5.77205 26.1384 6.77599 25.6752 7.82972C25.497 8.23505 25.5803 8.9374 25.6724 9.19316C25.7645 9.44892 25.9486 9.26477 26.0435 8.95507C26.1384 8.64537 26.1384 8.21569 26.1384 7.77299" stroke="#FAB9B4" stroke-width="3" stroke-linecap="round"/>
<path d="M24.8363 11.4931C24.0328 11.309 22.3066 9.70746 21.5514 8.36542C20.9815 7.35251 19.8811 6.66066 19.165 6.34817C18.3636 5.99846 18.1419 5.16888 17.8629 5.04612C17.7209 4.98363 17.7681 4.67782 17.6453 4.55134C17.5225 4.42485 17.277 4.42485 17.1505 5.06937C16.7774 6.97078 17.2082 8.51515 17.6099 8.79416C18.4005 9.34316 19.7435 9.63306 21.0455 9.54098C21.4965 9.50909 21.4882 9.26476 21.3961 9.04713C20.746 8.33101 19.8811 7.96271 19.257 7.77298C19.2543 7.77298 19.4384 7.77298 19.6281 7.77298" stroke="#FAB9B4" stroke-width="3" stroke-linecap="round"/>
<path d="M22.7903 8.88888C22.7903 7.47151 22.422 5.72676 22.1402 5.14084C21.7008 4.22729 21.1832 3.86669 20.5005 3.24914C18.7363 1.6532 16.9087 2.56463 15.9136 1.94709C15.432 1.64826 14.2562 1.8206 13.595 1.91268C12.9337 2.00475 12.7496 2.1889 12.6547 3.26588C12.3877 6.29685 12.744 8.33086 13.1151 8.42294C14.019 8.64721 14.7882 9.37994 18.7455 9.63291C19.4426 9.67747 19.2598 9.63291 19.0422 9.54084C18.1086 9.14586 17.277 8.58383 15.8513 8.23879C14.8378 7.99352 14.0516 7.28178 13.2444 6.13597C12.444 4.99995 13.302 3.62116 13.7038 3.24914C13.8885 3.07812 14.167 3.12266 14.3855 3.21473C14.978 3.92621 15.469 4.793 16.3079 5.69235C16.5255 5.91091 16.7711 6.09505 17.024 6.28478" stroke="#FAB9B4" stroke-width="3" stroke-linecap="round"/>
<path d="M21.4882 13.5393C19.2114 13.5393 14.8626 14.3986 13.9567 14.9334C13.2775 15.3344 12.9337 16.1434 12.6547 16.3582C12.4686 16.5015 12.5598 17.0027 13.2964 17.2241C15.4233 17.8632 17.4537 17.2613 18.1968 16.8595C18.7947 16.5362 19.1296 16.1434 19.5016 15.8365C20.2185 15.245 19.8122 14.2833 19.9992 14.2833C20.5841 14.2833 18.2107 14.8413 17.0584 15.3045C16.2192 15.6418 15.5378 16.1434 15.4429 16.1434C14.3448 16.1434 19.111 14.726 21.3896 13.5737C21.7337 13.3551 21.9792 13.171 22.1978 12.8613C22.4163 12.5516 22.6005 12.1219 22.7902 11.6792" stroke="#FAB9B4" stroke-width="3" stroke-linecap="round"/>
<path d="M26.6964 5.16895H30.6026" stroke="#FAB9B4" stroke-width="3" stroke-linecap="round"/>
<path d="M25.5803 5.16875C25.0893 4.67769 24.8363 3.8109 24.9284 2.88086C24.9697 2.46304 25.3943 2.31912 26.5913 1.9471C30.0225 0.880686 32.6486 2.00477 32.7407 2.40654C32.9671 3.39464 33.6977 3.68069 33.8586 7.63242C33.8947 8.51908 33.5823 8.69917 33.3647 8.79403C32.4824 9.17863 31.6609 9.63293 31.0099 9.725C30.7885 9.81707 30.7885 10.0012 30.6658 10.0961C30.543 10.191 30.2975 10.1909 30.0445 10.1909" stroke="#FAB9B4" stroke-width="3" stroke-linecap="round"/>
<path d="M22.2322 18.7474C21.8639 19.1157 21.4286 19.5509 21.0566 20.4447C20.8028 21.0544 20.9301 22.1364 21.145 22.674C21.6422 23.9182 22.6005 23.9556 24.0522 24.4187C26.0169 25.0455 27.4404 24.3294 27.5324 24.0504C27.8087 23.9556 27.9984 22.7279 28.6159 20.8334C28.7424 20.0624 28.7424 18.7734 28.7424 17.4453" stroke="#FAB9B4" stroke-width="3" stroke-linecap="round"/>
<path d="M9.76968 33.6279C9.76968 33.2596 9.76968 31.5967 10.1994 29.3646C10.3642 28.5082 11.4884 28.6057 11.9311 28.6978C12.858 28.8906 13.302 29.7218 13.581 30.2742C14.842 32.771 13.1178 33.254 13.0257 33.5331C12.9342 33.8104 12.5598 33.8734 12.1301 34.2455C11.7915 34.5386 10.8411 34.3719 10.5825 34.3719C9.82507 34.3719 12.1841 34.93 13.2982 35.5475C14.7922 36.3756 15.2234 36.232 15.5954 36.6617C15.8886 37.0003 15.7219 37.9507 15.415 38.3934C15.1081 38.8361 14.4943 38.8361 14.1781 38.7441C13.4773 38.54 12.7495 37.9098 11.9422 37.5052C11.355 37.211 11.4475 36.418 11.135 35.8005C11.0554 35.6432 10.7667 35.674 10.6402 35.5819C9.67157 34.8768 10.1454 40.6292 9.24607 41.4681C9.02052 41.6785 8.84336 41.9313 8.53366 42.0578C8.22395 42.1843 7.79428 42.1843 7.57293 41.5397C6.45363 38.2806 7.9096 37.229 8.37276 36.3901C8.48751 36.1823 8.46762 35.927 8.59039 35.8005C8.71315 35.674 8.95868 35.674 8.87033 35.8888C8.55582 36.6536 7.72546 36.9761 7.44644 37.0681C7.1691 37.1596 5.38734 37.5341 2.41122 37.442C1.39565 37.4106 1.39934 37.1658 1.61418 36.8561C2.60366 35.4297 3.25942 35.3057 6.03837 34.9932C6.71207 34.9175 7.46691 34.3719 8.33928 34.3719C9.18561 34.3719 6.4234 34.1878 6.14439 33.786C5.5954 32.9955 5.3055 32.0208 4.84234 30.9671C4.66418 30.5618 4.74748 29.8594 5.14646 29.5116C5.54545 29.1637 6.34342 29.1637 6.87726 29.2558C7.4111 29.3479 7.65663 29.532 7.78312 29.8417C8.33551 31.1943 8.46762 32.1975 8.59039 32.8485C8.63729 33.0973 8.95868 33.0699 9.08517 33.162C9.21165 33.254 9.21165 33.4382 9.21165 33.441C9.21165 34.026 8.16257 31.6525 7.44644 31.0871C7.32468 30.9909 7.35158 30.7188 7.44365 30.6844C8.14421 30.4225 8.2779 31.7678 8.59039 32.231C8.8031 32.5463 9.21165 32.5714 9.51857 32.9434C9.72982 33.1995 10.4393 33.0699 10.8783 32.9778C11.3173 32.8858 11.5628 32.7016 11.6893 32.484C11.8158 32.2663 11.8158 32.0208 11.9078 31.8023C11.9999 31.5837 12.1841 31.3996 12.2789 31.4888C12.1896 32.5714 11.8158 33.254 11.8158 33.3489C11.8158 33.2596 11.8158 32.8913 11.8158 32.5119" stroke="#FAB9B4" stroke-width="3" stroke-linecap="round"/>
<path d="M303.103 169.041C303.103 168.113 302.919 167.739 302.64 167.309C302.4 166.94 302.545 166.02 302.637 165.578C302.729 165.135 302.914 165.135 303.008 165.319C303.265 165.818 303.287 166.251 303.566 166.681C303.806 167.05 303.661 167.97 302.71 168.413C301.758 168.855 299.856 168.855 298.875 169.07C297.895 169.285 297.895 169.715 297.987 169.936C298.123 170.263 298.453 170.403 298.791 170.775C299.939 172.041 301.113 170.343 302.043 170.435C302.371 170.468 302.359 170.712 302.267 170.806C302.175 170.901 301.991 170.901 301.896 171.331C301.801 171.761 301.801 172.62 302.016 172.848C302.231 173.076 302.661 172.646 302.882 171.995C303.103 171.344 303.103 170.485 303.195 170.042C303.287 169.599 303.472 169.599 303.689 169.691C304.619 170.085 304.774 170.901 305.086 171.364C305.482 171.952 306.137 172.203 306.788 172.295C307.025 172.329 307.009 172.572 307.101 172.667C307.194 172.761 307.378 172.761 307.38 172.669C307.39 172.339 307.009 172.019 306.917 171.74C306.876 171.615 306.641 171.645 306.546 171.523C306.314 171.222 305.96 170.901 305.493 170.438C305.326 170.273 304.848 170.343 304.627 170.221C304.405 170.098 304.405 169.852 304.497 169.634C304.914 168.644 306.265 168.55 307.319 168.297C307.608 168.228 305.733 168.297 305.929 168.297C307.843 168.297 309.613 168.481 309.521 168.883C309.429 169.101 309.245 169.346 308.383 169.473C307.521 169.599 305.986 169.599 304.405 169.599" stroke="#FAB9B4" stroke-width="3" stroke-linecap="round"/>
<path d="M302.545 171.459C302.054 171.459 301.801 171.95 301.338 172.418C301.173 172.585 301.243 173.063 301.12 173.284C300.998 173.505 300.752 173.505 300.626 173.598C300.499 173.69 300.499 173.874 300.806 173.969C301.113 174.063 301.727 174.063 302.043 173.971C302.605 173.505 303.103 172.646 303.566 171.989C303.661 171.774 303.661 171.344 303.661 170.901" stroke="#FAB9B4" stroke-width="3" stroke-linecap="round"/>
<path d="M302.545 167.739C302.545 167.248 302.545 166.811 302.423 166.532C302.36 166.39 302.054 166.437 301.928 166.099C301.801 165.762 301.801 165.087 302.231 164.739C302.661 164.391 303.52 164.391 304.055 164.483C304.59 164.575 304.774 164.759 304.869 165.284C304.963 166.668 304.779 167.799 304.5 168.263C304.405 168.481 304.405 168.665 304.405 168.855" stroke="#FAB9B4" stroke-width="3" stroke-linecap="round"/>
<path d="M305.708 172.947C305.892 173.69 306.757 174.064 307.316 174.681C307.539 174.927 308.237 174.808 308.553 174.378C309.954 172.475 308.312 171.4 308.22 171.028C308.182 170.876 307.943 170.901 307.848 170.809C307.754 170.717 307.754 170.533 307.631 170.315C307.508 170.098 307.263 169.852 307.01 169.599" stroke="#FAB9B4" stroke-width="3" stroke-linecap="round"/>
<path d="M300.499 172.204C300.315 172.204 300.131 172.204 299.913 172.296C299.696 172.388 299.45 172.572 299.324 173.004C299.197 173.437 299.197 174.112 299.412 174.46C300.048 175.49 300.929 175.366 301.58 175.274C302.191 175.187 302.359 174.623 302.482 174.344C302.635 173.996 303.103 173.759 303.566 173.291C303.732 173.124 303.661 172.646 303.784 172.425C303.907 172.204 304.152 172.204 304.279 172.111C304.405 172.019 304.405 171.835 304.405 171.646" stroke="#FAB9B4" stroke-width="3" stroke-linecap="round"/>
<path d="M251.021 51.2987C249.604 51.2987 247.859 51.7897 247.15 52.1348C246.317 52.5396 246.312 53.5289 245.94 53.9307C245.769 54.1154 245.813 54.3938 245.905 54.5203C246.084 54.7659 246.371 54.8309 246.586 55.1099C246.983 55.6261 247.673 54.8365 248.383 54.5547C249.243 54.213 249.466 53.3447 250.305 52.8816C250.513 52.7668 250.768 52.7867 250.987 52.664C251.463 52.3967 251.579 51.8585 251.702 51.5795C252.543 49.6695 252.692 57.8089 253.096 58.4265C253.233 58.635 253.741 58.5529 254.085 58.4609C256.347 57.8556 254.559 52.7867 254.247 52.0771C254.146 51.8477 253.878 51.6744 253.844 51.5795C253.81 51.4847 253.994 51.4847 254.089 51.5767C254.183 51.6688 254.183 51.853 254.306 51.9478C254.607 52.1804 254.928 52.411 255.606 52.8155C257.146 53.7351 257.532 54.1483 257.961 54.5203C258.3 54.8135 259.25 54.6468 259.693 54.2171C260.136 53.7874 260.136 52.9281 260.044 52.4854C259.952 52.0427 259.767 52.0427 259.673 51.9506C258.329 50.6465 254.369 51.2391 254.462 50.8671C254.499 50.7153 254.738 50.7406 254.833 50.6486C254.928 50.5565 254.928 50.3723 255.02 50.2775C255.112 50.1826 255.296 50.1826 255.391 50.0598C255.486 49.9371 255.486 49.6916 255.608 49.5651C255.88 49.2856 256.414 49.2544 256.693 48.8527C256.828 48.6577 256.788 48.3895 256.91 48.263C257.182 47.9836 257.532 47.7682 257.995 47.4557C258.31 47.243 258.335 46.8345 258.707 46.6196C258.923 46.495 258.834 45.9751 258.619 45.7538C258.404 45.5324 257.974 45.5324 257.661 45.6245C256.712 45.9033 256.728 46.8345 256.356 46.9266C255.812 47.0611 255.672 47.638 255.549 48.01C255.427 48.3798 254.928 48.5048 254.464 48.8173C254.336 48.9041 254.369 49.1856 254.247 49.3121C254.124 49.4386 253.878 49.4386 253.752 49.5307C253.625 49.6227 253.625 49.8069 253.625 49.8097C253.625 50.3946 253.067 48.4509 252.945 47.7999C252.801 47.0362 251.464 45.9751 250.558 45.4404C250.444 45.3731 250.463 45.1641 250.341 45.0693C250.218 44.9744 249.972 44.9744 249.846 45.3734C249.719 45.7724 249.719 46.5703 249.811 46.9814C249.92 47.4647 250.277 47.638 250.492 48.01C250.617 48.2259 251.137 48.1365 251.358 48.2286C252.144 48.5554 252.508 49.4386 252.48 49.4386C252.268 49.4386 251.654 49.4386 251.338 49.2237C250.348 48.5512 250.463 47.9524 250.341 47.6734C250.278 47.5314 249.972 47.5785 249.846 47.4557C249.719 47.333 249.719 47.0875 249.627 46.961C249.448 46.7153 249.161 46.4662 248.544 45.4441C248.355 45.1325 248.417 44.6731 248.847 44.4517C249.277 44.2304 250.136 44.2304 250.579 44.3225C251.09 44.4287 251.206 44.7884 251.485 44.9112C251.627 44.9736 251.579 45.2795 251.702 45.4059C251.825 45.5324 252.07 45.5324 252.197 45.6245C252.825 46.0814 252.881 47.0186 253.004 47.2976C253.067 47.4396 253.372 47.3925 253.499 47.5153C253.625 47.8836 253.994 48.1365 254.306 48.5997C254.429 48.6946 254.675 48.6946 254.928 48.6946" stroke="#FAB9B4" stroke-width="3" stroke-linecap="round"/>
<path d="M255.485 48.6945C255.485 48.3262 255.485 47.7068 255.608 47.0558C255.746 46.3267 256.598 46.2764 257.34 45.6589C257.776 45.2964 258.997 45.5324 259.566 45.6245C260.191 45.7255 260.32 46.3359 260.599 46.8C260.722 47.0042 260.694 47.2027 260.602 47.2976C260.091 47.8242 259.087 48.5048 258.37 48.8173C258.228 48.8793 258.276 49.1856 258.061 49.3121C257.416 49.4385 256.974 49.6227 256.329 49.9017C255.685 49.9966 254.395 49.9966 253.067 49.9966" stroke="#FAB9B4" stroke-width="3" stroke-linecap="round"/>
<path d="M42.9487 36.9751C42.8406 36.5394 42.6211 36.0317 42.3492 35.5392C42.0761 35.0446 41.8567 34.2867 41.5848 33.286C41.2675 32.1177 41.6373 31.297 41.8011 31.243C41.8748 31.2186 41.8567 31.0808 42.109 31.0251C42.3612 30.9694 42.8657 30.9694 43.1256 31.0235C43.6446 31.1314 43.8572 31.6246 44.0756 31.7507C44.7712 32.1525 44.4774 33.3302 44.8399 33.8964C45.7536 35.3234 44.5866 36.2435 44.5145 36.7895C44.4772 37.072 44.1498 37.1192 44.0237 37.2836C43.5534 37.8964 42.7696 36.796 42.2771 36.5935C41.9844 36.473 40.3433 36.3199 37.9962 36.374C37.0408 36.396 36.7989 36.7556 36.5805 36.9915C36.2007 37.4017 36.1787 38.7484 36.5046 39.7568C36.5749 39.9742 36.7224 40.2094 36.9043 40.3394C37.698 40.9067 39.876 40.7969 41.0722 40.4709C41.6433 40.3153 42.0729 39.8534 42.5468 39.361C42.6493 39.2545 42.6211 39.0891 42.6211 39.2671C42.6211 40.7432 41.8567 41.7381 41.5848 42.342C41.2968 42.9818 41.0924 44.7519 41.4363 45.7996C41.6616 46.4856 42.4726 46.5842 42.8013 46.856C42.9466 46.9762 43.3418 46.9117 43.5995 46.8577C43.8572 46.8036 44.0013 46.6955 44.0756 46.5137C44.2421 46.1061 44.2579 45.7117 44.4217 44.8452C45.1127 41.1899 44.1498 40.6178 43.8779 40.2515C43.1748 39.3041 46.5106 42.9786 47.531 43.7244C48.3001 44.2865 49.9971 44.2911 51.908 44.0388C52.599 43.9476 52.5577 43.2821 52.4316 42.8961C52.0615 41.7635 51.2889 41.3822 50.6851 40.8356C49.8883 40.1145 48.9958 39.7049 48.392 39.4331C47.8768 39.2011 47.2476 38.9406 47.4038 38.9406C51.1387 38.9406 51.5007 38.613 51.7191 38.5409C52.2004 38.3821 52.121 37.0919 52.0129 35.9454C51.9653 35.4406 51.4658 35.4114 51.1415 35.1931C49.6903 34.2158 48.8845 35.4464 48.1015 35.863C47.7295 36.0609 47.1395 36.7152 46.8076 37.3376C46.7 37.5393 46.3348 37.52 46.225 37.6297C45.9478 37.9069 47.0587 37.1957 47.8957 36.6677C48.589 36.2304 49.568 35.8832 50.4967 35.6113C51.4513 35.3318 52.121 35.6637 52.193 35.8275C52.2297 35.9108 52.4092 35.8832 52.4835 36.0633C52.5577 36.2435 52.5577 36.6038 52.5037 36.8615C52.4147 37.2856 50.7167 37.4119 48.2975 37.3578C46.4632 37.3168 45.4263 36.9402 44.9901 36.7218C44.8126 36.6329 44.698 36.6475 44.6423 36.8998C44.5866 37.152 44.5866 37.6565 44.3343 37.9163C43.2644 39.0187 40.2756 37.8486 39.164 38.1205C39.0756 38.1422 38.9478 38.1762 38.8195 38.2303C38.6912 38.2843 38.5831 38.3924 38.5274 38.6463C38.4717 38.9002 38.4717 39.2966 38.5258 39.5008C38.652 39.9775 41.4331 40.0325 42.6751 40.4491C44.2225 40.9681 42.9487 44.5106 43.0207 44.2927C43.2758 43.5217 43.6017 42.5462 43.7851 41.6743C44.0082 40.6138 44.366 39.8534 44.7296 39.4331C45.226 38.8592 46.2583 39.4855 46.7126 39.7033C47.5661 40.1126 48.1878 41.0852 49.0057 41.9221C49.5748 42.5046 50.1162 42.9786 50.2647 43.2002C50.6445 43.7672 50.1566 41.8899 49.8667 41.6541C49.0981 41.0288 48.5197 40.6178 47.9918 40.4152C47.4999 40.1417 46.991 39.8534 46.5171 39.5248C46.4429 39.3446 46.4429 38.9843 46.4429 38.613" stroke="#FAB9B4" stroke-width="3" stroke-linecap="round"/>
<path d="M40.7648 34.3546C40.3281 33.0181 40.4362 30.9696 40.5999 30.8975C41.7556 30.389 44.1498 30.749 44.7843 30.9325C45.2026 31.0534 45.2418 31.4053 45.3138 31.5691C45.3505 31.6524 45.53 31.6247 45.6043 31.6968C45.7867 32.0615 46.0061 32.7822 46.3687 33.8223C46.4429 34.2028 46.4429 34.8154 46.4429 35.4465" stroke="#FAB9B4" stroke-width="3" stroke-linecap="round"/>
<path d="M46.4429 35.4465C46.9146 35.4465 47.2072 35.2303 51.3577 35.173C52.2666 35.1604 52.4092 35.3352 52.5375 35.4629C52.7928 35.7171 53.0294 35.9914 53.2478 36.4074C53.627 37.1298 53.214 37.8837 52.9781 38.1021C52.7062 38.1764 52.5577 38.2845 52.0532 38.4483C51.5488 38.504 50.5398 38.504 49.5003 38.504" stroke="#FAB9B4" stroke-width="3" stroke-linecap="round"/>
</svg>
