<svg xmlns="http://www.w3.org/2000/svg" viewBox="0 0 390 844" role="img" aria-label="The Independent Explorer">
  <rect width="390" height="844" fill="#fff9f1"/>
  <text x="195" y="168" text-anchor="middle" fill="#5a86c4" font-family="Inter, Arial, sans-serif" font-size="16" font-weight="600">Your TAYO type is...</text>
  <g transform="translate(86 220)">
    <path d="M31 8 L35 8 L66 194 L62 194 Z" fill="#3d332e"/>
    <path d="M35 15 L174 15 L72 82 Z" fill="#ff3740"/>
    <circle cx="104" cy="46" r="15" fill="#fff9f1"/>
    <circle cx="98" cy="43" r="2" fill="#3d332e"/>
    <circle cx="110" cy="43" r="2" fill="#3d332e"/>
    <path d="M102 50h5m-2-2v6" stroke="#3d332e" stroke-width="2" stroke-linecap="round"/>
    <path d="M89 35c-7-15 10-24 19-10c9-14 28-5 18 11" fill="#fff9f1"/>
    <ellipse cx="98" cy="118" rx="60" ry="56" fill="#f6b2b0"/>
    <ellipse cx="73" cy="70" rx="19" ry="43" fill="#f6b2b0"/>
    <ellipse cx="126" cy="70" rx="19" ry="43" fill="#f6b2b0"/>
    <circle cx="78" cy="114" r="6" fill="#3d332e"/>
    <circle cx="119" cy="114" r="6" fill="#3d332e"/>
    <path d="M94 126h11m-6-4v15m-20-4c8 9 16 9 21 0m1 0c7 9 15 9 22 0" fill="none" stroke="#3d332e" stroke-width="6" stroke-linecap="round" stroke-linejoin="round"/>
  </g>
  <text x="195" y="506" text-anchor="middle" fill="#5a86c4" font-family="'Arial Narrow', Impact, sans-serif" font-size="48" font-weight="900">THE INDEPENDENT</text>
  <text x="195" y="562" text-anchor="middle" fill="#5a86c4" font-family="'Arial Narrow', Impact, sans-serif" font-size="48" font-weight="900">EXPLORER</text>
  <text x="195" y="610" text-anchor="middle" fill="#5a86c4" font-family="Inter, Arial, sans-serif" font-size="15" font-weight="700">
    <tspan x="195">Preferred Environment: Low-stimulation</tspan>
    <tspan x="195" dy="19">spaces, small-scale groups, and independent,</tspan>
    <tspan x="195" dy="19">self-paced, or focused activities.</tspan>
  </text>
</svg>
