<svg width="134" height="174" viewBox="0 0 134 174" fill="none" xmlns="http://www.w3.org/2000/svg">
<path d="M0.565308 2.41221L34.8041 172.742L37.5653 169.959L3.87874 0.74231L0.565308 2.41221Z" fill="#403631" stroke="#403631"/>
<path d="M19.997 77.7423L5.56531 5.74231H131.565L19.997 77.7423Z" fill="#F03535" stroke="#F03535"/>
<path d="M42.2833 31.1138C42.2794 31.1419 41.8947 32.0029 41.2912 33.3823C40.9809 34.0918 40.9809 34.7838 41.0608 35.7546C41.2027 37.4806 41.8699 38.043 42.5686 38.7395C42.8813 39.0512 43.4762 39.4245 44.2246 39.8459C44.973 40.2672 45.8904 40.6875 46.5412 40.9535C47.192 41.2195 47.5484 41.3184 48.3956 41.3826C49.2429 41.4468 50.5702 41.4733 51.7722 41.3831C52.9743 41.293 54.0109 41.0853 55.0379 40.7359C56.065 40.3865 57.051 39.9017 57.8481 39.455C58.6451 39.0084 59.2233 38.6145 59.7739 38.1771C60.8638 37.3115 61.5253 36.5862 61.9094 36.0929C62.4044 35.4571 62.8633 34.4107 63.3045 33.1923C63.7016 32.0955 63.7044 30.9919 63.6639 30.1046C63.6376 29.5292 63.1533 28.4901 62.4887 27.0772C62.0648 26.1759 61.5889 25.7059 61.1327 25.2976C60.6256 24.8438 59.3456 24.4034 57.8731 23.9214C57.3218 23.7409 57.1617 23.7108 56.1411 23.6709C55.1206 23.631 53.2427 23.5873 52.0523 23.599C50.8619 23.6106 50.4158 23.6789 49.7868 23.8444C49.1579 24.01 48.3596 24.2706 47.2921 24.8427C46.2247 25.4149 44.9123 26.2905 44.1486 26.8252C43.1884 27.4974 42.8789 27.8933 42.4919 28.4524C41.8927 29.3182 41.5502 30.0418 41.3915 30.5403C41.0053 32.3566 40.9895 33.3171 40.9941 33.7791C41.0066 34.0055 41.0397 34.2155 41.082 34.5779" stroke="#FDF8F1" stroke-width="2" stroke-linecap="round"/>
<path d="M45.1465 30.6242C45.0492 30.6212 44.6092 30.5567 41.9841 29.4375C41.2416 29.1209 40.4993 28.3885 39.5405 27.4411C39.0827 26.9888 38.9847 26.721 38.9173 26.3187C38.8001 25.6188 38.9086 25.0269 38.9985 24.7711C39.1603 24.3108 39.7732 23.9012 40.4632 23.4368C41.1275 22.9897 42.2338 22.8214 44.2648 22.7496C44.8131 22.7302 45.0476 22.9086 45.3935 23.1703C46.1137 23.715 46.9182 24.7043 47.552 25.6162C48.0324 26.3073 48.0293 27.5443 47.8664 28.3667C47.7919 28.7425 47.4048 28.9698 47.0937 29.2003C46.6017 29.5649 45.1966 29.7788 44.5982 29.8827C44.5163 29.9007 44.4376 29.9261 44.3321 29.9542C44.2265 29.9824 44.0964 30.0125 43.8338 30.0436" stroke="#FDF8F1" stroke-width="2" stroke-linecap="round"/>
<path d="M54.1312 27.2234C54.1312 27.2203 54.1312 27.2172 54.1341 26.3131C54.137 25.409 54.1429 23.6041 54.1614 22.5623C54.1915 20.8645 54.6808 19.8881 55.2306 18.9279C55.5708 18.3337 56.1167 18.0168 56.9317 17.6373C57.604 17.3241 58.4028 17.3799 59.0476 17.4475C59.4578 17.4905 59.6983 17.9546 59.9131 18.4626C60.3453 19.4843 60.1057 20.3751 59.9113 20.9692C59.6182 21.8648 59.1042 22.6258 58.6221 23.2713C57.2306 25.1345 56.2044 25.567 55.6786 25.9073C55.2861 26.1613 54.5934 26.1221 54.094 25.9754C53.6938 25.8579 53.329 25.4765 53.0157 25.1931C52.6819 24.8912 52.6446 24.3717 52.6279 23.2878C52.6193 22.7313 53.3562 21.8046 54.0936 20.5191C54.4699 19.8631 54.8431 19.57 55.5366 19.0488C56.2746 18.494 57.2413 18.5067 58.0959 18.5019C58.3472 18.5005 58.4969 18.7491 58.6313 18.9766C58.9681 19.5467 58.8011 20.329 58.6356 20.7929C58.5089 21.1482 57.501 22.1785 56.1782 23.4219C55.7327 23.8407 55.6043 23.6645 55.5243 23.3011C55.1397 21.5543 55.3531 20.7363 55.5448 20.2023C55.6271 19.9731 55.8197 19.8461 55.9821 19.7339C56.5494 19.3423 57.5018 19.4846 57.8438 19.5273C58.0353 19.5513 58.0096 19.9995 57.9828 20.45C57.9632 20.7805 57.2825 21.8733 56.4048 23.4035C56.0865 23.9584 56.0492 24.0765 56.0134 24.1957C55.9423 24.4328 56.3437 22.6875 56.8087 20.2424C55.9342 22.0359 55.4855 23.7295 55.4658 23.9634C55.4591 24.0926 55.4591 24.2432 55.4675 24.4261" stroke="#FDF8F1" stroke-width="2" stroke-linecap="round"/>
<path d="M41.9125 25.9054C41.8986 25.9054 41.7221 25.9054 41.4913 25.9519C41.3544 25.9795 41.9022 26.4617 42.6944 26.9941C43.5444 27.5654 44.5869 27.8734 45.5668 28.1269C46.4538 28.3563 47.0243 28.3426 47.2143 28.2742C47.675 28.1081 47.3329 27.2493 47.0701 26.5693C46.9173 26.174 46.4924 25.9059 46.1142 25.628C45.7384 25.3519 44.3361 24.8653 42.4146 24.2379C41.0375 23.7883 40.6837 23.913 40.4553 24.0133C39.6795 24.3539 39.7031 25.8412 39.6849 26.2992C39.6514 27.1445 41.4827 27.9728 42.3516 28.295C42.9453 28.5151 44.0606 28.4618 45.1467 28.3844C45.53 28.357 45.5446 28.1521 45.5306 28.0133C45.4725 27.4378 44.7247 26.8519 43.5981 26.0073C42.9681 25.5349 42.4025 25.4707 41.9867 25.4122C41.8798 25.3972 41.7579 25.4058 41.8324 25.5032C41.9068 25.6007 42.1805 25.7961 42.8532 26.1387C43.526 26.4813 44.5895 26.9651 45.7121 27.4636" stroke="#FDF8F1" stroke-width="2" stroke-linecap="round"/>
<path d="M53.0962 30.9741C52.5653 31.0803 51.4371 31.3732 51.0813 31.6257C50.4169 32.0973 50.555 33.2085 50.5501 33.9678C50.5491 34.1231 50.5783 34.1936 50.6194 34.2548C50.8105 34.5393 52.0935 34.5522 53.4032 34.4223C53.9412 34.3689 54.3915 34.042 54.8011 33.7426C55.2313 33.4281 55.547 32.4618 55.8598 31.1538C56.1372 29.9939 56.0261 29.1623 55.983 28.7182C55.9152 28.0186 55.5281 27.6049 55.2501 27.3001C55.0415 27.0714 54.5324 27.1107 53.8833 27.2437C53.0834 27.4076 52.1378 27.7279 51.3906 27.8923C50.5801 28.2718 49.8583 28.7908 49.7738 28.899C49.7353 28.9562 49.7057 29.018 49.6125 29.1699" stroke="#FDF8F1" stroke-width="10" stroke-linecap="round"/>
<path d="M45.8158 33.1875C45.8158 33.24 45.8091 33.495 45.8436 33.8605C45.9249 34.7204 47.6049 35.0318 48.4185 35.1524C48.9647 35.2333 49.967 35.2279 51.1894 35.0181C52.4118 34.8083 53.8288 34.347 54.698 34.0253C55.8682 33.5923 56.1969 33.3135 56.3196 33.2133C56.428 33.1106 56.9227 32.3637 57.5953 31.1933C57.8248 30.7166 57.8274 30.4777 57.7727 30.0492" stroke="#FDF8F1" stroke-width="10" stroke-linecap="round"/>
<path d="M47.2973 32.6931C47.295 32.6931 47.2928 32.6931 47.2742 32.6946C47.2556 32.6961 47.2207 32.6991 47.2292 32.7184" stroke="#403631" stroke-width="2" stroke-linecap="round"/>
<path d="M56.1752 28.3622H56.1784" stroke="#403631" stroke-width="2" stroke-linecap="round"/>
<path d="M51.361 32.9567C51.3634 32.9567 51.3658 32.9567 51.8645 32.9567C52.3632 32.9567 53.3582 32.9567 53.886 32.9627C54.4137 32.9687 54.4442 32.9807 54.4968 33.0101" stroke="#403631" stroke-linecap="round"/>
<path d="M53.4984 31.63C53.4981 31.6323 53.4979 31.6345 53.2529 32.1199C53.0079 32.6052 52.5182 33.5736 52.2501 34.116C51.9821 34.6583 51.9505 34.7453 51.9293 34.8111C51.908 34.8769 51.8981 34.9187 51.8878 34.9223" stroke="#403631" stroke-linecap="round"/>
<path d="M46.4403 40.6676C46.4413 40.6676 46.4423 40.6676 47.5959 40.6781C48.7495 40.6886 51.0556 40.7095 52.2612 40.7187C53.4668 40.7279 53.502 40.7246 53.6295 40.6917C54.2388 40.5344 54.3664 40.4579 54.6694 40.3177C54.8715 40.2241 55.2506 40.0748 55.627 39.8714C56.0035 39.668 56.3687 39.4216 56.7916 39.0846C57.2144 38.7477 57.6839 38.3276 58.2802 37.6862C58.8764 37.0448 59.5853 36.1948 60.0463 35.664C60.5073 35.1332 60.6989 34.9473 60.8612 34.7684C61.1639 34.4348 61.3671 34.1691 61.5427 34.0089C61.7251 33.8619 61.8942 33.7111 62.0194 33.5721C62.0705 33.5122 62.0965 33.4739 62.1315 33.4089" stroke="#FDF8F1" stroke-width="3" stroke-linecap="round"/>
<path d="M39.7982 26.1237C39.8197 26.1237 39.994 26.0968 40.4595 25.9988C40.7617 25.9277 41.1979 25.8131 42.1103 25.7241C43.0228 25.635 44.3984 25.5749 45.8352 25.5046" stroke="#FDF8F1" stroke-width="3" stroke-linecap="round"/>
<path d="M41.0731 29.8528C40.9781 29.833 40.7079 29.7478 40.0933 29.2948C39.5009 28.8581 39.4301 28.6374 39.1431 28.3385C38.9997 28.1891 38.7983 27.9195 38.5977 27.5694C38.3972 27.2193 38.2125 26.7886 38.0775 26.3883C37.826 25.6425 37.7802 25.2051 37.7916 25.0947C37.8285 24.7393 38.4843 24.3357 38.7415 24.1602C38.8456 24.0892 39.2371 23.9916 40.2567 23.8471C40.9472 23.7493 42.0051 23.7416 42.7704 23.7645C43.9852 23.8008 44.555 24.008 44.9263 24.1718C45.1815 24.2965 45.5723 24.5057 45.8962 24.6887C46.2201 24.8717 46.4654 25.0222 46.723 25.1875" stroke="#FDF8F1" stroke-width="3" stroke-linecap="round"/>
<path d="M51.6394 23.3109C51.6394 23.3007 51.6554 23.1921 51.9931 22.5798C52.2838 22.0526 52.9415 21.1594 53.5553 20.4259C54.1692 19.6925 54.7511 19.1646 55.1799 18.8139C55.8414 18.2729 56.2939 18.078 56.6984 17.9516C57.8647 17.5871 58.6445 17.793 58.856 17.8717C59.3662 18.0615 59.7534 18.7463 59.9773 19.3173C60.2326 19.9683 60.2396 20.7728 60.2405 21.3547C60.2408 21.5931 60.2028 21.715 60.0601 22.1341C59.9175 22.5532 59.6615 23.2656 59.5035 23.7175C59.3456 24.1694 59.2934 24.3391 59.2331 24.5648" stroke="#FDF8F1" stroke-width="3" stroke-linecap="round"/>
<path d="M40.4351 30.8222C40.3556 30.8098 40.1061 30.7271 38.8198 29.9844C38.427 29.7576 38.3039 29.6126 38.068 29.3365C37.5258 28.7021 37.1151 28.1661 36.9667 27.9003C36.594 27.2327 36.5649 26.8571 36.5653 26.2305C36.5656 25.8062 36.9096 25.3196 37.4304 24.814C37.8556 24.4011 38.5178 24.1185 39.2164 23.8326C39.5873 23.6808 40.0112 23.5668 40.5837 23.4517C41.1562 23.3366 41.8695 23.2371 42.4383 23.188C43.0072 23.1388 43.41 23.1431 43.9034 23.2272C44.9812 23.4111 45.6636 23.6981 46.0551 23.9386C46.8011 24.4431 47.4471 24.9173 47.7346 25.1593C47.8507 25.2547 47.9064 25.2945 47.997 25.3544" stroke="#FDF8F1" stroke-width="3" stroke-linecap="round"/>
<ellipse cx="74.9467" cy="111.204" rx="54.9534" ry="42.7415" fill="#FAB9B4"/>
<ellipse cx="99.5352" cy="68.9451" rx="26.6441" ry="15.7325" transform="rotate(-73.2305 99.5352 68.9451)" fill="#FAB9B4"/>
<ellipse cx="56.0766" cy="65.9772" rx="26.6441" ry="15.7325" transform="rotate(-96.8073 56.0766 65.9772)" fill="#FAB9B4"/>
<circle cx="52.1882" cy="107.319" r="5.55085" fill="#403631"/>
<circle cx="95.4848" cy="107.319" r="5.55085" fill="#403631"/>
<path d="M66.3642 117.243V113.424L82.1628 114.181L81.3088 118.117L76.3985 117.83C76.3985 117.83 76.185 119.429 76.6119 120.304C77.0894 121.282 77.8585 121.884 78.7469 122.491C80.0279 123.365 82.1628 122.928 82.1628 122.928L81.3088 127.302C81.3088 127.302 79.983 127.132 79.1739 126.864C78.1094 126.512 77.5557 126.167 76.6119 125.552C75.9085 125.094 75.4935 124.844 74.904 124.24C74.3144 123.636 73.623 122.491 73.623 122.491C73.623 122.491 73.2544 123.66 72.7691 124.24C72.1363 124.996 71.4852 125.508 70.6341 125.99C69.655 126.544 69.1808 126.712 68.0722 126.864C67.0669 127.002 65.5103 126.427 65.5103 126.427L66.3642 122.053C66.3642 122.053 67.7082 122.324 68.4992 122.053C69.6178 121.672 70.4457 121.334 71.0611 120.304C71.5553 119.477 71.4881 117.543 71.4881 117.543L66.3642 117.243Z" fill="#403631"/>
<path d="M71.4881 117.543L66.3642 117.243V113.424L82.1628 114.181L81.3088 118.117L76.3985 117.83M71.4881 117.543C71.4881 117.543 71.5553 119.477 71.0611 120.304C70.4457 121.334 69.6178 121.672 68.4992 122.053C67.7082 122.324 66.3642 122.053 66.3642 122.053L65.5103 126.427C65.5103 126.427 67.0669 127.002 68.0722 126.864C69.1808 126.712 69.655 126.544 70.6341 125.99C71.4852 125.508 72.1363 124.996 72.7691 124.24C73.2544 123.66 73.623 122.491 73.623 122.491C73.623 122.491 74.3144 123.636 74.904 124.24C75.4935 124.844 75.9085 125.094 76.6119 125.552C77.5557 126.167 78.1094 126.512 79.1739 126.864C79.983 127.132 81.3088 127.302 81.3088 127.302L82.1628 122.928C82.1628 122.928 80.0279 123.365 78.7469 122.491C77.8585 121.884 77.0894 121.282 76.6119 120.304C76.185 119.429 76.3985 117.83 76.3985 117.83M71.4881 117.543L76.3985 117.83" stroke="#403631"/>
</svg>
